%TF.GenerationSoftware,KiCad,Pcbnew,9.0.0*%
%TF.CreationDate,2025-04-29T13:04:53-04:00*%
%TF.ProjectId,mp3_player,6d70335f-706c-4617-9965-722e6b696361,rev?*%
%TF.SameCoordinates,Original*%
%TF.FileFunction,Copper,L2,Bot*%
%TF.FilePolarity,Positive*%
%FSLAX46Y46*%
G04 Gerber Fmt 4.6, Leading zero omitted, Abs format (unit mm)*
G04 Created by KiCad (PCBNEW 9.0.0) date 2025-04-29 13:04:53*
%MOMM*%
%LPD*%
G01*
G04 APERTURE LIST*
G04 Aperture macros list*
%AMRoundRect*
0 Rectangle with rounded corners*
0 $1 Rounding radius*
0 $2 $3 $4 $5 $6 $7 $8 $9 X,Y pos of 4 corners*
0 Add a 4 corners polygon primitive as box body*
4,1,4,$2,$3,$4,$5,$6,$7,$8,$9,$2,$3,0*
0 Add four circle primitives for the rounded corners*
1,1,$1+$1,$2,$3*
1,1,$1+$1,$4,$5*
1,1,$1+$1,$6,$7*
1,1,$1+$1,$8,$9*
0 Add four rect primitives between the rounded corners*
20,1,$1+$1,$2,$3,$4,$5,0*
20,1,$1+$1,$4,$5,$6,$7,0*
20,1,$1+$1,$6,$7,$8,$9,0*
20,1,$1+$1,$8,$9,$2,$3,0*%
G04 Aperture macros list end*
%TA.AperFunction,ComponentPad*%
%ADD10C,2.000000*%
%TD*%
%TA.AperFunction,ComponentPad*%
%ADD11O,1.200000X2.200000*%
%TD*%
%TA.AperFunction,ComponentPad*%
%ADD12O,1.600000X2.300000*%
%TD*%
%TA.AperFunction,ComponentPad*%
%ADD13O,2.200000X1.200000*%
%TD*%
%TA.AperFunction,ComponentPad*%
%ADD14O,1.600000X2.500000*%
%TD*%
%TA.AperFunction,ComponentPad*%
%ADD15C,2.100000*%
%TD*%
%TA.AperFunction,ComponentPad*%
%ADD16C,1.750000*%
%TD*%
%TA.AperFunction,ComponentPad*%
%ADD17R,1.700000X1.700000*%
%TD*%
%TA.AperFunction,ComponentPad*%
%ADD18O,1.700000X1.700000*%
%TD*%
%TA.AperFunction,ComponentPad*%
%ADD19R,1.600000X1.600000*%
%TD*%
%TA.AperFunction,ComponentPad*%
%ADD20O,1.600000X1.600000*%
%TD*%
%TA.AperFunction,ComponentPad*%
%ADD21R,2.000000X2.000000*%
%TD*%
%TA.AperFunction,ComponentPad*%
%ADD22RoundRect,0.250000X0.550000X0.550000X-0.550000X0.550000X-0.550000X-0.550000X0.550000X-0.550000X0*%
%TD*%
%TA.AperFunction,ComponentPad*%
%ADD23C,1.600000*%
%TD*%
%TA.AperFunction,ComponentPad*%
%ADD24R,2.540000X2.540000*%
%TD*%
%TA.AperFunction,ComponentPad*%
%ADD25C,1.670000*%
%TD*%
%TA.AperFunction,ComponentPad*%
%ADD26RoundRect,0.250000X0.350000X0.625000X-0.350000X0.625000X-0.350000X-0.625000X0.350000X-0.625000X0*%
%TD*%
%TA.AperFunction,ComponentPad*%
%ADD27O,1.200000X1.750000*%
%TD*%
%TA.AperFunction,ComponentPad*%
%ADD28R,3.500000X2.540000*%
%TD*%
%TA.AperFunction,Conductor*%
%ADD29C,0.200000*%
%TD*%
G04 APERTURE END LIST*
D10*
%TO.P,SW2,1,1*%
%TO.N,GND*%
X136724375Y-136293000D03*
X143224375Y-136293000D03*
%TO.P,SW2,2,2*%
%TO.N,PLAY{slash}PAUSE*%
X136724375Y-140793000D03*
X143224375Y-140793000D03*
%TD*%
D11*
%TO.P,J1,R*%
%TO.N,ROUT*%
X161224375Y-137293000D03*
D12*
%TO.P,J1,RN*%
%TO.N,unconnected-(J1-PadRN)*%
X163724375Y-137293000D03*
D13*
%TO.P,J1,S*%
%TO.N,AGND*%
X166224375Y-142293000D03*
D11*
%TO.P,J1,T*%
%TO.N,LOUT*%
X171224375Y-137293000D03*
D14*
%TO.P,J1,TN*%
%TO.N,unconnected-(J1-PadTN)*%
X168724375Y-137293000D03*
%TD*%
D10*
%TO.P,SW4,1,1*%
%TO.N,GND*%
X148724375Y-136293000D03*
X155224375Y-136293000D03*
%TO.P,SW4,2,2*%
%TO.N,PREV{slash}RESTART*%
X148724375Y-140793000D03*
X155224375Y-140793000D03*
%TD*%
D15*
%TO.P,SW6,*%
%TO.N,*%
X168521875Y-68268000D03*
X168521875Y-75278000D03*
D16*
%TO.P,SW6,1,1*%
%TO.N,GND*%
X171011875Y-69518000D03*
%TO.P,SW6,2,2*%
%TO.N,VOLUP*%
X171011875Y-74018000D03*
%TD*%
D17*
%TO.P,U3,1,GND*%
%TO.N,GND*%
X136109375Y-59873000D03*
D18*
%TO.P,U3,2,VCC*%
%TO.N,3.7V*%
X136109375Y-57333000D03*
%TO.P,U3,3,SCL*%
%TO.N,SCL*%
X136109375Y-54793000D03*
%TO.P,U3,4,SDA*%
%TO.N,SDA*%
X136109375Y-52253000D03*
%TD*%
D19*
%TO.P,A1,1,D1/TX*%
%TO.N,VOLDN*%
X118674375Y-102403000D03*
D20*
%TO.P,A1,2,D0/RX*%
%TO.N,VOLUP*%
X121214375Y-102403000D03*
%TO.P,A1,3,~{RESET}*%
%TO.N,unconnected-(A1-~{RESET}-Pad3)*%
X123754375Y-102403000D03*
%TO.P,A1,4,GND*%
%TO.N,GND*%
X126294375Y-102403000D03*
%TO.P,A1,5,D2*%
%TO.N,unconnected-(A1-D2-Pad5)*%
X128834375Y-102403000D03*
%TO.P,A1,6,D3*%
%TO.N,DREQ*%
X131374375Y-102403000D03*
%TO.P,A1,7,D4*%
%TO.N,CARDCS*%
X133914375Y-102403000D03*
%TO.P,A1,8,D5*%
%TO.N,unconnected-(A1-D5-Pad8)*%
X136454375Y-102403000D03*
%TO.P,A1,9,D6*%
%TO.N,unconnected-(A1-D6-Pad9)*%
X138994375Y-102403000D03*
%TO.P,A1,10,D7*%
%TO.N,unconnected-(A1-D7-Pad10)*%
X141534375Y-102403000D03*
%TO.P,A1,11,D8*%
%TO.N,VS_DCS*%
X144074375Y-102403000D03*
%TO.P,A1,12,D9*%
%TO.N,VS_RST*%
X146614375Y-102403000D03*
%TO.P,A1,13,D10*%
%TO.N,VS_CS*%
X149154375Y-102403000D03*
%TO.P,A1,14,D11*%
%TO.N,MOSI*%
X151694375Y-102403000D03*
%TO.P,A1,15,D12*%
%TO.N,MISO*%
X154234375Y-102403000D03*
%TO.P,A1,16,D13*%
%TO.N,SCLK*%
X154234375Y-87163000D03*
%TO.P,A1,17,3V3*%
%TO.N,unconnected-(A1-3V3-Pad17)*%
X151694375Y-87163000D03*
%TO.P,A1,18,AREF*%
%TO.N,unconnected-(A1-AREF-Pad18)*%
X149154375Y-87163000D03*
%TO.P,A1,19,A0*%
%TO.N,PLAY{slash}PAUSE*%
X146614375Y-87163000D03*
%TO.P,A1,20,A1*%
%TO.N,NEXT*%
X144074375Y-87163000D03*
%TO.P,A1,21,A2*%
%TO.N,PREV{slash}RESTART*%
X141534375Y-87163000D03*
%TO.P,A1,22,A3*%
%TO.N,SEEKF*%
X138994375Y-87163000D03*
%TO.P,A1,23,A4*%
%TO.N,SDA*%
X136454375Y-87163000D03*
%TO.P,A1,24,A5*%
%TO.N,SCL*%
X133914375Y-87163000D03*
%TO.P,A1,25,A6*%
%TO.N,SEEKB*%
X131374375Y-87163000D03*
%TO.P,A1,26,A7*%
%TO.N,unconnected-(A1-A7-Pad26)*%
X128834375Y-87163000D03*
%TO.P,A1,27,+5V*%
%TO.N,unconnected-(A1-+5V-Pad27)*%
X126294375Y-87163000D03*
%TO.P,A1,28,~{RESET}*%
%TO.N,unconnected-(A1-~{RESET}-Pad28)*%
X123754375Y-87163000D03*
%TO.P,A1,29,GND*%
%TO.N,GND*%
X121214375Y-87163000D03*
%TO.P,A1,30,VIN*%
%TO.N,Net-(A1-VIN)*%
X118674375Y-87163000D03*
%TD*%
D15*
%TO.P,SW7,*%
%TO.N,*%
X168521875Y-78768000D03*
X168521875Y-85778000D03*
D16*
%TO.P,SW7,1,1*%
%TO.N,GND*%
X171011875Y-80018000D03*
%TO.P,SW7,2,2*%
%TO.N,VOLDN*%
X171011875Y-84518000D03*
%TD*%
D10*
%TO.P,SW3,1,1*%
%TO.N,GND*%
X124724375Y-136293000D03*
X131224375Y-136293000D03*
%TO.P,SW3,2,2*%
%TO.N,NEXT*%
X124724375Y-140793000D03*
X131224375Y-140793000D03*
%TD*%
D21*
%TO.P,SW5,1,A*%
%TO.N,SEEKB*%
X109724375Y-80293000D03*
D10*
%TO.P,SW5,2,B*%
%TO.N,GND*%
X109724375Y-75213000D03*
%TO.P,SW5,3,C*%
%TO.N,SEEKF*%
X109724375Y-70133000D03*
%TD*%
D22*
%TO.P,SW1,1,A*%
%TO.N,3.7V*%
X121724375Y-52793000D03*
D23*
%TO.P,SW1,2,B*%
%TO.N,Net-(A1-VIN)*%
X114104375Y-52793000D03*
%TD*%
D24*
%TO.P,U11,1,IN+*%
%TO.N,unconnected-(U11-IN+-Pad1)*%
X146949375Y-52043000D03*
%TO.P,U11,2,IN-*%
%TO.N,unconnected-(U11-IN--Pad2)*%
X160449375Y-52043000D03*
%TO.P,U11,3,OUT-*%
%TO.N,0V*%
X160449375Y-75043000D03*
%TO.P,U11,4,BAT-*%
%TO.N,Net-(J2-Pin_1)*%
X157449375Y-75043000D03*
%TO.P,U11,5,OUT+*%
%TO.N,3.7V*%
X146949375Y-75043000D03*
%TO.P,U11,6,BAT+*%
%TO.N,Net-(J2-Pin_2)*%
X149949375Y-75043000D03*
%TD*%
D25*
%TO.P,U2,1,LINE2*%
%TO.N,unconnected-(U2-LINE2-Pad1)*%
X122204375Y-130153000D03*
%TO.P,U2,2,MIC+*%
%TO.N,unconnected-(U2-MIC+-Pad2)*%
X124744375Y-130153000D03*
%TO.P,U2,3,MIC-*%
%TO.N,unconnected-(U2-MIC--Pad3)*%
X127284375Y-130153000D03*
%TO.P,U2,4,AGND*%
%TO.N,unconnected-(U2-AGND-Pad4)*%
X129824375Y-130153000D03*
%TO.P,U2,5,3V3*%
%TO.N,unconnected-(U2-3V3-Pad5)*%
X132364375Y-130153000D03*
%TO.P,U2,6,0*%
%TO.N,unconnected-(U2-0-Pad6)*%
X134904375Y-130153000D03*
%TO.P,U2,7,1*%
%TO.N,unconnected-(U2-1-Pad7)*%
X137444375Y-130153000D03*
%TO.P,U2,8,2*%
%TO.N,unconnected-(U2-2-Pad8)*%
X139984375Y-130153000D03*
%TO.P,U2,9,3*%
%TO.N,unconnected-(U2-3-Pad9)*%
X142524375Y-130153000D03*
%TO.P,U2,10,4*%
%TO.N,unconnected-(U2-4-Pad10)*%
X145064375Y-130153000D03*
%TO.P,U2,11,5*%
%TO.N,unconnected-(U2-5-Pad11)*%
X147604375Y-130153000D03*
%TO.P,U2,12,6*%
%TO.N,unconnected-(U2-6-Pad12)*%
X150144375Y-130153000D03*
%TO.P,U2,13,7*%
%TO.N,unconnected-(U2-7-Pad13)*%
X152684375Y-130153000D03*
%TO.P,U2,14,TX*%
%TO.N,unconnected-(U2-TX-Pad14)*%
X155224375Y-130153000D03*
%TO.P,U2,15,RX*%
%TO.N,unconnected-(U2-RX-Pad15)*%
X157764375Y-130153000D03*
%TO.P,U2,16,SDCD*%
%TO.N,unconnected-(U2-SDCD-Pad16)*%
X160304375Y-130153000D03*
%TO.P,U2,17,ROUT*%
%TO.N,ROUT*%
X122204375Y-107293000D03*
%TO.P,U2,18,LOUT*%
%TO.N,LOUT*%
X124744375Y-107293000D03*
%TO.P,U2,19,AGND*%
%TO.N,AGND*%
X127284375Y-107293000D03*
%TO.P,U2,20,AGND*%
%TO.N,unconnected-(U2-AGND-Pad20)*%
X129824375Y-107293000D03*
%TO.P,U2,21,GND*%
%TO.N,GND*%
X132364375Y-107293000D03*
%TO.P,U2,22,DREQ*%
%TO.N,DREQ*%
X134904375Y-107293000D03*
%TO.P,U2,23,VCC*%
%TO.N,5V*%
X137444375Y-107293000D03*
%TO.P,U2,24,3V3*%
%TO.N,unconnected-(U2-3V3-Pad24)*%
X139984375Y-107293000D03*
%TO.P,U2,25,GND*%
%TO.N,unconnected-(U2-GND-Pad25)*%
X142524375Y-107293000D03*
%TO.P,U2,26,MISO*%
%TO.N,MISO*%
X145064375Y-107293000D03*
%TO.P,U2,27,MOSI*%
%TO.N,MOSI*%
X147604375Y-107293000D03*
%TO.P,U2,28,SCLK*%
%TO.N,SCLK*%
X150144375Y-107293000D03*
%TO.P,U2,29,RST*%
%TO.N,VS_RST*%
X152684375Y-107293000D03*
%TO.P,U2,30,CS*%
%TO.N,VS_CS*%
X155224375Y-107293000D03*
%TO.P,U2,31,SDCS*%
%TO.N,CARDCS*%
X157764375Y-107293000D03*
%TO.P,U2,32,XDCS*%
%TO.N,VS_DCS*%
X160304375Y-107293000D03*
%TD*%
D26*
%TO.P,J2,1,Pin_1*%
%TO.N,Net-(J2-Pin_1)*%
X170000000Y-95550000D03*
D27*
%TO.P,J2,2,Pin_2*%
%TO.N,Net-(J2-Pin_2)*%
X168000000Y-95550000D03*
%TD*%
D28*
%TO.P,U1,1,VIN+*%
%TO.N,3.7V*%
X115224375Y-81293000D03*
%TO.P,U1,2,VIN-*%
%TO.N,0V*%
X115224375Y-67293000D03*
%TO.P,U1,3,OUT+*%
%TO.N,5V*%
X142224375Y-81293000D03*
%TO.P,U1,4,OUT-*%
%TO.N,New0V*%
X142224375Y-67293000D03*
%TD*%
D29*
%TO.N,Net-(J2-Pin_2)*%
X169176000Y-96726000D02*
X170585160Y-96726000D01*
X151921375Y-73071000D02*
X149949375Y-75043000D01*
X170585160Y-96726000D02*
X170901000Y-96410160D01*
X162186475Y-73071000D02*
X151921375Y-73071000D01*
X164038483Y-87827323D02*
X164038483Y-74923008D01*
X170901000Y-94689840D02*
X164038483Y-87827323D01*
X164038483Y-74923008D02*
X162186475Y-73071000D01*
X168000000Y-95550000D02*
X169176000Y-96726000D01*
X170901000Y-96410160D02*
X170901000Y-94689840D01*
%TO.N,Net-(J2-Pin_1)*%
X159020375Y-73472000D02*
X157449375Y-75043000D01*
X170000000Y-95550000D02*
X163637483Y-89187483D01*
X163637483Y-75089108D02*
X162020375Y-73472000D01*
X163637483Y-89187483D02*
X163637483Y-75089108D01*
X162020375Y-73472000D02*
X159020375Y-73472000D01*
%TO.N,GND*%
X134958375Y-56856240D02*
X134958375Y-58722000D01*
X126540922Y-102403000D02*
X131430922Y-107293000D01*
X112766375Y-82812050D02*
X118218325Y-88264000D01*
X118218325Y-88264000D02*
X120113375Y-88264000D01*
X136724375Y-136293000D02*
X143224375Y-136293000D01*
X148613375Y-56182000D02*
X135632615Y-56182000D01*
X162824374Y-70392999D02*
X160974375Y-68543000D01*
X136109375Y-59873000D02*
X120769375Y-75213000D01*
X170136876Y-70392999D02*
X162824374Y-70392999D01*
X160974375Y-68543000D02*
X148613375Y-56182000D01*
X109724375Y-75213000D02*
X112766375Y-78255000D01*
X163224375Y-72293000D02*
X163224375Y-70793000D01*
X131224375Y-136293000D02*
X136724375Y-136293000D01*
X126148375Y-134869000D02*
X124724375Y-136293000D01*
X143224375Y-136293000D02*
X148724375Y-136293000D01*
X121214375Y-97323000D02*
X126294375Y-102403000D01*
X134958375Y-58722000D02*
X136109375Y-59873000D01*
X121214375Y-87163000D02*
X121214375Y-97323000D01*
X120769375Y-75213000D02*
X109724375Y-75213000D01*
X126294375Y-102403000D02*
X126540922Y-102403000D01*
X124724375Y-136293000D02*
X131224375Y-136293000D01*
X132364375Y-107293000D02*
X126148375Y-113509000D01*
X126148375Y-113509000D02*
X126148375Y-134869000D01*
X112766375Y-78255000D02*
X112766375Y-82812050D01*
X171011875Y-69518000D02*
X170136876Y-70392999D01*
X135632615Y-56182000D02*
X134958375Y-56856240D01*
X171011875Y-80018000D02*
X171011875Y-78780564D01*
X167724375Y-76793000D02*
X163224375Y-72293000D01*
X148724375Y-136293000D02*
X155224375Y-136293000D01*
X169024311Y-76793000D02*
X167724375Y-76793000D01*
X163224375Y-70793000D02*
X160974375Y-68543000D01*
X131430922Y-107293000D02*
X132364375Y-107293000D01*
X171011875Y-78780564D02*
X169024311Y-76793000D01*
X120113375Y-88264000D02*
X121214375Y-87163000D01*
%TO.N,3.7V*%
X146949375Y-68173000D02*
X146949375Y-75043000D01*
X116795375Y-79722000D02*
X142270375Y-79722000D01*
X142270375Y-79722000D02*
X146949375Y-75043000D01*
X115224375Y-81293000D02*
X116795375Y-79722000D01*
X136109375Y-57333000D02*
X146949375Y-68173000D01*
%TO.N,SCLK*%
X152795375Y-104642000D02*
X150144375Y-107293000D01*
X154234375Y-87163000D02*
X152795375Y-88602000D01*
X152795375Y-88602000D02*
X152795375Y-104642000D01*
%TO.N,5V*%
X140433375Y-83084000D02*
X140433375Y-104304000D01*
X142224375Y-81293000D02*
X140433375Y-83084000D01*
X140433375Y-104304000D02*
X137444375Y-107293000D01*
%TO.N,0V*%
X124185483Y-137594000D02*
X155763267Y-137594000D01*
X163236483Y-77830108D02*
X160449375Y-75043000D01*
X155763267Y-137594000D02*
X163236483Y-130120784D01*
X108423375Y-121831892D02*
X124185483Y-137594000D01*
X108423375Y-74094000D02*
X108423375Y-121831892D01*
X115224375Y-67293000D02*
X108423375Y-74094000D01*
X163236483Y-130120784D02*
X163236483Y-77830108D01*
%TD*%
M02*
