%TF.GenerationSoftware,KiCad,Pcbnew,9.0.0*%
%TF.CreationDate,2025-04-29T13:04:53-04:00*%
%TF.ProjectId,mp3_player,6d70335f-706c-4617-9965-722e6b696361,rev?*%
%TF.SameCoordinates,Original*%
%TF.FileFunction,Legend,Top*%
%TF.FilePolarity,Positive*%
%FSLAX46Y46*%
G04 Gerber Fmt 4.6, Leading zero omitted, Abs format (unit mm)*
G04 Created by KiCad (PCBNEW 9.0.0) date 2025-04-29 13:04:53*
%MOMM*%
%LPD*%
G01*
G04 APERTURE LIST*
%ADD10C,0.150000*%
%ADD11C,0.120000*%
%ADD12C,0.040000*%
G04 APERTURE END LIST*
D10*
X138641042Y-134700200D02*
X138783899Y-134747819D01*
X138783899Y-134747819D02*
X139021994Y-134747819D01*
X139021994Y-134747819D02*
X139117232Y-134700200D01*
X139117232Y-134700200D02*
X139164851Y-134652580D01*
X139164851Y-134652580D02*
X139212470Y-134557342D01*
X139212470Y-134557342D02*
X139212470Y-134462104D01*
X139212470Y-134462104D02*
X139164851Y-134366866D01*
X139164851Y-134366866D02*
X139117232Y-134319247D01*
X139117232Y-134319247D02*
X139021994Y-134271628D01*
X139021994Y-134271628D02*
X138831518Y-134224009D01*
X138831518Y-134224009D02*
X138736280Y-134176390D01*
X138736280Y-134176390D02*
X138688661Y-134128771D01*
X138688661Y-134128771D02*
X138641042Y-134033533D01*
X138641042Y-134033533D02*
X138641042Y-133938295D01*
X138641042Y-133938295D02*
X138688661Y-133843057D01*
X138688661Y-133843057D02*
X138736280Y-133795438D01*
X138736280Y-133795438D02*
X138831518Y-133747819D01*
X138831518Y-133747819D02*
X139069613Y-133747819D01*
X139069613Y-133747819D02*
X139212470Y-133795438D01*
X139545804Y-133747819D02*
X139783899Y-134747819D01*
X139783899Y-134747819D02*
X139974375Y-134033533D01*
X139974375Y-134033533D02*
X140164851Y-134747819D01*
X140164851Y-134747819D02*
X140402947Y-133747819D01*
X140736280Y-133843057D02*
X140783899Y-133795438D01*
X140783899Y-133795438D02*
X140879137Y-133747819D01*
X140879137Y-133747819D02*
X141117232Y-133747819D01*
X141117232Y-133747819D02*
X141212470Y-133795438D01*
X141212470Y-133795438D02*
X141260089Y-133843057D01*
X141260089Y-133843057D02*
X141307708Y-133938295D01*
X141307708Y-133938295D02*
X141307708Y-134033533D01*
X141307708Y-134033533D02*
X141260089Y-134176390D01*
X141260089Y-134176390D02*
X140688661Y-134747819D01*
X140688661Y-134747819D02*
X141307708Y-134747819D01*
X165891041Y-132947819D02*
X165891041Y-133662104D01*
X165891041Y-133662104D02*
X165843422Y-133804961D01*
X165843422Y-133804961D02*
X165748184Y-133900200D01*
X165748184Y-133900200D02*
X165605327Y-133947819D01*
X165605327Y-133947819D02*
X165510089Y-133947819D01*
X166891041Y-133947819D02*
X166319613Y-133947819D01*
X166605327Y-133947819D02*
X166605327Y-132947819D01*
X166605327Y-132947819D02*
X166510089Y-133090676D01*
X166510089Y-133090676D02*
X166414851Y-133185914D01*
X166414851Y-133185914D02*
X166319613Y-133233533D01*
X150641042Y-134700200D02*
X150783899Y-134747819D01*
X150783899Y-134747819D02*
X151021994Y-134747819D01*
X151021994Y-134747819D02*
X151117232Y-134700200D01*
X151117232Y-134700200D02*
X151164851Y-134652580D01*
X151164851Y-134652580D02*
X151212470Y-134557342D01*
X151212470Y-134557342D02*
X151212470Y-134462104D01*
X151212470Y-134462104D02*
X151164851Y-134366866D01*
X151164851Y-134366866D02*
X151117232Y-134319247D01*
X151117232Y-134319247D02*
X151021994Y-134271628D01*
X151021994Y-134271628D02*
X150831518Y-134224009D01*
X150831518Y-134224009D02*
X150736280Y-134176390D01*
X150736280Y-134176390D02*
X150688661Y-134128771D01*
X150688661Y-134128771D02*
X150641042Y-134033533D01*
X150641042Y-134033533D02*
X150641042Y-133938295D01*
X150641042Y-133938295D02*
X150688661Y-133843057D01*
X150688661Y-133843057D02*
X150736280Y-133795438D01*
X150736280Y-133795438D02*
X150831518Y-133747819D01*
X150831518Y-133747819D02*
X151069613Y-133747819D01*
X151069613Y-133747819D02*
X151212470Y-133795438D01*
X151545804Y-133747819D02*
X151783899Y-134747819D01*
X151783899Y-134747819D02*
X151974375Y-134033533D01*
X151974375Y-134033533D02*
X152164851Y-134747819D01*
X152164851Y-134747819D02*
X152402947Y-133747819D01*
X153212470Y-134081152D02*
X153212470Y-134747819D01*
X152974375Y-133700200D02*
X152736280Y-134414485D01*
X152736280Y-134414485D02*
X153355327Y-134414485D01*
X169739075Y-73101332D02*
X169786694Y-72958475D01*
X169786694Y-72958475D02*
X169786694Y-72720380D01*
X169786694Y-72720380D02*
X169739075Y-72625142D01*
X169739075Y-72625142D02*
X169691455Y-72577523D01*
X169691455Y-72577523D02*
X169596217Y-72529904D01*
X169596217Y-72529904D02*
X169500979Y-72529904D01*
X169500979Y-72529904D02*
X169405741Y-72577523D01*
X169405741Y-72577523D02*
X169358122Y-72625142D01*
X169358122Y-72625142D02*
X169310503Y-72720380D01*
X169310503Y-72720380D02*
X169262884Y-72910856D01*
X169262884Y-72910856D02*
X169215265Y-73006094D01*
X169215265Y-73006094D02*
X169167646Y-73053713D01*
X169167646Y-73053713D02*
X169072408Y-73101332D01*
X169072408Y-73101332D02*
X168977170Y-73101332D01*
X168977170Y-73101332D02*
X168881932Y-73053713D01*
X168881932Y-73053713D02*
X168834313Y-73006094D01*
X168834313Y-73006094D02*
X168786694Y-72910856D01*
X168786694Y-72910856D02*
X168786694Y-72672761D01*
X168786694Y-72672761D02*
X168834313Y-72529904D01*
X168786694Y-72196570D02*
X169786694Y-71958475D01*
X169786694Y-71958475D02*
X169072408Y-71767999D01*
X169072408Y-71767999D02*
X169786694Y-71577523D01*
X169786694Y-71577523D02*
X168786694Y-71339428D01*
X168786694Y-70529904D02*
X168786694Y-70720380D01*
X168786694Y-70720380D02*
X168834313Y-70815618D01*
X168834313Y-70815618D02*
X168881932Y-70863237D01*
X168881932Y-70863237D02*
X169024789Y-70958475D01*
X169024789Y-70958475D02*
X169215265Y-71006094D01*
X169215265Y-71006094D02*
X169596217Y-71006094D01*
X169596217Y-71006094D02*
X169691455Y-70958475D01*
X169691455Y-70958475D02*
X169739075Y-70910856D01*
X169739075Y-70910856D02*
X169786694Y-70815618D01*
X169786694Y-70815618D02*
X169786694Y-70625142D01*
X169786694Y-70625142D02*
X169739075Y-70529904D01*
X169739075Y-70529904D02*
X169691455Y-70482285D01*
X169691455Y-70482285D02*
X169596217Y-70434666D01*
X169596217Y-70434666D02*
X169358122Y-70434666D01*
X169358122Y-70434666D02*
X169262884Y-70482285D01*
X169262884Y-70482285D02*
X169215265Y-70529904D01*
X169215265Y-70529904D02*
X169167646Y-70625142D01*
X169167646Y-70625142D02*
X169167646Y-70815618D01*
X169167646Y-70815618D02*
X169215265Y-70910856D01*
X169215265Y-70910856D02*
X169262884Y-70958475D01*
X169262884Y-70958475D02*
X169358122Y-71006094D01*
X170164194Y-56914904D02*
X170973717Y-56914904D01*
X170973717Y-56914904D02*
X171068955Y-56867285D01*
X171068955Y-56867285D02*
X171116575Y-56819666D01*
X171116575Y-56819666D02*
X171164194Y-56724428D01*
X171164194Y-56724428D02*
X171164194Y-56533952D01*
X171164194Y-56533952D02*
X171116575Y-56438714D01*
X171116575Y-56438714D02*
X171068955Y-56391095D01*
X171068955Y-56391095D02*
X170973717Y-56343476D01*
X170973717Y-56343476D02*
X170164194Y-56343476D01*
X170164194Y-55962523D02*
X170164194Y-55343476D01*
X170164194Y-55343476D02*
X170545146Y-55676809D01*
X170545146Y-55676809D02*
X170545146Y-55533952D01*
X170545146Y-55533952D02*
X170592765Y-55438714D01*
X170592765Y-55438714D02*
X170640384Y-55391095D01*
X170640384Y-55391095D02*
X170735622Y-55343476D01*
X170735622Y-55343476D02*
X170973717Y-55343476D01*
X170973717Y-55343476D02*
X171068955Y-55391095D01*
X171068955Y-55391095D02*
X171116575Y-55438714D01*
X171116575Y-55438714D02*
X171164194Y-55533952D01*
X171164194Y-55533952D02*
X171164194Y-55819666D01*
X171164194Y-55819666D02*
X171116575Y-55914904D01*
X171116575Y-55914904D02*
X171068955Y-55962523D01*
X137671670Y-58332999D02*
X138471670Y-58082999D01*
X138471670Y-58082999D02*
X137671670Y-57832999D01*
X138395479Y-57154428D02*
X138433575Y-57190142D01*
X138433575Y-57190142D02*
X138471670Y-57297285D01*
X138471670Y-57297285D02*
X138471670Y-57368713D01*
X138471670Y-57368713D02*
X138433575Y-57475856D01*
X138433575Y-57475856D02*
X138357384Y-57547285D01*
X138357384Y-57547285D02*
X138281194Y-57582999D01*
X138281194Y-57582999D02*
X138128813Y-57618713D01*
X138128813Y-57618713D02*
X138014527Y-57618713D01*
X138014527Y-57618713D02*
X137862146Y-57582999D01*
X137862146Y-57582999D02*
X137785955Y-57547285D01*
X137785955Y-57547285D02*
X137709765Y-57475856D01*
X137709765Y-57475856D02*
X137671670Y-57368713D01*
X137671670Y-57368713D02*
X137671670Y-57297285D01*
X137671670Y-57297285D02*
X137709765Y-57190142D01*
X137709765Y-57190142D02*
X137747860Y-57154428D01*
X138395479Y-56404428D02*
X138433575Y-56440142D01*
X138433575Y-56440142D02*
X138471670Y-56547285D01*
X138471670Y-56547285D02*
X138471670Y-56618713D01*
X138471670Y-56618713D02*
X138433575Y-56725856D01*
X138433575Y-56725856D02*
X138357384Y-56797285D01*
X138357384Y-56797285D02*
X138281194Y-56832999D01*
X138281194Y-56832999D02*
X138128813Y-56868713D01*
X138128813Y-56868713D02*
X138014527Y-56868713D01*
X138014527Y-56868713D02*
X137862146Y-56832999D01*
X137862146Y-56832999D02*
X137785955Y-56797285D01*
X137785955Y-56797285D02*
X137709765Y-56725856D01*
X137709765Y-56725856D02*
X137671670Y-56618713D01*
X137671670Y-56618713D02*
X137671670Y-56547285D01*
X137671670Y-56547285D02*
X137709765Y-56440142D01*
X137709765Y-56440142D02*
X137747860Y-56404428D01*
X138433575Y-53163713D02*
X138471670Y-53056571D01*
X138471670Y-53056571D02*
X138471670Y-52877999D01*
X138471670Y-52877999D02*
X138433575Y-52806571D01*
X138433575Y-52806571D02*
X138395479Y-52770856D01*
X138395479Y-52770856D02*
X138319289Y-52735142D01*
X138319289Y-52735142D02*
X138243098Y-52735142D01*
X138243098Y-52735142D02*
X138166908Y-52770856D01*
X138166908Y-52770856D02*
X138128813Y-52806571D01*
X138128813Y-52806571D02*
X138090717Y-52877999D01*
X138090717Y-52877999D02*
X138052622Y-53020856D01*
X138052622Y-53020856D02*
X138014527Y-53092285D01*
X138014527Y-53092285D02*
X137976432Y-53127999D01*
X137976432Y-53127999D02*
X137900241Y-53163713D01*
X137900241Y-53163713D02*
X137824051Y-53163713D01*
X137824051Y-53163713D02*
X137747860Y-53127999D01*
X137747860Y-53127999D02*
X137709765Y-53092285D01*
X137709765Y-53092285D02*
X137671670Y-53020856D01*
X137671670Y-53020856D02*
X137671670Y-52842285D01*
X137671670Y-52842285D02*
X137709765Y-52735142D01*
X138471670Y-52413713D02*
X137671670Y-52413713D01*
X137671670Y-52413713D02*
X137671670Y-52235142D01*
X137671670Y-52235142D02*
X137709765Y-52127999D01*
X137709765Y-52127999D02*
X137785955Y-52056570D01*
X137785955Y-52056570D02*
X137862146Y-52020856D01*
X137862146Y-52020856D02*
X138014527Y-51985142D01*
X138014527Y-51985142D02*
X138128813Y-51985142D01*
X138128813Y-51985142D02*
X138281194Y-52020856D01*
X138281194Y-52020856D02*
X138357384Y-52056570D01*
X138357384Y-52056570D02*
X138433575Y-52127999D01*
X138433575Y-52127999D02*
X138471670Y-52235142D01*
X138471670Y-52235142D02*
X138471670Y-52413713D01*
X138243098Y-51699427D02*
X138243098Y-51342285D01*
X138471670Y-51770856D02*
X137671670Y-51520856D01*
X137671670Y-51520856D02*
X138471670Y-51270856D01*
X137709765Y-60444428D02*
X137671670Y-60515857D01*
X137671670Y-60515857D02*
X137671670Y-60622999D01*
X137671670Y-60622999D02*
X137709765Y-60730142D01*
X137709765Y-60730142D02*
X137785955Y-60801571D01*
X137785955Y-60801571D02*
X137862146Y-60837285D01*
X137862146Y-60837285D02*
X138014527Y-60872999D01*
X138014527Y-60872999D02*
X138128813Y-60872999D01*
X138128813Y-60872999D02*
X138281194Y-60837285D01*
X138281194Y-60837285D02*
X138357384Y-60801571D01*
X138357384Y-60801571D02*
X138433575Y-60730142D01*
X138433575Y-60730142D02*
X138471670Y-60622999D01*
X138471670Y-60622999D02*
X138471670Y-60551571D01*
X138471670Y-60551571D02*
X138433575Y-60444428D01*
X138433575Y-60444428D02*
X138395479Y-60408714D01*
X138395479Y-60408714D02*
X138128813Y-60408714D01*
X138128813Y-60408714D02*
X138128813Y-60551571D01*
X138471670Y-60087285D02*
X137671670Y-60087285D01*
X137671670Y-60087285D02*
X138471670Y-59658714D01*
X138471670Y-59658714D02*
X137671670Y-59658714D01*
X138471670Y-59301571D02*
X137671670Y-59301571D01*
X137671670Y-59301571D02*
X137671670Y-59123000D01*
X137671670Y-59123000D02*
X137709765Y-59015857D01*
X137709765Y-59015857D02*
X137785955Y-58944428D01*
X137785955Y-58944428D02*
X137862146Y-58908714D01*
X137862146Y-58908714D02*
X138014527Y-58873000D01*
X138014527Y-58873000D02*
X138128813Y-58873000D01*
X138128813Y-58873000D02*
X138281194Y-58908714D01*
X138281194Y-58908714D02*
X138357384Y-58944428D01*
X138357384Y-58944428D02*
X138433575Y-59015857D01*
X138433575Y-59015857D02*
X138471670Y-59123000D01*
X138471670Y-59123000D02*
X138471670Y-59301571D01*
X138433575Y-55685856D02*
X138471670Y-55578714D01*
X138471670Y-55578714D02*
X138471670Y-55400142D01*
X138471670Y-55400142D02*
X138433575Y-55328714D01*
X138433575Y-55328714D02*
X138395479Y-55292999D01*
X138395479Y-55292999D02*
X138319289Y-55257285D01*
X138319289Y-55257285D02*
X138243098Y-55257285D01*
X138243098Y-55257285D02*
X138166908Y-55292999D01*
X138166908Y-55292999D02*
X138128813Y-55328714D01*
X138128813Y-55328714D02*
X138090717Y-55400142D01*
X138090717Y-55400142D02*
X138052622Y-55542999D01*
X138052622Y-55542999D02*
X138014527Y-55614428D01*
X138014527Y-55614428D02*
X137976432Y-55650142D01*
X137976432Y-55650142D02*
X137900241Y-55685856D01*
X137900241Y-55685856D02*
X137824051Y-55685856D01*
X137824051Y-55685856D02*
X137747860Y-55650142D01*
X137747860Y-55650142D02*
X137709765Y-55614428D01*
X137709765Y-55614428D02*
X137671670Y-55542999D01*
X137671670Y-55542999D02*
X137671670Y-55364428D01*
X137671670Y-55364428D02*
X137709765Y-55257285D01*
X138395479Y-54507285D02*
X138433575Y-54542999D01*
X138433575Y-54542999D02*
X138471670Y-54650142D01*
X138471670Y-54650142D02*
X138471670Y-54721570D01*
X138471670Y-54721570D02*
X138433575Y-54828713D01*
X138433575Y-54828713D02*
X138357384Y-54900142D01*
X138357384Y-54900142D02*
X138281194Y-54935856D01*
X138281194Y-54935856D02*
X138128813Y-54971570D01*
X138128813Y-54971570D02*
X138014527Y-54971570D01*
X138014527Y-54971570D02*
X137862146Y-54935856D01*
X137862146Y-54935856D02*
X137785955Y-54900142D01*
X137785955Y-54900142D02*
X137709765Y-54828713D01*
X137709765Y-54828713D02*
X137671670Y-54721570D01*
X137671670Y-54721570D02*
X137671670Y-54650142D01*
X137671670Y-54650142D02*
X137709765Y-54542999D01*
X137709765Y-54542999D02*
X137747860Y-54507285D01*
X138471670Y-53828713D02*
X138471670Y-54185856D01*
X138471670Y-54185856D02*
X137671670Y-54185856D01*
X149680803Y-55517819D02*
X149871279Y-55517819D01*
X149871279Y-55517819D02*
X149966517Y-55565438D01*
X149966517Y-55565438D02*
X150061755Y-55660676D01*
X150061755Y-55660676D02*
X150109374Y-55851152D01*
X150109374Y-55851152D02*
X150109374Y-56184485D01*
X150109374Y-56184485D02*
X150061755Y-56374961D01*
X150061755Y-56374961D02*
X149966517Y-56470200D01*
X149966517Y-56470200D02*
X149871279Y-56517819D01*
X149871279Y-56517819D02*
X149680803Y-56517819D01*
X149680803Y-56517819D02*
X149585565Y-56470200D01*
X149585565Y-56470200D02*
X149490327Y-56374961D01*
X149490327Y-56374961D02*
X149442708Y-56184485D01*
X149442708Y-56184485D02*
X149442708Y-55851152D01*
X149442708Y-55851152D02*
X149490327Y-55660676D01*
X149490327Y-55660676D02*
X149585565Y-55565438D01*
X149585565Y-55565438D02*
X149680803Y-55517819D01*
X151014136Y-56517819D02*
X150537946Y-56517819D01*
X150537946Y-56517819D02*
X150537946Y-55517819D01*
X151347470Y-55994009D02*
X151680803Y-55994009D01*
X151823660Y-56517819D02*
X151347470Y-56517819D01*
X151347470Y-56517819D02*
X151347470Y-55517819D01*
X151347470Y-55517819D02*
X151823660Y-55517819D01*
X152252232Y-56517819D02*
X152252232Y-55517819D01*
X152252232Y-55517819D02*
X152490327Y-55517819D01*
X152490327Y-55517819D02*
X152633184Y-55565438D01*
X152633184Y-55565438D02*
X152728422Y-55660676D01*
X152728422Y-55660676D02*
X152776041Y-55755914D01*
X152776041Y-55755914D02*
X152823660Y-55946390D01*
X152823660Y-55946390D02*
X152823660Y-56089247D01*
X152823660Y-56089247D02*
X152776041Y-56279723D01*
X152776041Y-56279723D02*
X152728422Y-56374961D01*
X152728422Y-56374961D02*
X152633184Y-56470200D01*
X152633184Y-56470200D02*
X152490327Y-56517819D01*
X152490327Y-56517819D02*
X152252232Y-56517819D01*
X154014137Y-56517819D02*
X154014137Y-55517819D01*
X154014137Y-55517819D02*
X154395089Y-55517819D01*
X154395089Y-55517819D02*
X154490327Y-55565438D01*
X154490327Y-55565438D02*
X154537946Y-55613057D01*
X154537946Y-55613057D02*
X154585565Y-55708295D01*
X154585565Y-55708295D02*
X154585565Y-55851152D01*
X154585565Y-55851152D02*
X154537946Y-55946390D01*
X154537946Y-55946390D02*
X154490327Y-55994009D01*
X154490327Y-55994009D02*
X154395089Y-56041628D01*
X154395089Y-56041628D02*
X154014137Y-56041628D01*
X155442708Y-56517819D02*
X155442708Y-55994009D01*
X155442708Y-55994009D02*
X155395089Y-55898771D01*
X155395089Y-55898771D02*
X155299851Y-55851152D01*
X155299851Y-55851152D02*
X155109375Y-55851152D01*
X155109375Y-55851152D02*
X155014137Y-55898771D01*
X155442708Y-56470200D02*
X155347470Y-56517819D01*
X155347470Y-56517819D02*
X155109375Y-56517819D01*
X155109375Y-56517819D02*
X155014137Y-56470200D01*
X155014137Y-56470200D02*
X154966518Y-56374961D01*
X154966518Y-56374961D02*
X154966518Y-56279723D01*
X154966518Y-56279723D02*
X155014137Y-56184485D01*
X155014137Y-56184485D02*
X155109375Y-56136866D01*
X155109375Y-56136866D02*
X155347470Y-56136866D01*
X155347470Y-56136866D02*
X155442708Y-56089247D01*
X155918899Y-55851152D02*
X155918899Y-56517819D01*
X155918899Y-55946390D02*
X155966518Y-55898771D01*
X155966518Y-55898771D02*
X156061756Y-55851152D01*
X156061756Y-55851152D02*
X156204613Y-55851152D01*
X156204613Y-55851152D02*
X156299851Y-55898771D01*
X156299851Y-55898771D02*
X156347470Y-55994009D01*
X156347470Y-55994009D02*
X156347470Y-56517819D01*
X157204613Y-56470200D02*
X157109375Y-56517819D01*
X157109375Y-56517819D02*
X156918899Y-56517819D01*
X156918899Y-56517819D02*
X156823661Y-56470200D01*
X156823661Y-56470200D02*
X156776042Y-56374961D01*
X156776042Y-56374961D02*
X156776042Y-55994009D01*
X156776042Y-55994009D02*
X156823661Y-55898771D01*
X156823661Y-55898771D02*
X156918899Y-55851152D01*
X156918899Y-55851152D02*
X157109375Y-55851152D01*
X157109375Y-55851152D02*
X157204613Y-55898771D01*
X157204613Y-55898771D02*
X157252232Y-55994009D01*
X157252232Y-55994009D02*
X157252232Y-56089247D01*
X157252232Y-56089247D02*
X156776042Y-56184485D01*
X157823661Y-56517819D02*
X157728423Y-56470200D01*
X157728423Y-56470200D02*
X157680804Y-56374961D01*
X157680804Y-56374961D02*
X157680804Y-55517819D01*
X113763479Y-95497285D02*
X113763479Y-95021095D01*
X114049194Y-95592523D02*
X113049194Y-95259190D01*
X113049194Y-95259190D02*
X114049194Y-94925857D01*
X114049194Y-94068714D02*
X114049194Y-94640142D01*
X114049194Y-94354428D02*
X113049194Y-94354428D01*
X113049194Y-94354428D02*
X113192051Y-94449666D01*
X113192051Y-94449666D02*
X113287289Y-94544904D01*
X113287289Y-94544904D02*
X113334908Y-94640142D01*
X153689194Y-96044904D02*
X154498717Y-96044904D01*
X154498717Y-96044904D02*
X154593955Y-95997285D01*
X154593955Y-95997285D02*
X154641575Y-95949666D01*
X154641575Y-95949666D02*
X154689194Y-95854428D01*
X154689194Y-95854428D02*
X154689194Y-95663952D01*
X154689194Y-95663952D02*
X154641575Y-95568714D01*
X154641575Y-95568714D02*
X154593955Y-95521095D01*
X154593955Y-95521095D02*
X154498717Y-95473476D01*
X154498717Y-95473476D02*
X153689194Y-95473476D01*
X154641575Y-95044904D02*
X154689194Y-94902047D01*
X154689194Y-94902047D02*
X154689194Y-94663952D01*
X154689194Y-94663952D02*
X154641575Y-94568714D01*
X154641575Y-94568714D02*
X154593955Y-94521095D01*
X154593955Y-94521095D02*
X154498717Y-94473476D01*
X154498717Y-94473476D02*
X154403479Y-94473476D01*
X154403479Y-94473476D02*
X154308241Y-94521095D01*
X154308241Y-94521095D02*
X154260622Y-94568714D01*
X154260622Y-94568714D02*
X154213003Y-94663952D01*
X154213003Y-94663952D02*
X154165384Y-94854428D01*
X154165384Y-94854428D02*
X154117765Y-94949666D01*
X154117765Y-94949666D02*
X154070146Y-94997285D01*
X154070146Y-94997285D02*
X153974908Y-95044904D01*
X153974908Y-95044904D02*
X153879670Y-95044904D01*
X153879670Y-95044904D02*
X153784432Y-94997285D01*
X153784432Y-94997285D02*
X153736813Y-94949666D01*
X153736813Y-94949666D02*
X153689194Y-94854428D01*
X153689194Y-94854428D02*
X153689194Y-94616333D01*
X153689194Y-94616333D02*
X153736813Y-94473476D01*
X154165384Y-93711571D02*
X154213003Y-93568714D01*
X154213003Y-93568714D02*
X154260622Y-93521095D01*
X154260622Y-93521095D02*
X154355860Y-93473476D01*
X154355860Y-93473476D02*
X154498717Y-93473476D01*
X154498717Y-93473476D02*
X154593955Y-93521095D01*
X154593955Y-93521095D02*
X154641575Y-93568714D01*
X154641575Y-93568714D02*
X154689194Y-93663952D01*
X154689194Y-93663952D02*
X154689194Y-94044904D01*
X154689194Y-94044904D02*
X153689194Y-94044904D01*
X153689194Y-94044904D02*
X153689194Y-93711571D01*
X153689194Y-93711571D02*
X153736813Y-93616333D01*
X153736813Y-93616333D02*
X153784432Y-93568714D01*
X153784432Y-93568714D02*
X153879670Y-93521095D01*
X153879670Y-93521095D02*
X153974908Y-93521095D01*
X153974908Y-93521095D02*
X154070146Y-93568714D01*
X154070146Y-93568714D02*
X154117765Y-93616333D01*
X154117765Y-93616333D02*
X154165384Y-93711571D01*
X154165384Y-93711571D02*
X154165384Y-94044904D01*
X169739075Y-83601332D02*
X169786694Y-83458475D01*
X169786694Y-83458475D02*
X169786694Y-83220380D01*
X169786694Y-83220380D02*
X169739075Y-83125142D01*
X169739075Y-83125142D02*
X169691455Y-83077523D01*
X169691455Y-83077523D02*
X169596217Y-83029904D01*
X169596217Y-83029904D02*
X169500979Y-83029904D01*
X169500979Y-83029904D02*
X169405741Y-83077523D01*
X169405741Y-83077523D02*
X169358122Y-83125142D01*
X169358122Y-83125142D02*
X169310503Y-83220380D01*
X169310503Y-83220380D02*
X169262884Y-83410856D01*
X169262884Y-83410856D02*
X169215265Y-83506094D01*
X169215265Y-83506094D02*
X169167646Y-83553713D01*
X169167646Y-83553713D02*
X169072408Y-83601332D01*
X169072408Y-83601332D02*
X168977170Y-83601332D01*
X168977170Y-83601332D02*
X168881932Y-83553713D01*
X168881932Y-83553713D02*
X168834313Y-83506094D01*
X168834313Y-83506094D02*
X168786694Y-83410856D01*
X168786694Y-83410856D02*
X168786694Y-83172761D01*
X168786694Y-83172761D02*
X168834313Y-83029904D01*
X168786694Y-82696570D02*
X169786694Y-82458475D01*
X169786694Y-82458475D02*
X169072408Y-82267999D01*
X169072408Y-82267999D02*
X169786694Y-82077523D01*
X169786694Y-82077523D02*
X168786694Y-81839428D01*
X168786694Y-81553713D02*
X168786694Y-80887047D01*
X168786694Y-80887047D02*
X169786694Y-81315618D01*
X126641042Y-134700200D02*
X126783899Y-134747819D01*
X126783899Y-134747819D02*
X127021994Y-134747819D01*
X127021994Y-134747819D02*
X127117232Y-134700200D01*
X127117232Y-134700200D02*
X127164851Y-134652580D01*
X127164851Y-134652580D02*
X127212470Y-134557342D01*
X127212470Y-134557342D02*
X127212470Y-134462104D01*
X127212470Y-134462104D02*
X127164851Y-134366866D01*
X127164851Y-134366866D02*
X127117232Y-134319247D01*
X127117232Y-134319247D02*
X127021994Y-134271628D01*
X127021994Y-134271628D02*
X126831518Y-134224009D01*
X126831518Y-134224009D02*
X126736280Y-134176390D01*
X126736280Y-134176390D02*
X126688661Y-134128771D01*
X126688661Y-134128771D02*
X126641042Y-134033533D01*
X126641042Y-134033533D02*
X126641042Y-133938295D01*
X126641042Y-133938295D02*
X126688661Y-133843057D01*
X126688661Y-133843057D02*
X126736280Y-133795438D01*
X126736280Y-133795438D02*
X126831518Y-133747819D01*
X126831518Y-133747819D02*
X127069613Y-133747819D01*
X127069613Y-133747819D02*
X127212470Y-133795438D01*
X127545804Y-133747819D02*
X127783899Y-134747819D01*
X127783899Y-134747819D02*
X127974375Y-134033533D01*
X127974375Y-134033533D02*
X128164851Y-134747819D01*
X128164851Y-134747819D02*
X128402947Y-133747819D01*
X128688661Y-133747819D02*
X129307708Y-133747819D01*
X129307708Y-133747819D02*
X128974375Y-134128771D01*
X128974375Y-134128771D02*
X129117232Y-134128771D01*
X129117232Y-134128771D02*
X129212470Y-134176390D01*
X129212470Y-134176390D02*
X129260089Y-134224009D01*
X129260089Y-134224009D02*
X129307708Y-134319247D01*
X129307708Y-134319247D02*
X129307708Y-134557342D01*
X129307708Y-134557342D02*
X129260089Y-134652580D01*
X129260089Y-134652580D02*
X129212470Y-134700200D01*
X129212470Y-134700200D02*
X129117232Y-134747819D01*
X129117232Y-134747819D02*
X128831518Y-134747819D01*
X128831518Y-134747819D02*
X128736280Y-134700200D01*
X128736280Y-134700200D02*
X128688661Y-134652580D01*
X108579194Y-70918713D02*
X107579194Y-70918713D01*
X107579194Y-70918713D02*
X108579194Y-70347285D01*
X108579194Y-70347285D02*
X107579194Y-70347285D01*
X108483955Y-69299666D02*
X108531575Y-69347285D01*
X108531575Y-69347285D02*
X108579194Y-69490142D01*
X108579194Y-69490142D02*
X108579194Y-69585380D01*
X108579194Y-69585380D02*
X108531575Y-69728237D01*
X108531575Y-69728237D02*
X108436336Y-69823475D01*
X108436336Y-69823475D02*
X108341098Y-69871094D01*
X108341098Y-69871094D02*
X108150622Y-69918713D01*
X108150622Y-69918713D02*
X108007765Y-69918713D01*
X108007765Y-69918713D02*
X107817289Y-69871094D01*
X107817289Y-69871094D02*
X107722051Y-69823475D01*
X107722051Y-69823475D02*
X107626813Y-69728237D01*
X107626813Y-69728237D02*
X107579194Y-69585380D01*
X107579194Y-69585380D02*
X107579194Y-69490142D01*
X107579194Y-69490142D02*
X107626813Y-69347285D01*
X107626813Y-69347285D02*
X107674432Y-69299666D01*
X108579194Y-76022523D02*
X107579194Y-76022523D01*
X107579194Y-76022523D02*
X108579194Y-75451095D01*
X108579194Y-75451095D02*
X107579194Y-75451095D01*
X107579194Y-74784428D02*
X107579194Y-74593952D01*
X107579194Y-74593952D02*
X107626813Y-74498714D01*
X107626813Y-74498714D02*
X107722051Y-74403476D01*
X107722051Y-74403476D02*
X107912527Y-74355857D01*
X107912527Y-74355857D02*
X108245860Y-74355857D01*
X108245860Y-74355857D02*
X108436336Y-74403476D01*
X108436336Y-74403476D02*
X108531575Y-74498714D01*
X108531575Y-74498714D02*
X108579194Y-74593952D01*
X108579194Y-74593952D02*
X108579194Y-74784428D01*
X108579194Y-74784428D02*
X108531575Y-74879666D01*
X108531575Y-74879666D02*
X108436336Y-74974904D01*
X108436336Y-74974904D02*
X108245860Y-75022523D01*
X108245860Y-75022523D02*
X107912527Y-75022523D01*
X107912527Y-75022523D02*
X107722051Y-74974904D01*
X107722051Y-74974904D02*
X107626813Y-74879666D01*
X107626813Y-74879666D02*
X107579194Y-74784428D01*
X108483955Y-79983476D02*
X108531575Y-80031095D01*
X108531575Y-80031095D02*
X108579194Y-80173952D01*
X108579194Y-80173952D02*
X108579194Y-80269190D01*
X108579194Y-80269190D02*
X108531575Y-80412047D01*
X108531575Y-80412047D02*
X108436336Y-80507285D01*
X108436336Y-80507285D02*
X108341098Y-80554904D01*
X108341098Y-80554904D02*
X108150622Y-80602523D01*
X108150622Y-80602523D02*
X108007765Y-80602523D01*
X108007765Y-80602523D02*
X107817289Y-80554904D01*
X107817289Y-80554904D02*
X107722051Y-80507285D01*
X107722051Y-80507285D02*
X107626813Y-80412047D01*
X107626813Y-80412047D02*
X107579194Y-80269190D01*
X107579194Y-80269190D02*
X107579194Y-80173952D01*
X107579194Y-80173952D02*
X107626813Y-80031095D01*
X107626813Y-80031095D02*
X107674432Y-79983476D01*
X116581042Y-56310200D02*
X116723899Y-56357819D01*
X116723899Y-56357819D02*
X116961994Y-56357819D01*
X116961994Y-56357819D02*
X117057232Y-56310200D01*
X117057232Y-56310200D02*
X117104851Y-56262580D01*
X117104851Y-56262580D02*
X117152470Y-56167342D01*
X117152470Y-56167342D02*
X117152470Y-56072104D01*
X117152470Y-56072104D02*
X117104851Y-55976866D01*
X117104851Y-55976866D02*
X117057232Y-55929247D01*
X117057232Y-55929247D02*
X116961994Y-55881628D01*
X116961994Y-55881628D02*
X116771518Y-55834009D01*
X116771518Y-55834009D02*
X116676280Y-55786390D01*
X116676280Y-55786390D02*
X116628661Y-55738771D01*
X116628661Y-55738771D02*
X116581042Y-55643533D01*
X116581042Y-55643533D02*
X116581042Y-55548295D01*
X116581042Y-55548295D02*
X116628661Y-55453057D01*
X116628661Y-55453057D02*
X116676280Y-55405438D01*
X116676280Y-55405438D02*
X116771518Y-55357819D01*
X116771518Y-55357819D02*
X117009613Y-55357819D01*
X117009613Y-55357819D02*
X117152470Y-55405438D01*
X117485804Y-55357819D02*
X117723899Y-56357819D01*
X117723899Y-56357819D02*
X117914375Y-55643533D01*
X117914375Y-55643533D02*
X118104851Y-56357819D01*
X118104851Y-56357819D02*
X118342947Y-55357819D01*
X119247708Y-56357819D02*
X118676280Y-56357819D01*
X118961994Y-56357819D02*
X118961994Y-55357819D01*
X118961994Y-55357819D02*
X118866756Y-55500676D01*
X118866756Y-55500676D02*
X118771518Y-55595914D01*
X118771518Y-55595914D02*
X118676280Y-55643533D01*
D11*
%TO.C,SW2*%
X136474375Y-137793000D02*
X136474375Y-139293000D01*
X137724375Y-141793000D02*
X142224375Y-141793000D01*
X142224375Y-135293000D02*
X137724375Y-135293000D01*
X143474375Y-139293000D02*
X143474375Y-137793000D01*
%TO.C,J1*%
X160224375Y-134593000D02*
X172224375Y-134593000D01*
X160224375Y-145593000D02*
X160224375Y-134593000D01*
X161724375Y-145593000D02*
X160224375Y-145593000D01*
X161724375Y-146793000D02*
X161724375Y-145593000D01*
X163224375Y-146793000D02*
X161724375Y-146793000D01*
X163224375Y-148593000D02*
X163224375Y-146793000D01*
X164224375Y-145593000D02*
X164224375Y-148593000D01*
X168224375Y-145593000D02*
X164224375Y-145593000D01*
X168224375Y-148593000D02*
X168224375Y-145593000D01*
X169224375Y-146793000D02*
X169224375Y-148593000D01*
X169224375Y-148593000D02*
X163224375Y-148593000D01*
X170724375Y-145593000D02*
X170724375Y-146793000D01*
X170724375Y-146793000D02*
X169224375Y-146793000D01*
X172224375Y-134593000D02*
X172224375Y-145593000D01*
X172224375Y-145593000D02*
X170724375Y-145593000D01*
%TO.C,SW4*%
X148474375Y-137793000D02*
X148474375Y-139293000D01*
X149724375Y-141793000D02*
X154224375Y-141793000D01*
X154224375Y-135293000D02*
X149724375Y-135293000D01*
X155474375Y-139293000D02*
X155474375Y-137793000D01*
%TO.C,SW6*%
X166701875Y-67908000D02*
X166701875Y-68428000D01*
X166701875Y-75108000D02*
X166701875Y-75628000D01*
X167211875Y-67908000D02*
X166701875Y-67908000D01*
X167211875Y-68428000D02*
X166701875Y-68428000D01*
X167211875Y-75108000D02*
X166701875Y-75108000D01*
X167211875Y-75628000D02*
X166701875Y-75628000D01*
X170041875Y-68428000D02*
X169811875Y-68428000D01*
X170041875Y-68428000D02*
X170041875Y-68968000D01*
X170041875Y-70068000D02*
X170041875Y-73468000D01*
X170041875Y-74568000D02*
X170041875Y-75108000D01*
X170041875Y-75108000D02*
X169811875Y-75108000D01*
X171911875Y-67908000D02*
X169811875Y-67908000D01*
X171911875Y-75628000D02*
X169811875Y-75628000D01*
D12*
%TO.C,U3*%
X134609375Y-50063000D02*
X134609375Y-62063000D01*
X134609375Y-62063000D02*
X172609375Y-62063000D01*
X139609375Y-62063000D02*
X139609375Y-50063000D01*
X169109375Y-62063000D02*
X169109375Y-50063000D01*
X172609375Y-50063000D02*
X134609375Y-50063000D01*
X172609375Y-62063000D02*
X172609375Y-50063000D01*
D11*
%TO.C,A1*%
X114734375Y-85763000D02*
X114734375Y-103803000D01*
X114734375Y-103803000D02*
X117404375Y-103803000D01*
X117404375Y-88433000D02*
X117404375Y-85763000D01*
X117404375Y-88433000D02*
X155504375Y-88433000D01*
X117404375Y-101133000D02*
X117404375Y-103803000D01*
X119944375Y-101133000D02*
X117404375Y-101133000D01*
X119944375Y-101133000D02*
X119944375Y-103803000D01*
X119944375Y-101133000D02*
X155504375Y-101133000D01*
X119944375Y-103803000D02*
X158174375Y-103803000D01*
X150294375Y-90843000D02*
X160714375Y-90843000D01*
X150294375Y-98723000D02*
X150294375Y-90843000D01*
X155504375Y-88433000D02*
X155504375Y-85763000D01*
X155504375Y-101133000D02*
X155504375Y-103803000D01*
X158174375Y-85763000D02*
X114734375Y-85763000D01*
X158174375Y-85763000D02*
X158174375Y-90843000D01*
X158174375Y-103803000D02*
X158174375Y-98723000D01*
X160714375Y-90843000D02*
X160714375Y-98723000D01*
X160714375Y-98723000D02*
X150294375Y-98723000D01*
%TO.C,SW7*%
X166701875Y-78408000D02*
X166701875Y-78928000D01*
X166701875Y-85608000D02*
X166701875Y-86128000D01*
X167211875Y-78408000D02*
X166701875Y-78408000D01*
X167211875Y-78928000D02*
X166701875Y-78928000D01*
X167211875Y-85608000D02*
X166701875Y-85608000D01*
X167211875Y-86128000D02*
X166701875Y-86128000D01*
X170041875Y-78928000D02*
X169811875Y-78928000D01*
X170041875Y-78928000D02*
X170041875Y-79468000D01*
X170041875Y-80568000D02*
X170041875Y-83968000D01*
X170041875Y-85068000D02*
X170041875Y-85608000D01*
X170041875Y-85608000D02*
X169811875Y-85608000D01*
X171911875Y-78408000D02*
X169811875Y-78408000D01*
X171911875Y-86128000D02*
X169811875Y-86128000D01*
%TO.C,SW3*%
X124474375Y-137793000D02*
X124474375Y-139293000D01*
X125724375Y-141793000D02*
X130224375Y-141793000D01*
X130224375Y-135293000D02*
X125724375Y-135293000D01*
X131474375Y-139293000D02*
X131474375Y-137793000D01*
%TO.C,SW5*%
X100624375Y-68355000D02*
X100624375Y-82071000D01*
X100624375Y-82071000D02*
X109229375Y-82071000D01*
X109229375Y-68355000D02*
X100624375Y-68355000D01*
X109229375Y-71403000D02*
X109229375Y-73943000D01*
X109229375Y-79023000D02*
X109229375Y-76483000D01*
X100224375Y-76693000D02*
X101024375Y-76693000D01*
X101024375Y-77893000D01*
X100224375Y-77893000D01*
X100224375Y-76693000D01*
%TO.C,SW1*%
X114504375Y-51833000D02*
X114504375Y-50683000D01*
X114504375Y-54903000D02*
X114504375Y-53753000D01*
X118517708Y-53428000D02*
X118517708Y-52158000D01*
X121324375Y-50683000D02*
X114504375Y-50683000D01*
X121324375Y-51753000D02*
X121324375Y-50683000D01*
X121324375Y-54903000D02*
X114504375Y-54903000D01*
X121324375Y-54903000D02*
X121324375Y-53833000D01*
X121564375Y-55143000D02*
X120181375Y-55143000D01*
X121564375Y-55143000D02*
X121564375Y-53833000D01*
X119724375Y-53428000D02*
X116104375Y-53428000D01*
X116104375Y-52158000D01*
X119724375Y-52158000D01*
X119724375Y-53428000D01*
X119724375Y-53428000D02*
X118517708Y-53428000D01*
X118517708Y-52158000D01*
X119724375Y-52158000D01*
X119724375Y-53428000D01*
G36*
X119724375Y-53428000D02*
G01*
X118517708Y-53428000D01*
X118517708Y-52158000D01*
X119724375Y-52158000D01*
X119724375Y-53428000D01*
G37*
%TD*%
M02*
