%TF.GenerationSoftware,KiCad,Pcbnew,9.0.0*%
%TF.CreationDate,2025-04-29T20:47:37-04:00*%
%TF.ProjectId,mp3_player,6d70335f-706c-4617-9965-722e6b696361,rev?*%
%TF.SameCoordinates,Original*%
%TF.FileFunction,Drillmap*%
%TF.FilePolarity,Positive*%
%FSLAX45Y45*%
G04 Gerber Fmt 4.5, Leading zero omitted, Abs format (unit mm)*
G04 Created by KiCad (PCBNEW 9.0.0) date 2025-04-29 20:47:37*
%MOMM*%
%LPD*%
G01*
G04 APERTURE LIST*
%ADD10C,0.050000*%
%ADD11C,0.200000*%
%ADD12C,0.120000*%
%ADD13C,0.210000*%
G04 APERTURE END LIST*
D10*
X10672438Y-5179300D02*
G75*
G02*
X10872438Y-4979298I200003J0D01*
G01*
X10872438Y-14729300D02*
G75*
G02*
X10672440Y-14529300I3J200000D01*
G01*
X17172438Y-4979300D02*
G75*
G02*
X17372440Y-5179300I3J-200000D01*
G01*
X17372438Y-14529300D02*
G75*
G02*
X17172438Y-14729297I-199998J0D01*
G01*
X10672438Y-14529300D02*
X10672438Y-5179300D01*
X10872438Y-4979300D02*
X17172438Y-4979300D01*
X17172438Y-14729300D02*
X10872438Y-14729300D01*
X17372438Y-5179300D02*
X17372438Y-14529300D01*
D11*
D12*
X16062437Y-14169300D02*
X16182437Y-14289300D01*
X16182437Y-14169300D02*
X16062437Y-14289300D01*
X16062437Y-14419300D02*
X16182437Y-14539300D01*
X16182437Y-14419300D02*
X16062437Y-14539300D01*
X16562437Y-13669300D02*
X16682437Y-13789300D01*
X16682437Y-13669300D02*
X16562437Y-13789300D01*
X17062438Y-14169300D02*
X17182438Y-14289300D01*
X17182438Y-14169300D02*
X17062438Y-14289300D01*
X17062438Y-14419300D02*
X17182438Y-14539300D01*
X17182438Y-14419300D02*
X17062438Y-14539300D01*
D13*
X11105000Y-5300000D02*
G75*
G02*
X10895000Y-5300000I-105000J0D01*
G01*
X10895000Y-5300000D02*
G75*
G02*
X11105000Y-5300000I105000J0D01*
G01*
X11155000Y-14350000D02*
G75*
G02*
X10945000Y-14350000I-105000J0D01*
G01*
X10945000Y-14350000D02*
G75*
G02*
X11155000Y-14350000I105000J0D01*
G01*
X17005000Y-13000000D02*
G75*
G02*
X16795000Y-13000000I-105000J0D01*
G01*
X16795000Y-13000000D02*
G75*
G02*
X17005000Y-13000000I105000J0D01*
G01*
X17155000Y-5300000D02*
G75*
G02*
X16945000Y-5300000I-105000J0D01*
G01*
X16945000Y-5300000D02*
G75*
G02*
X17155000Y-5300000I105000J0D01*
G01*
D11*
X10930714Y-15043284D02*
X10930714Y-14843284D01*
X10930714Y-14843284D02*
X10978333Y-14843284D01*
X10978333Y-14843284D02*
X11006905Y-14852808D01*
X11006905Y-14852808D02*
X11025952Y-14871855D01*
X11025952Y-14871855D02*
X11035476Y-14890903D01*
X11035476Y-14890903D02*
X11045000Y-14928998D01*
X11045000Y-14928998D02*
X11045000Y-14957569D01*
X11045000Y-14957569D02*
X11035476Y-14995665D01*
X11035476Y-14995665D02*
X11025952Y-15014712D01*
X11025952Y-15014712D02*
X11006905Y-15033760D01*
X11006905Y-15033760D02*
X10978333Y-15043284D01*
X10978333Y-15043284D02*
X10930714Y-15043284D01*
X11130714Y-15043284D02*
X11130714Y-14909950D01*
X11130714Y-14948046D02*
X11140238Y-14928998D01*
X11140238Y-14928998D02*
X11149762Y-14919474D01*
X11149762Y-14919474D02*
X11168810Y-14909950D01*
X11168810Y-14909950D02*
X11187857Y-14909950D01*
X11254524Y-15043284D02*
X11254524Y-14909950D01*
X11254524Y-14843284D02*
X11245000Y-14852808D01*
X11245000Y-14852808D02*
X11254524Y-14862331D01*
X11254524Y-14862331D02*
X11264048Y-14852808D01*
X11264048Y-14852808D02*
X11254524Y-14843284D01*
X11254524Y-14843284D02*
X11254524Y-14862331D01*
X11378333Y-15043284D02*
X11359286Y-15033760D01*
X11359286Y-15033760D02*
X11349762Y-15014712D01*
X11349762Y-15014712D02*
X11349762Y-14843284D01*
X11483095Y-15043284D02*
X11464048Y-15033760D01*
X11464048Y-15033760D02*
X11454524Y-15014712D01*
X11454524Y-15014712D02*
X11454524Y-14843284D01*
X11711667Y-15043284D02*
X11711667Y-14843284D01*
X11711667Y-14843284D02*
X11778333Y-14986141D01*
X11778333Y-14986141D02*
X11845000Y-14843284D01*
X11845000Y-14843284D02*
X11845000Y-15043284D01*
X12025952Y-15043284D02*
X12025952Y-14938522D01*
X12025952Y-14938522D02*
X12016429Y-14919474D01*
X12016429Y-14919474D02*
X11997381Y-14909950D01*
X11997381Y-14909950D02*
X11959286Y-14909950D01*
X11959286Y-14909950D02*
X11940238Y-14919474D01*
X12025952Y-15033760D02*
X12006905Y-15043284D01*
X12006905Y-15043284D02*
X11959286Y-15043284D01*
X11959286Y-15043284D02*
X11940238Y-15033760D01*
X11940238Y-15033760D02*
X11930714Y-15014712D01*
X11930714Y-15014712D02*
X11930714Y-14995665D01*
X11930714Y-14995665D02*
X11940238Y-14976617D01*
X11940238Y-14976617D02*
X11959286Y-14967093D01*
X11959286Y-14967093D02*
X12006905Y-14967093D01*
X12006905Y-14967093D02*
X12025952Y-14957569D01*
X12121190Y-14909950D02*
X12121190Y-15109950D01*
X12121190Y-14919474D02*
X12140238Y-14909950D01*
X12140238Y-14909950D02*
X12178333Y-14909950D01*
X12178333Y-14909950D02*
X12197381Y-14919474D01*
X12197381Y-14919474D02*
X12206905Y-14928998D01*
X12206905Y-14928998D02*
X12216429Y-14948046D01*
X12216429Y-14948046D02*
X12216429Y-15005188D01*
X12216429Y-15005188D02*
X12206905Y-15024236D01*
X12206905Y-15024236D02*
X12197381Y-15033760D01*
X12197381Y-15033760D02*
X12178333Y-15043284D01*
X12178333Y-15043284D02*
X12140238Y-15043284D01*
X12140238Y-15043284D02*
X12121190Y-15033760D01*
X12302143Y-15024236D02*
X12311667Y-15033760D01*
X12311667Y-15033760D02*
X12302143Y-15043284D01*
X12302143Y-15043284D02*
X12292619Y-15033760D01*
X12292619Y-15033760D02*
X12302143Y-15024236D01*
X12302143Y-15024236D02*
X12302143Y-15043284D01*
X12302143Y-14919474D02*
X12311667Y-14928998D01*
X12311667Y-14928998D02*
X12302143Y-14938522D01*
X12302143Y-14938522D02*
X12292619Y-14928998D01*
X12292619Y-14928998D02*
X12302143Y-14919474D01*
X12302143Y-14919474D02*
X12302143Y-14938522D01*
D12*
X10549938Y-15311800D02*
X10669938Y-15431800D01*
X10669938Y-15311800D02*
X10549938Y-15431800D01*
D11*
X11035476Y-15463284D02*
X10921191Y-15463284D01*
X10978333Y-15463284D02*
X10978333Y-15263284D01*
X10978333Y-15263284D02*
X10959286Y-15291855D01*
X10959286Y-15291855D02*
X10940238Y-15310903D01*
X10940238Y-15310903D02*
X10921191Y-15320427D01*
X11121191Y-15444236D02*
X11130714Y-15453760D01*
X11130714Y-15453760D02*
X11121191Y-15463284D01*
X11121191Y-15463284D02*
X11111667Y-15453760D01*
X11111667Y-15453760D02*
X11121191Y-15444236D01*
X11121191Y-15444236D02*
X11121191Y-15463284D01*
X11206905Y-15282331D02*
X11216429Y-15272808D01*
X11216429Y-15272808D02*
X11235476Y-15263284D01*
X11235476Y-15263284D02*
X11283095Y-15263284D01*
X11283095Y-15263284D02*
X11302143Y-15272808D01*
X11302143Y-15272808D02*
X11311667Y-15282331D01*
X11311667Y-15282331D02*
X11321190Y-15301379D01*
X11321190Y-15301379D02*
X11321190Y-15320427D01*
X11321190Y-15320427D02*
X11311667Y-15348998D01*
X11311667Y-15348998D02*
X11197381Y-15463284D01*
X11197381Y-15463284D02*
X11321190Y-15463284D01*
X11445000Y-15263284D02*
X11464048Y-15263284D01*
X11464048Y-15263284D02*
X11483095Y-15272808D01*
X11483095Y-15272808D02*
X11492619Y-15282331D01*
X11492619Y-15282331D02*
X11502143Y-15301379D01*
X11502143Y-15301379D02*
X11511667Y-15339474D01*
X11511667Y-15339474D02*
X11511667Y-15387093D01*
X11511667Y-15387093D02*
X11502143Y-15425188D01*
X11502143Y-15425188D02*
X11492619Y-15444236D01*
X11492619Y-15444236D02*
X11483095Y-15453760D01*
X11483095Y-15453760D02*
X11464048Y-15463284D01*
X11464048Y-15463284D02*
X11445000Y-15463284D01*
X11445000Y-15463284D02*
X11425952Y-15453760D01*
X11425952Y-15453760D02*
X11416429Y-15444236D01*
X11416429Y-15444236D02*
X11406905Y-15425188D01*
X11406905Y-15425188D02*
X11397381Y-15387093D01*
X11397381Y-15387093D02*
X11397381Y-15339474D01*
X11397381Y-15339474D02*
X11406905Y-15301379D01*
X11406905Y-15301379D02*
X11416429Y-15282331D01*
X11416429Y-15282331D02*
X11425952Y-15272808D01*
X11425952Y-15272808D02*
X11445000Y-15263284D01*
X11635476Y-15263284D02*
X11654524Y-15263284D01*
X11654524Y-15263284D02*
X11673571Y-15272808D01*
X11673571Y-15272808D02*
X11683095Y-15282331D01*
X11683095Y-15282331D02*
X11692619Y-15301379D01*
X11692619Y-15301379D02*
X11702143Y-15339474D01*
X11702143Y-15339474D02*
X11702143Y-15387093D01*
X11702143Y-15387093D02*
X11692619Y-15425188D01*
X11692619Y-15425188D02*
X11683095Y-15444236D01*
X11683095Y-15444236D02*
X11673571Y-15453760D01*
X11673571Y-15453760D02*
X11654524Y-15463284D01*
X11654524Y-15463284D02*
X11635476Y-15463284D01*
X11635476Y-15463284D02*
X11616429Y-15453760D01*
X11616429Y-15453760D02*
X11606905Y-15444236D01*
X11606905Y-15444236D02*
X11597381Y-15425188D01*
X11597381Y-15425188D02*
X11587857Y-15387093D01*
X11587857Y-15387093D02*
X11587857Y-15339474D01*
X11587857Y-15339474D02*
X11597381Y-15301379D01*
X11597381Y-15301379D02*
X11606905Y-15282331D01*
X11606905Y-15282331D02*
X11616429Y-15272808D01*
X11616429Y-15272808D02*
X11635476Y-15263284D01*
X11787857Y-15463284D02*
X11787857Y-15329950D01*
X11787857Y-15348998D02*
X11797381Y-15339474D01*
X11797381Y-15339474D02*
X11816429Y-15329950D01*
X11816429Y-15329950D02*
X11845000Y-15329950D01*
X11845000Y-15329950D02*
X11864048Y-15339474D01*
X11864048Y-15339474D02*
X11873571Y-15358522D01*
X11873571Y-15358522D02*
X11873571Y-15463284D01*
X11873571Y-15358522D02*
X11883095Y-15339474D01*
X11883095Y-15339474D02*
X11902143Y-15329950D01*
X11902143Y-15329950D02*
X11930714Y-15329950D01*
X11930714Y-15329950D02*
X11949762Y-15339474D01*
X11949762Y-15339474D02*
X11959286Y-15358522D01*
X11959286Y-15358522D02*
X11959286Y-15463284D01*
X12054524Y-15463284D02*
X12054524Y-15329950D01*
X12054524Y-15348998D02*
X12064048Y-15339474D01*
X12064048Y-15339474D02*
X12083095Y-15329950D01*
X12083095Y-15329950D02*
X12111667Y-15329950D01*
X12111667Y-15329950D02*
X12130714Y-15339474D01*
X12130714Y-15339474D02*
X12140238Y-15358522D01*
X12140238Y-15358522D02*
X12140238Y-15463284D01*
X12140238Y-15358522D02*
X12149762Y-15339474D01*
X12149762Y-15339474D02*
X12168810Y-15329950D01*
X12168810Y-15329950D02*
X12197381Y-15329950D01*
X12197381Y-15329950D02*
X12216429Y-15339474D01*
X12216429Y-15339474D02*
X12225952Y-15358522D01*
X12225952Y-15358522D02*
X12225952Y-15463284D01*
X12616429Y-15253760D02*
X12445000Y-15510903D01*
X12873572Y-15263284D02*
X12892619Y-15263284D01*
X12892619Y-15263284D02*
X12911667Y-15272808D01*
X12911667Y-15272808D02*
X12921191Y-15282331D01*
X12921191Y-15282331D02*
X12930714Y-15301379D01*
X12930714Y-15301379D02*
X12940238Y-15339474D01*
X12940238Y-15339474D02*
X12940238Y-15387093D01*
X12940238Y-15387093D02*
X12930714Y-15425188D01*
X12930714Y-15425188D02*
X12921191Y-15444236D01*
X12921191Y-15444236D02*
X12911667Y-15453760D01*
X12911667Y-15453760D02*
X12892619Y-15463284D01*
X12892619Y-15463284D02*
X12873572Y-15463284D01*
X12873572Y-15463284D02*
X12854524Y-15453760D01*
X12854524Y-15453760D02*
X12845000Y-15444236D01*
X12845000Y-15444236D02*
X12835476Y-15425188D01*
X12835476Y-15425188D02*
X12825953Y-15387093D01*
X12825953Y-15387093D02*
X12825953Y-15339474D01*
X12825953Y-15339474D02*
X12835476Y-15301379D01*
X12835476Y-15301379D02*
X12845000Y-15282331D01*
X12845000Y-15282331D02*
X12854524Y-15272808D01*
X12854524Y-15272808D02*
X12873572Y-15263284D01*
X13025953Y-15444236D02*
X13035476Y-15453760D01*
X13035476Y-15453760D02*
X13025953Y-15463284D01*
X13025953Y-15463284D02*
X13016429Y-15453760D01*
X13016429Y-15453760D02*
X13025953Y-15444236D01*
X13025953Y-15444236D02*
X13025953Y-15463284D01*
X13159286Y-15263284D02*
X13178334Y-15263284D01*
X13178334Y-15263284D02*
X13197381Y-15272808D01*
X13197381Y-15272808D02*
X13206905Y-15282331D01*
X13206905Y-15282331D02*
X13216429Y-15301379D01*
X13216429Y-15301379D02*
X13225953Y-15339474D01*
X13225953Y-15339474D02*
X13225953Y-15387093D01*
X13225953Y-15387093D02*
X13216429Y-15425188D01*
X13216429Y-15425188D02*
X13206905Y-15444236D01*
X13206905Y-15444236D02*
X13197381Y-15453760D01*
X13197381Y-15453760D02*
X13178334Y-15463284D01*
X13178334Y-15463284D02*
X13159286Y-15463284D01*
X13159286Y-15463284D02*
X13140238Y-15453760D01*
X13140238Y-15453760D02*
X13130714Y-15444236D01*
X13130714Y-15444236D02*
X13121191Y-15425188D01*
X13121191Y-15425188D02*
X13111667Y-15387093D01*
X13111667Y-15387093D02*
X13111667Y-15339474D01*
X13111667Y-15339474D02*
X13121191Y-15301379D01*
X13121191Y-15301379D02*
X13130714Y-15282331D01*
X13130714Y-15282331D02*
X13140238Y-15272808D01*
X13140238Y-15272808D02*
X13159286Y-15263284D01*
X13397381Y-15329950D02*
X13397381Y-15463284D01*
X13349762Y-15253760D02*
X13302143Y-15396617D01*
X13302143Y-15396617D02*
X13425953Y-15396617D01*
X13483095Y-15263284D02*
X13616429Y-15263284D01*
X13616429Y-15263284D02*
X13530714Y-15463284D01*
X13683095Y-15282331D02*
X13692619Y-15272808D01*
X13692619Y-15272808D02*
X13711667Y-15263284D01*
X13711667Y-15263284D02*
X13759286Y-15263284D01*
X13759286Y-15263284D02*
X13778334Y-15272808D01*
X13778334Y-15272808D02*
X13787857Y-15282331D01*
X13787857Y-15282331D02*
X13797381Y-15301379D01*
X13797381Y-15301379D02*
X13797381Y-15320427D01*
X13797381Y-15320427D02*
X13787857Y-15348998D01*
X13787857Y-15348998D02*
X13673572Y-15463284D01*
X13673572Y-15463284D02*
X13797381Y-15463284D01*
X13873572Y-15263284D02*
X13873572Y-15301379D01*
X13949762Y-15263284D02*
X13949762Y-15301379D01*
X14245000Y-15539474D02*
X14235476Y-15529950D01*
X14235476Y-15529950D02*
X14216429Y-15501379D01*
X14216429Y-15501379D02*
X14206905Y-15482331D01*
X14206905Y-15482331D02*
X14197381Y-15453760D01*
X14197381Y-15453760D02*
X14187857Y-15406141D01*
X14187857Y-15406141D02*
X14187857Y-15368046D01*
X14187857Y-15368046D02*
X14197381Y-15320427D01*
X14197381Y-15320427D02*
X14206905Y-15291855D01*
X14206905Y-15291855D02*
X14216429Y-15272808D01*
X14216429Y-15272808D02*
X14235476Y-15244236D01*
X14235476Y-15244236D02*
X14245000Y-15234712D01*
X14416429Y-15263284D02*
X14321191Y-15263284D01*
X14321191Y-15263284D02*
X14311667Y-15358522D01*
X14311667Y-15358522D02*
X14321191Y-15348998D01*
X14321191Y-15348998D02*
X14340238Y-15339474D01*
X14340238Y-15339474D02*
X14387857Y-15339474D01*
X14387857Y-15339474D02*
X14406905Y-15348998D01*
X14406905Y-15348998D02*
X14416429Y-15358522D01*
X14416429Y-15358522D02*
X14425953Y-15377569D01*
X14425953Y-15377569D02*
X14425953Y-15425188D01*
X14425953Y-15425188D02*
X14416429Y-15444236D01*
X14416429Y-15444236D02*
X14406905Y-15453760D01*
X14406905Y-15453760D02*
X14387857Y-15463284D01*
X14387857Y-15463284D02*
X14340238Y-15463284D01*
X14340238Y-15463284D02*
X14321191Y-15453760D01*
X14321191Y-15453760D02*
X14311667Y-15444236D01*
X14664048Y-15463284D02*
X14664048Y-15263284D01*
X14749762Y-15463284D02*
X14749762Y-15358522D01*
X14749762Y-15358522D02*
X14740238Y-15339474D01*
X14740238Y-15339474D02*
X14721191Y-15329950D01*
X14721191Y-15329950D02*
X14692619Y-15329950D01*
X14692619Y-15329950D02*
X14673572Y-15339474D01*
X14673572Y-15339474D02*
X14664048Y-15348998D01*
X14873572Y-15463284D02*
X14854524Y-15453760D01*
X14854524Y-15453760D02*
X14845000Y-15444236D01*
X14845000Y-15444236D02*
X14835477Y-15425188D01*
X14835477Y-15425188D02*
X14835477Y-15368046D01*
X14835477Y-15368046D02*
X14845000Y-15348998D01*
X14845000Y-15348998D02*
X14854524Y-15339474D01*
X14854524Y-15339474D02*
X14873572Y-15329950D01*
X14873572Y-15329950D02*
X14902143Y-15329950D01*
X14902143Y-15329950D02*
X14921191Y-15339474D01*
X14921191Y-15339474D02*
X14930715Y-15348998D01*
X14930715Y-15348998D02*
X14940238Y-15368046D01*
X14940238Y-15368046D02*
X14940238Y-15425188D01*
X14940238Y-15425188D02*
X14930715Y-15444236D01*
X14930715Y-15444236D02*
X14921191Y-15453760D01*
X14921191Y-15453760D02*
X14902143Y-15463284D01*
X14902143Y-15463284D02*
X14873572Y-15463284D01*
X15054524Y-15463284D02*
X15035477Y-15453760D01*
X15035477Y-15453760D02*
X15025953Y-15434712D01*
X15025953Y-15434712D02*
X15025953Y-15263284D01*
X15206905Y-15453760D02*
X15187858Y-15463284D01*
X15187858Y-15463284D02*
X15149762Y-15463284D01*
X15149762Y-15463284D02*
X15130715Y-15453760D01*
X15130715Y-15453760D02*
X15121191Y-15434712D01*
X15121191Y-15434712D02*
X15121191Y-15358522D01*
X15121191Y-15358522D02*
X15130715Y-15339474D01*
X15130715Y-15339474D02*
X15149762Y-15329950D01*
X15149762Y-15329950D02*
X15187858Y-15329950D01*
X15187858Y-15329950D02*
X15206905Y-15339474D01*
X15206905Y-15339474D02*
X15216429Y-15358522D01*
X15216429Y-15358522D02*
X15216429Y-15377569D01*
X15216429Y-15377569D02*
X15121191Y-15396617D01*
X15292619Y-15453760D02*
X15311667Y-15463284D01*
X15311667Y-15463284D02*
X15349762Y-15463284D01*
X15349762Y-15463284D02*
X15368810Y-15453760D01*
X15368810Y-15453760D02*
X15378334Y-15434712D01*
X15378334Y-15434712D02*
X15378334Y-15425188D01*
X15378334Y-15425188D02*
X15368810Y-15406141D01*
X15368810Y-15406141D02*
X15349762Y-15396617D01*
X15349762Y-15396617D02*
X15321191Y-15396617D01*
X15321191Y-15396617D02*
X15302143Y-15387093D01*
X15302143Y-15387093D02*
X15292619Y-15368046D01*
X15292619Y-15368046D02*
X15292619Y-15358522D01*
X15292619Y-15358522D02*
X15302143Y-15339474D01*
X15302143Y-15339474D02*
X15321191Y-15329950D01*
X15321191Y-15329950D02*
X15349762Y-15329950D01*
X15349762Y-15329950D02*
X15368810Y-15339474D01*
X15445000Y-15539474D02*
X15454524Y-15529950D01*
X15454524Y-15529950D02*
X15473572Y-15501379D01*
X15473572Y-15501379D02*
X15483096Y-15482331D01*
X15483096Y-15482331D02*
X15492619Y-15453760D01*
X15492619Y-15453760D02*
X15502143Y-15406141D01*
X15502143Y-15406141D02*
X15502143Y-15368046D01*
X15502143Y-15368046D02*
X15492619Y-15320427D01*
X15492619Y-15320427D02*
X15483096Y-15291855D01*
X15483096Y-15291855D02*
X15473572Y-15272808D01*
X15473572Y-15272808D02*
X15454524Y-15244236D01*
X15454524Y-15244236D02*
X15445000Y-15234712D01*
X15806905Y-15539474D02*
X15797381Y-15529950D01*
X15797381Y-15529950D02*
X15778334Y-15501379D01*
X15778334Y-15501379D02*
X15768810Y-15482331D01*
X15768810Y-15482331D02*
X15759286Y-15453760D01*
X15759286Y-15453760D02*
X15749762Y-15406141D01*
X15749762Y-15406141D02*
X15749762Y-15368046D01*
X15749762Y-15368046D02*
X15759286Y-15320427D01*
X15759286Y-15320427D02*
X15768810Y-15291855D01*
X15768810Y-15291855D02*
X15778334Y-15272808D01*
X15778334Y-15272808D02*
X15797381Y-15244236D01*
X15797381Y-15244236D02*
X15806905Y-15234712D01*
X15883096Y-15329950D02*
X15883096Y-15463284D01*
X15883096Y-15348998D02*
X15892619Y-15339474D01*
X15892619Y-15339474D02*
X15911667Y-15329950D01*
X15911667Y-15329950D02*
X15940239Y-15329950D01*
X15940239Y-15329950D02*
X15959286Y-15339474D01*
X15959286Y-15339474D02*
X15968810Y-15358522D01*
X15968810Y-15358522D02*
X15968810Y-15463284D01*
X16092619Y-15463284D02*
X16073572Y-15453760D01*
X16073572Y-15453760D02*
X16064048Y-15444236D01*
X16064048Y-15444236D02*
X16054524Y-15425188D01*
X16054524Y-15425188D02*
X16054524Y-15368046D01*
X16054524Y-15368046D02*
X16064048Y-15348998D01*
X16064048Y-15348998D02*
X16073572Y-15339474D01*
X16073572Y-15339474D02*
X16092619Y-15329950D01*
X16092619Y-15329950D02*
X16121191Y-15329950D01*
X16121191Y-15329950D02*
X16140239Y-15339474D01*
X16140239Y-15339474D02*
X16149762Y-15348998D01*
X16149762Y-15348998D02*
X16159286Y-15368046D01*
X16159286Y-15368046D02*
X16159286Y-15425188D01*
X16159286Y-15425188D02*
X16149762Y-15444236D01*
X16149762Y-15444236D02*
X16140239Y-15453760D01*
X16140239Y-15453760D02*
X16121191Y-15463284D01*
X16121191Y-15463284D02*
X16092619Y-15463284D01*
X16216429Y-15329950D02*
X16292619Y-15329950D01*
X16245000Y-15263284D02*
X16245000Y-15434712D01*
X16245000Y-15434712D02*
X16254524Y-15453760D01*
X16254524Y-15453760D02*
X16273572Y-15463284D01*
X16273572Y-15463284D02*
X16292619Y-15463284D01*
X16511667Y-15329950D02*
X16511667Y-15529950D01*
X16511667Y-15339474D02*
X16530715Y-15329950D01*
X16530715Y-15329950D02*
X16568810Y-15329950D01*
X16568810Y-15329950D02*
X16587858Y-15339474D01*
X16587858Y-15339474D02*
X16597381Y-15348998D01*
X16597381Y-15348998D02*
X16606905Y-15368046D01*
X16606905Y-15368046D02*
X16606905Y-15425188D01*
X16606905Y-15425188D02*
X16597381Y-15444236D01*
X16597381Y-15444236D02*
X16587858Y-15453760D01*
X16587858Y-15453760D02*
X16568810Y-15463284D01*
X16568810Y-15463284D02*
X16530715Y-15463284D01*
X16530715Y-15463284D02*
X16511667Y-15453760D01*
X16721191Y-15463284D02*
X16702143Y-15453760D01*
X16702143Y-15453760D02*
X16692620Y-15434712D01*
X16692620Y-15434712D02*
X16692620Y-15263284D01*
X16883096Y-15463284D02*
X16883096Y-15358522D01*
X16883096Y-15358522D02*
X16873572Y-15339474D01*
X16873572Y-15339474D02*
X16854524Y-15329950D01*
X16854524Y-15329950D02*
X16816429Y-15329950D01*
X16816429Y-15329950D02*
X16797382Y-15339474D01*
X16883096Y-15453760D02*
X16864048Y-15463284D01*
X16864048Y-15463284D02*
X16816429Y-15463284D01*
X16816429Y-15463284D02*
X16797382Y-15453760D01*
X16797382Y-15453760D02*
X16787858Y-15434712D01*
X16787858Y-15434712D02*
X16787858Y-15415665D01*
X16787858Y-15415665D02*
X16797382Y-15396617D01*
X16797382Y-15396617D02*
X16816429Y-15387093D01*
X16816429Y-15387093D02*
X16864048Y-15387093D01*
X16864048Y-15387093D02*
X16883096Y-15377569D01*
X16949763Y-15329950D02*
X17025953Y-15329950D01*
X16978334Y-15263284D02*
X16978334Y-15434712D01*
X16978334Y-15434712D02*
X16987858Y-15453760D01*
X16987858Y-15453760D02*
X17006905Y-15463284D01*
X17006905Y-15463284D02*
X17025953Y-15463284D01*
X17168810Y-15453760D02*
X17149763Y-15463284D01*
X17149763Y-15463284D02*
X17111667Y-15463284D01*
X17111667Y-15463284D02*
X17092620Y-15453760D01*
X17092620Y-15453760D02*
X17083096Y-15434712D01*
X17083096Y-15434712D02*
X17083096Y-15358522D01*
X17083096Y-15358522D02*
X17092620Y-15339474D01*
X17092620Y-15339474D02*
X17111667Y-15329950D01*
X17111667Y-15329950D02*
X17149763Y-15329950D01*
X17149763Y-15329950D02*
X17168810Y-15339474D01*
X17168810Y-15339474D02*
X17178334Y-15358522D01*
X17178334Y-15358522D02*
X17178334Y-15377569D01*
X17178334Y-15377569D02*
X17083096Y-15396617D01*
X17349763Y-15463284D02*
X17349763Y-15263284D01*
X17349763Y-15453760D02*
X17330715Y-15463284D01*
X17330715Y-15463284D02*
X17292620Y-15463284D01*
X17292620Y-15463284D02*
X17273572Y-15453760D01*
X17273572Y-15453760D02*
X17264048Y-15444236D01*
X17264048Y-15444236D02*
X17254524Y-15425188D01*
X17254524Y-15425188D02*
X17254524Y-15368046D01*
X17254524Y-15368046D02*
X17264048Y-15348998D01*
X17264048Y-15348998D02*
X17273572Y-15339474D01*
X17273572Y-15339474D02*
X17292620Y-15329950D01*
X17292620Y-15329950D02*
X17330715Y-15329950D01*
X17330715Y-15329950D02*
X17349763Y-15339474D01*
X17425953Y-15539474D02*
X17435477Y-15529950D01*
X17435477Y-15529950D02*
X17454524Y-15501379D01*
X17454524Y-15501379D02*
X17464048Y-15482331D01*
X17464048Y-15482331D02*
X17473572Y-15453760D01*
X17473572Y-15453760D02*
X17483096Y-15406141D01*
X17483096Y-15406141D02*
X17483096Y-15368046D01*
X17483096Y-15368046D02*
X17473572Y-15320427D01*
X17473572Y-15320427D02*
X17464048Y-15291855D01*
X17464048Y-15291855D02*
X17454524Y-15272808D01*
X17454524Y-15272808D02*
X17435477Y-15244236D01*
X17435477Y-15244236D02*
X17425953Y-15234712D01*
X10669938Y-15635800D02*
G75*
G02*
X10469938Y-15635800I-100000J0D01*
G01*
X10469938Y-15635800D02*
G75*
G02*
X10669938Y-15635800I100000J0D01*
G01*
X10921191Y-15546331D02*
X10930714Y-15536808D01*
X10930714Y-15536808D02*
X10949762Y-15527284D01*
X10949762Y-15527284D02*
X10997381Y-15527284D01*
X10997381Y-15527284D02*
X11016429Y-15536808D01*
X11016429Y-15536808D02*
X11025952Y-15546331D01*
X11025952Y-15546331D02*
X11035476Y-15565379D01*
X11035476Y-15565379D02*
X11035476Y-15584427D01*
X11035476Y-15584427D02*
X11025952Y-15612998D01*
X11025952Y-15612998D02*
X10911667Y-15727284D01*
X10911667Y-15727284D02*
X11035476Y-15727284D01*
X11121191Y-15708236D02*
X11130714Y-15717760D01*
X11130714Y-15717760D02*
X11121191Y-15727284D01*
X11121191Y-15727284D02*
X11111667Y-15717760D01*
X11111667Y-15717760D02*
X11121191Y-15708236D01*
X11121191Y-15708236D02*
X11121191Y-15727284D01*
X11321190Y-15727284D02*
X11206905Y-15727284D01*
X11264048Y-15727284D02*
X11264048Y-15527284D01*
X11264048Y-15527284D02*
X11245000Y-15555855D01*
X11245000Y-15555855D02*
X11225952Y-15574903D01*
X11225952Y-15574903D02*
X11206905Y-15584427D01*
X11445000Y-15527284D02*
X11464048Y-15527284D01*
X11464048Y-15527284D02*
X11483095Y-15536808D01*
X11483095Y-15536808D02*
X11492619Y-15546331D01*
X11492619Y-15546331D02*
X11502143Y-15565379D01*
X11502143Y-15565379D02*
X11511667Y-15603474D01*
X11511667Y-15603474D02*
X11511667Y-15651093D01*
X11511667Y-15651093D02*
X11502143Y-15689188D01*
X11502143Y-15689188D02*
X11492619Y-15708236D01*
X11492619Y-15708236D02*
X11483095Y-15717760D01*
X11483095Y-15717760D02*
X11464048Y-15727284D01*
X11464048Y-15727284D02*
X11445000Y-15727284D01*
X11445000Y-15727284D02*
X11425952Y-15717760D01*
X11425952Y-15717760D02*
X11416429Y-15708236D01*
X11416429Y-15708236D02*
X11406905Y-15689188D01*
X11406905Y-15689188D02*
X11397381Y-15651093D01*
X11397381Y-15651093D02*
X11397381Y-15603474D01*
X11397381Y-15603474D02*
X11406905Y-15565379D01*
X11406905Y-15565379D02*
X11416429Y-15546331D01*
X11416429Y-15546331D02*
X11425952Y-15536808D01*
X11425952Y-15536808D02*
X11445000Y-15527284D01*
X11635476Y-15527284D02*
X11654524Y-15527284D01*
X11654524Y-15527284D02*
X11673571Y-15536808D01*
X11673571Y-15536808D02*
X11683095Y-15546331D01*
X11683095Y-15546331D02*
X11692619Y-15565379D01*
X11692619Y-15565379D02*
X11702143Y-15603474D01*
X11702143Y-15603474D02*
X11702143Y-15651093D01*
X11702143Y-15651093D02*
X11692619Y-15689188D01*
X11692619Y-15689188D02*
X11683095Y-15708236D01*
X11683095Y-15708236D02*
X11673571Y-15717760D01*
X11673571Y-15717760D02*
X11654524Y-15727284D01*
X11654524Y-15727284D02*
X11635476Y-15727284D01*
X11635476Y-15727284D02*
X11616429Y-15717760D01*
X11616429Y-15717760D02*
X11606905Y-15708236D01*
X11606905Y-15708236D02*
X11597381Y-15689188D01*
X11597381Y-15689188D02*
X11587857Y-15651093D01*
X11587857Y-15651093D02*
X11587857Y-15603474D01*
X11587857Y-15603474D02*
X11597381Y-15565379D01*
X11597381Y-15565379D02*
X11606905Y-15546331D01*
X11606905Y-15546331D02*
X11616429Y-15536808D01*
X11616429Y-15536808D02*
X11635476Y-15527284D01*
X11787857Y-15727284D02*
X11787857Y-15593950D01*
X11787857Y-15612998D02*
X11797381Y-15603474D01*
X11797381Y-15603474D02*
X11816429Y-15593950D01*
X11816429Y-15593950D02*
X11845000Y-15593950D01*
X11845000Y-15593950D02*
X11864048Y-15603474D01*
X11864048Y-15603474D02*
X11873571Y-15622522D01*
X11873571Y-15622522D02*
X11873571Y-15727284D01*
X11873571Y-15622522D02*
X11883095Y-15603474D01*
X11883095Y-15603474D02*
X11902143Y-15593950D01*
X11902143Y-15593950D02*
X11930714Y-15593950D01*
X11930714Y-15593950D02*
X11949762Y-15603474D01*
X11949762Y-15603474D02*
X11959286Y-15622522D01*
X11959286Y-15622522D02*
X11959286Y-15727284D01*
X12054524Y-15727284D02*
X12054524Y-15593950D01*
X12054524Y-15612998D02*
X12064048Y-15603474D01*
X12064048Y-15603474D02*
X12083095Y-15593950D01*
X12083095Y-15593950D02*
X12111667Y-15593950D01*
X12111667Y-15593950D02*
X12130714Y-15603474D01*
X12130714Y-15603474D02*
X12140238Y-15622522D01*
X12140238Y-15622522D02*
X12140238Y-15727284D01*
X12140238Y-15622522D02*
X12149762Y-15603474D01*
X12149762Y-15603474D02*
X12168810Y-15593950D01*
X12168810Y-15593950D02*
X12197381Y-15593950D01*
X12197381Y-15593950D02*
X12216429Y-15603474D01*
X12216429Y-15603474D02*
X12225952Y-15622522D01*
X12225952Y-15622522D02*
X12225952Y-15727284D01*
X12616429Y-15517760D02*
X12445000Y-15774903D01*
X12873572Y-15527284D02*
X12892619Y-15527284D01*
X12892619Y-15527284D02*
X12911667Y-15536808D01*
X12911667Y-15536808D02*
X12921191Y-15546331D01*
X12921191Y-15546331D02*
X12930714Y-15565379D01*
X12930714Y-15565379D02*
X12940238Y-15603474D01*
X12940238Y-15603474D02*
X12940238Y-15651093D01*
X12940238Y-15651093D02*
X12930714Y-15689188D01*
X12930714Y-15689188D02*
X12921191Y-15708236D01*
X12921191Y-15708236D02*
X12911667Y-15717760D01*
X12911667Y-15717760D02*
X12892619Y-15727284D01*
X12892619Y-15727284D02*
X12873572Y-15727284D01*
X12873572Y-15727284D02*
X12854524Y-15717760D01*
X12854524Y-15717760D02*
X12845000Y-15708236D01*
X12845000Y-15708236D02*
X12835476Y-15689188D01*
X12835476Y-15689188D02*
X12825953Y-15651093D01*
X12825953Y-15651093D02*
X12825953Y-15603474D01*
X12825953Y-15603474D02*
X12835476Y-15565379D01*
X12835476Y-15565379D02*
X12845000Y-15546331D01*
X12845000Y-15546331D02*
X12854524Y-15536808D01*
X12854524Y-15536808D02*
X12873572Y-15527284D01*
X13025953Y-15708236D02*
X13035476Y-15717760D01*
X13035476Y-15717760D02*
X13025953Y-15727284D01*
X13025953Y-15727284D02*
X13016429Y-15717760D01*
X13016429Y-15717760D02*
X13025953Y-15708236D01*
X13025953Y-15708236D02*
X13025953Y-15727284D01*
X13159286Y-15527284D02*
X13178334Y-15527284D01*
X13178334Y-15527284D02*
X13197381Y-15536808D01*
X13197381Y-15536808D02*
X13206905Y-15546331D01*
X13206905Y-15546331D02*
X13216429Y-15565379D01*
X13216429Y-15565379D02*
X13225953Y-15603474D01*
X13225953Y-15603474D02*
X13225953Y-15651093D01*
X13225953Y-15651093D02*
X13216429Y-15689188D01*
X13216429Y-15689188D02*
X13206905Y-15708236D01*
X13206905Y-15708236D02*
X13197381Y-15717760D01*
X13197381Y-15717760D02*
X13178334Y-15727284D01*
X13178334Y-15727284D02*
X13159286Y-15727284D01*
X13159286Y-15727284D02*
X13140238Y-15717760D01*
X13140238Y-15717760D02*
X13130714Y-15708236D01*
X13130714Y-15708236D02*
X13121191Y-15689188D01*
X13121191Y-15689188D02*
X13111667Y-15651093D01*
X13111667Y-15651093D02*
X13111667Y-15603474D01*
X13111667Y-15603474D02*
X13121191Y-15565379D01*
X13121191Y-15565379D02*
X13130714Y-15546331D01*
X13130714Y-15546331D02*
X13140238Y-15536808D01*
X13140238Y-15536808D02*
X13159286Y-15527284D01*
X13340238Y-15612998D02*
X13321191Y-15603474D01*
X13321191Y-15603474D02*
X13311667Y-15593950D01*
X13311667Y-15593950D02*
X13302143Y-15574903D01*
X13302143Y-15574903D02*
X13302143Y-15565379D01*
X13302143Y-15565379D02*
X13311667Y-15546331D01*
X13311667Y-15546331D02*
X13321191Y-15536808D01*
X13321191Y-15536808D02*
X13340238Y-15527284D01*
X13340238Y-15527284D02*
X13378334Y-15527284D01*
X13378334Y-15527284D02*
X13397381Y-15536808D01*
X13397381Y-15536808D02*
X13406905Y-15546331D01*
X13406905Y-15546331D02*
X13416429Y-15565379D01*
X13416429Y-15565379D02*
X13416429Y-15574903D01*
X13416429Y-15574903D02*
X13406905Y-15593950D01*
X13406905Y-15593950D02*
X13397381Y-15603474D01*
X13397381Y-15603474D02*
X13378334Y-15612998D01*
X13378334Y-15612998D02*
X13340238Y-15612998D01*
X13340238Y-15612998D02*
X13321191Y-15622522D01*
X13321191Y-15622522D02*
X13311667Y-15632046D01*
X13311667Y-15632046D02*
X13302143Y-15651093D01*
X13302143Y-15651093D02*
X13302143Y-15689188D01*
X13302143Y-15689188D02*
X13311667Y-15708236D01*
X13311667Y-15708236D02*
X13321191Y-15717760D01*
X13321191Y-15717760D02*
X13340238Y-15727284D01*
X13340238Y-15727284D02*
X13378334Y-15727284D01*
X13378334Y-15727284D02*
X13397381Y-15717760D01*
X13397381Y-15717760D02*
X13406905Y-15708236D01*
X13406905Y-15708236D02*
X13416429Y-15689188D01*
X13416429Y-15689188D02*
X13416429Y-15651093D01*
X13416429Y-15651093D02*
X13406905Y-15632046D01*
X13406905Y-15632046D02*
X13397381Y-15622522D01*
X13397381Y-15622522D02*
X13378334Y-15612998D01*
X13492619Y-15546331D02*
X13502143Y-15536808D01*
X13502143Y-15536808D02*
X13521191Y-15527284D01*
X13521191Y-15527284D02*
X13568810Y-15527284D01*
X13568810Y-15527284D02*
X13587857Y-15536808D01*
X13587857Y-15536808D02*
X13597381Y-15546331D01*
X13597381Y-15546331D02*
X13606905Y-15565379D01*
X13606905Y-15565379D02*
X13606905Y-15584427D01*
X13606905Y-15584427D02*
X13597381Y-15612998D01*
X13597381Y-15612998D02*
X13483095Y-15727284D01*
X13483095Y-15727284D02*
X13606905Y-15727284D01*
X13673572Y-15527284D02*
X13806905Y-15527284D01*
X13806905Y-15527284D02*
X13721191Y-15727284D01*
X13873572Y-15527284D02*
X13873572Y-15565379D01*
X13949762Y-15527284D02*
X13949762Y-15565379D01*
X14245000Y-15803474D02*
X14235476Y-15793950D01*
X14235476Y-15793950D02*
X14216429Y-15765379D01*
X14216429Y-15765379D02*
X14206905Y-15746331D01*
X14206905Y-15746331D02*
X14197381Y-15717760D01*
X14197381Y-15717760D02*
X14187857Y-15670141D01*
X14187857Y-15670141D02*
X14187857Y-15632046D01*
X14187857Y-15632046D02*
X14197381Y-15584427D01*
X14197381Y-15584427D02*
X14206905Y-15555855D01*
X14206905Y-15555855D02*
X14216429Y-15536808D01*
X14216429Y-15536808D02*
X14235476Y-15508236D01*
X14235476Y-15508236D02*
X14245000Y-15498712D01*
X14406905Y-15593950D02*
X14406905Y-15727284D01*
X14359286Y-15517760D02*
X14311667Y-15660617D01*
X14311667Y-15660617D02*
X14435476Y-15660617D01*
X14664048Y-15727284D02*
X14664048Y-15527284D01*
X14749762Y-15727284D02*
X14749762Y-15622522D01*
X14749762Y-15622522D02*
X14740238Y-15603474D01*
X14740238Y-15603474D02*
X14721191Y-15593950D01*
X14721191Y-15593950D02*
X14692619Y-15593950D01*
X14692619Y-15593950D02*
X14673572Y-15603474D01*
X14673572Y-15603474D02*
X14664048Y-15612998D01*
X14873572Y-15727284D02*
X14854524Y-15717760D01*
X14854524Y-15717760D02*
X14845000Y-15708236D01*
X14845000Y-15708236D02*
X14835477Y-15689188D01*
X14835477Y-15689188D02*
X14835477Y-15632046D01*
X14835477Y-15632046D02*
X14845000Y-15612998D01*
X14845000Y-15612998D02*
X14854524Y-15603474D01*
X14854524Y-15603474D02*
X14873572Y-15593950D01*
X14873572Y-15593950D02*
X14902143Y-15593950D01*
X14902143Y-15593950D02*
X14921191Y-15603474D01*
X14921191Y-15603474D02*
X14930715Y-15612998D01*
X14930715Y-15612998D02*
X14940238Y-15632046D01*
X14940238Y-15632046D02*
X14940238Y-15689188D01*
X14940238Y-15689188D02*
X14930715Y-15708236D01*
X14930715Y-15708236D02*
X14921191Y-15717760D01*
X14921191Y-15717760D02*
X14902143Y-15727284D01*
X14902143Y-15727284D02*
X14873572Y-15727284D01*
X15054524Y-15727284D02*
X15035477Y-15717760D01*
X15035477Y-15717760D02*
X15025953Y-15698712D01*
X15025953Y-15698712D02*
X15025953Y-15527284D01*
X15206905Y-15717760D02*
X15187858Y-15727284D01*
X15187858Y-15727284D02*
X15149762Y-15727284D01*
X15149762Y-15727284D02*
X15130715Y-15717760D01*
X15130715Y-15717760D02*
X15121191Y-15698712D01*
X15121191Y-15698712D02*
X15121191Y-15622522D01*
X15121191Y-15622522D02*
X15130715Y-15603474D01*
X15130715Y-15603474D02*
X15149762Y-15593950D01*
X15149762Y-15593950D02*
X15187858Y-15593950D01*
X15187858Y-15593950D02*
X15206905Y-15603474D01*
X15206905Y-15603474D02*
X15216429Y-15622522D01*
X15216429Y-15622522D02*
X15216429Y-15641569D01*
X15216429Y-15641569D02*
X15121191Y-15660617D01*
X15292619Y-15717760D02*
X15311667Y-15727284D01*
X15311667Y-15727284D02*
X15349762Y-15727284D01*
X15349762Y-15727284D02*
X15368810Y-15717760D01*
X15368810Y-15717760D02*
X15378334Y-15698712D01*
X15378334Y-15698712D02*
X15378334Y-15689188D01*
X15378334Y-15689188D02*
X15368810Y-15670141D01*
X15368810Y-15670141D02*
X15349762Y-15660617D01*
X15349762Y-15660617D02*
X15321191Y-15660617D01*
X15321191Y-15660617D02*
X15302143Y-15651093D01*
X15302143Y-15651093D02*
X15292619Y-15632046D01*
X15292619Y-15632046D02*
X15292619Y-15622522D01*
X15292619Y-15622522D02*
X15302143Y-15603474D01*
X15302143Y-15603474D02*
X15321191Y-15593950D01*
X15321191Y-15593950D02*
X15349762Y-15593950D01*
X15349762Y-15593950D02*
X15368810Y-15603474D01*
X15445000Y-15803474D02*
X15454524Y-15793950D01*
X15454524Y-15793950D02*
X15473572Y-15765379D01*
X15473572Y-15765379D02*
X15483096Y-15746331D01*
X15483096Y-15746331D02*
X15492619Y-15717760D01*
X15492619Y-15717760D02*
X15502143Y-15670141D01*
X15502143Y-15670141D02*
X15502143Y-15632046D01*
X15502143Y-15632046D02*
X15492619Y-15584427D01*
X15492619Y-15584427D02*
X15483096Y-15555855D01*
X15483096Y-15555855D02*
X15473572Y-15536808D01*
X15473572Y-15536808D02*
X15454524Y-15508236D01*
X15454524Y-15508236D02*
X15445000Y-15498712D01*
X15806905Y-15803474D02*
X15797381Y-15793950D01*
X15797381Y-15793950D02*
X15778334Y-15765379D01*
X15778334Y-15765379D02*
X15768810Y-15746331D01*
X15768810Y-15746331D02*
X15759286Y-15717760D01*
X15759286Y-15717760D02*
X15749762Y-15670141D01*
X15749762Y-15670141D02*
X15749762Y-15632046D01*
X15749762Y-15632046D02*
X15759286Y-15584427D01*
X15759286Y-15584427D02*
X15768810Y-15555855D01*
X15768810Y-15555855D02*
X15778334Y-15536808D01*
X15778334Y-15536808D02*
X15797381Y-15508236D01*
X15797381Y-15508236D02*
X15806905Y-15498712D01*
X15883096Y-15593950D02*
X15883096Y-15727284D01*
X15883096Y-15612998D02*
X15892619Y-15603474D01*
X15892619Y-15603474D02*
X15911667Y-15593950D01*
X15911667Y-15593950D02*
X15940239Y-15593950D01*
X15940239Y-15593950D02*
X15959286Y-15603474D01*
X15959286Y-15603474D02*
X15968810Y-15622522D01*
X15968810Y-15622522D02*
X15968810Y-15727284D01*
X16092619Y-15727284D02*
X16073572Y-15717760D01*
X16073572Y-15717760D02*
X16064048Y-15708236D01*
X16064048Y-15708236D02*
X16054524Y-15689188D01*
X16054524Y-15689188D02*
X16054524Y-15632046D01*
X16054524Y-15632046D02*
X16064048Y-15612998D01*
X16064048Y-15612998D02*
X16073572Y-15603474D01*
X16073572Y-15603474D02*
X16092619Y-15593950D01*
X16092619Y-15593950D02*
X16121191Y-15593950D01*
X16121191Y-15593950D02*
X16140239Y-15603474D01*
X16140239Y-15603474D02*
X16149762Y-15612998D01*
X16149762Y-15612998D02*
X16159286Y-15632046D01*
X16159286Y-15632046D02*
X16159286Y-15689188D01*
X16159286Y-15689188D02*
X16149762Y-15708236D01*
X16149762Y-15708236D02*
X16140239Y-15717760D01*
X16140239Y-15717760D02*
X16121191Y-15727284D01*
X16121191Y-15727284D02*
X16092619Y-15727284D01*
X16216429Y-15593950D02*
X16292619Y-15593950D01*
X16245000Y-15527284D02*
X16245000Y-15698712D01*
X16245000Y-15698712D02*
X16254524Y-15717760D01*
X16254524Y-15717760D02*
X16273572Y-15727284D01*
X16273572Y-15727284D02*
X16292619Y-15727284D01*
X16511667Y-15593950D02*
X16511667Y-15793950D01*
X16511667Y-15603474D02*
X16530715Y-15593950D01*
X16530715Y-15593950D02*
X16568810Y-15593950D01*
X16568810Y-15593950D02*
X16587858Y-15603474D01*
X16587858Y-15603474D02*
X16597381Y-15612998D01*
X16597381Y-15612998D02*
X16606905Y-15632046D01*
X16606905Y-15632046D02*
X16606905Y-15689188D01*
X16606905Y-15689188D02*
X16597381Y-15708236D01*
X16597381Y-15708236D02*
X16587858Y-15717760D01*
X16587858Y-15717760D02*
X16568810Y-15727284D01*
X16568810Y-15727284D02*
X16530715Y-15727284D01*
X16530715Y-15727284D02*
X16511667Y-15717760D01*
X16721191Y-15727284D02*
X16702143Y-15717760D01*
X16702143Y-15717760D02*
X16692620Y-15698712D01*
X16692620Y-15698712D02*
X16692620Y-15527284D01*
X16883096Y-15727284D02*
X16883096Y-15622522D01*
X16883096Y-15622522D02*
X16873572Y-15603474D01*
X16873572Y-15603474D02*
X16854524Y-15593950D01*
X16854524Y-15593950D02*
X16816429Y-15593950D01*
X16816429Y-15593950D02*
X16797382Y-15603474D01*
X16883096Y-15717760D02*
X16864048Y-15727284D01*
X16864048Y-15727284D02*
X16816429Y-15727284D01*
X16816429Y-15727284D02*
X16797382Y-15717760D01*
X16797382Y-15717760D02*
X16787858Y-15698712D01*
X16787858Y-15698712D02*
X16787858Y-15679665D01*
X16787858Y-15679665D02*
X16797382Y-15660617D01*
X16797382Y-15660617D02*
X16816429Y-15651093D01*
X16816429Y-15651093D02*
X16864048Y-15651093D01*
X16864048Y-15651093D02*
X16883096Y-15641569D01*
X16949763Y-15593950D02*
X17025953Y-15593950D01*
X16978334Y-15527284D02*
X16978334Y-15698712D01*
X16978334Y-15698712D02*
X16987858Y-15717760D01*
X16987858Y-15717760D02*
X17006905Y-15727284D01*
X17006905Y-15727284D02*
X17025953Y-15727284D01*
X17168810Y-15717760D02*
X17149763Y-15727284D01*
X17149763Y-15727284D02*
X17111667Y-15727284D01*
X17111667Y-15727284D02*
X17092620Y-15717760D01*
X17092620Y-15717760D02*
X17083096Y-15698712D01*
X17083096Y-15698712D02*
X17083096Y-15622522D01*
X17083096Y-15622522D02*
X17092620Y-15603474D01*
X17092620Y-15603474D02*
X17111667Y-15593950D01*
X17111667Y-15593950D02*
X17149763Y-15593950D01*
X17149763Y-15593950D02*
X17168810Y-15603474D01*
X17168810Y-15603474D02*
X17178334Y-15622522D01*
X17178334Y-15622522D02*
X17178334Y-15641569D01*
X17178334Y-15641569D02*
X17083096Y-15660617D01*
X17349763Y-15727284D02*
X17349763Y-15527284D01*
X17349763Y-15717760D02*
X17330715Y-15727284D01*
X17330715Y-15727284D02*
X17292620Y-15727284D01*
X17292620Y-15727284D02*
X17273572Y-15717760D01*
X17273572Y-15717760D02*
X17264048Y-15708236D01*
X17264048Y-15708236D02*
X17254524Y-15689188D01*
X17254524Y-15689188D02*
X17254524Y-15632046D01*
X17254524Y-15632046D02*
X17264048Y-15612998D01*
X17264048Y-15612998D02*
X17273572Y-15603474D01*
X17273572Y-15603474D02*
X17292620Y-15593950D01*
X17292620Y-15593950D02*
X17330715Y-15593950D01*
X17330715Y-15593950D02*
X17349763Y-15603474D01*
X17425953Y-15803474D02*
X17435477Y-15793950D01*
X17435477Y-15793950D02*
X17454524Y-15765379D01*
X17454524Y-15765379D02*
X17464048Y-15746331D01*
X17464048Y-15746331D02*
X17473572Y-15717760D01*
X17473572Y-15717760D02*
X17483096Y-15670141D01*
X17483096Y-15670141D02*
X17483096Y-15632046D01*
X17483096Y-15632046D02*
X17473572Y-15584427D01*
X17473572Y-15584427D02*
X17464048Y-15555855D01*
X17464048Y-15555855D02*
X17454524Y-15536808D01*
X17454524Y-15536808D02*
X17435477Y-15508236D01*
X17435477Y-15508236D02*
X17425953Y-15498712D01*
M02*
