M48
; DRILL file {KiCad 9.0.0} date 2025-04-29T20:47:37-0400
; FORMAT={-:-/ absolute / metric / decimal}
; #@! TF.CreationDate,2025-04-29T20:47:37-04:00
; #@! TF.GenerationSoftware,Kicad,Pcbnew,9.0.0
; #@! TF.FileFunction,Plated,1,2,PTH
FMAT,2
METRIC
; #@! TA.AperFunction,Plated,PTH,ComponentDrill
T1C0.400
; #@! TA.AperFunction,Plated,PTH,ComponentDrill
T2C0.750
; #@! TA.AperFunction,Plated,PTH,ComponentDrill
T3C0.800
; #@! TA.AperFunction,Plated,PTH,ComponentDrill
T4C0.990
; #@! TA.AperFunction,Plated,PTH,ComponentDrill
T5C1.000
; #@! TA.AperFunction,Plated,PTH,ComponentDrill
T6C1.100
; #@! TA.AperFunction,Plated,PTH,ComponentDrill
T7C1.300
; #@! TA.AperFunction,Plated,PTH,ComponentDrill
T8C2.000
%
G90
G05
T2
X168.0Y-95.55
X170.0Y-95.55
T3
X114.104Y-52.793
X121.724Y-52.793
X146.949Y-52.043
X146.949Y-75.043
X149.949Y-75.043
X157.449Y-75.043
X160.449Y-52.043
X160.449Y-75.043
T4
X171.012Y-69.518
X171.012Y-74.018
X171.012Y-80.018
X171.012Y-84.518
T5
X118.674Y-87.163
X118.674Y-102.403
X121.214Y-87.163
X121.214Y-102.403
X122.204Y-107.293
X122.204Y-130.153
X123.754Y-87.163
X123.754Y-102.403
X124.744Y-107.293
X124.744Y-130.153
X126.294Y-87.163
X126.294Y-102.403
X127.284Y-107.293
X127.284Y-130.153
X128.834Y-87.163
X128.834Y-102.403
X129.824Y-107.293
X129.824Y-130.153
X131.374Y-87.163
X131.374Y-102.403
X132.364Y-107.293
X132.364Y-130.153
X133.914Y-87.163
X133.914Y-102.403
X134.904Y-107.293
X134.904Y-130.153
X136.109Y-52.253
X136.109Y-54.793
X136.109Y-57.333
X136.109Y-59.873
X136.454Y-87.163
X136.454Y-102.403
X137.444Y-107.293
X137.444Y-130.153
X138.994Y-87.163
X138.994Y-102.403
X139.984Y-107.293
X139.984Y-130.153
X141.534Y-87.163
X141.534Y-102.403
X142.524Y-107.293
X142.524Y-130.153
X144.074Y-87.163
X144.074Y-102.403
X145.064Y-107.293
X145.064Y-130.153
X146.614Y-87.163
X146.614Y-102.403
X147.604Y-107.293
X147.604Y-130.153
X149.154Y-87.163
X149.154Y-102.403
X150.144Y-107.293
X150.144Y-130.153
X151.694Y-87.163
X151.694Y-102.403
X152.684Y-107.293
X152.684Y-130.153
X154.234Y-87.163
X154.234Y-102.403
X155.224Y-107.293
X155.224Y-130.153
X157.764Y-107.293
X157.764Y-130.153
X160.304Y-107.293
X160.304Y-130.153
T6
X109.724Y-70.133
X109.724Y-75.213
X109.724Y-80.293
X124.724Y-136.293
X124.724Y-140.793
X131.224Y-136.293
X131.224Y-140.793
X136.724Y-136.293
X136.724Y-140.793
X143.224Y-136.293
X143.224Y-140.793
X148.724Y-136.293
X148.724Y-140.793
X155.224Y-136.293
X155.224Y-140.793
T7
X168.522Y-68.268
X168.522Y-75.278
X168.522Y-78.768
X168.522Y-85.778
T8
X115.224Y-67.293
X115.224Y-81.293
X142.224Y-67.293
X142.224Y-81.293
T1
G00X161.224Y-136.793
M15
G01X161.224Y-137.793
M16
G05
G00X165.724Y-142.293
M15
G01X166.724Y-142.293
M16
G05
G00X171.224Y-137.793
M15
G01X171.224Y-136.793
M16
G05
T3
G00X163.724Y-136.943
M15
G01X163.724Y-137.643
M16
G05
G00X168.724Y-137.643
M15
G01X168.724Y-136.943
M16
G05
M30
