%TF.GenerationSoftware,KiCad,Pcbnew,9.0.0*%
%TF.CreationDate,2025-04-29T20:47:37-04:00*%
%TF.ProjectId,mp3_player,6d70335f-706c-4617-9965-722e6b696361,rev?*%
%TF.SameCoordinates,Original*%
%TF.FileFunction,Drillmap*%
%TF.FilePolarity,Positive*%
%FSLAX45Y45*%
G04 Gerber Fmt 4.5, Leading zero omitted, Abs format (unit mm)*
G04 Created by KiCad (PCBNEW 9.0.0) date 2025-04-29 20:47:37*
%MOMM*%
%LPD*%
G01*
G04 APERTURE LIST*
%ADD10C,0.050000*%
%ADD11C,0.200000*%
%ADD12C,0.100000*%
%ADD13C,0.110000*%
%ADD14C,0.130000*%
G04 APERTURE END LIST*
D10*
X10672438Y-5179300D02*
G75*
G02*
X10872438Y-4979298I200003J0D01*
G01*
X10872438Y-14729300D02*
G75*
G02*
X10672440Y-14529300I3J200000D01*
G01*
X17172438Y-4979300D02*
G75*
G02*
X17372440Y-5179300I3J-200000D01*
G01*
X17372438Y-14529300D02*
G75*
G02*
X17172438Y-14729297I-199998J0D01*
G01*
X10672438Y-14529300D02*
X10672438Y-5179300D01*
X10872438Y-4979300D02*
X17172438Y-4979300D01*
X17172438Y-14729300D02*
X10872438Y-14729300D01*
X17372438Y-5179300D02*
X17372438Y-14529300D01*
D11*
D12*
X16102437Y-13709300D02*
X16142437Y-13749300D01*
X16142437Y-13709300D02*
X16102437Y-13749300D01*
X16102437Y-13679300D02*
X16102437Y-13779300D01*
X16142437Y-13779300D02*
G75*
G02*
X16102437Y-13779300I-20000J0D01*
G01*
X16142437Y-13779300D02*
X16142437Y-13679300D01*
X16142437Y-13679300D02*
G75*
G03*
X16102437Y-13679300I-20000J0D01*
G01*
X16602437Y-14209300D02*
X16642437Y-14249300D01*
X16642437Y-14209300D02*
X16602437Y-14249300D01*
X16572437Y-14249300D02*
X16672437Y-14249300D01*
X16672437Y-14209300D02*
G75*
G02*
X16672437Y-14249300I0J-20000D01*
G01*
X16672437Y-14209300D02*
X16572437Y-14209300D01*
X16572437Y-14209300D02*
G75*
G03*
X16572437Y-14249300I0J-20000D01*
G01*
X17102438Y-13709300D02*
X17142438Y-13749300D01*
X17142438Y-13709300D02*
X17102438Y-13749300D01*
X17142438Y-13779300D02*
X17142438Y-13679300D01*
X17102438Y-13679300D02*
G75*
G02*
X17142438Y-13679300I20000J0D01*
G01*
X17102438Y-13679300D02*
X17102438Y-13779300D01*
X17102438Y-13779300D02*
G75*
G03*
X17142438Y-13779300I20000J0D01*
G01*
X16837500Y-9555000D02*
G75*
G02*
X16762500Y-9555000I-37500J0D01*
G01*
X16762500Y-9555000D02*
G75*
G02*
X16837500Y-9555000I37500J0D01*
G01*
X17037500Y-9555000D02*
G75*
G02*
X16962500Y-9555000I-37500J0D01*
G01*
X16962500Y-9555000D02*
G75*
G02*
X17037500Y-9555000I37500J0D01*
G01*
X11410437Y-5239300D02*
X11410437Y-5319300D01*
X11370437Y-5279300D02*
X11450437Y-5279300D01*
X12172437Y-5239300D02*
X12172437Y-5319300D01*
X12132437Y-5279300D02*
X12212437Y-5279300D01*
X14694937Y-5164300D02*
X14694937Y-5244300D01*
X14654937Y-5204300D02*
X14734937Y-5204300D01*
X14694937Y-7464300D02*
X14694937Y-7544300D01*
X14654937Y-7504300D02*
X14734937Y-7504300D01*
X14994937Y-7464300D02*
X14994937Y-7544300D01*
X14954937Y-7504300D02*
X15034937Y-7504300D01*
X15744937Y-7464300D02*
X15744937Y-7544300D01*
X15704937Y-7504300D02*
X15784937Y-7504300D01*
X16044937Y-5164300D02*
X16044937Y-5244300D01*
X16004937Y-5204300D02*
X16084937Y-5204300D01*
X16044937Y-7464300D02*
X16044937Y-7544300D01*
X16004937Y-7504300D02*
X16084937Y-7504300D01*
X16372437Y-13689300D02*
X16372437Y-13769300D01*
X16332437Y-13729300D02*
X16412437Y-13729300D01*
X16332437Y-13694300D02*
X16332437Y-13764300D01*
X16412437Y-13764300D02*
G75*
G02*
X16332437Y-13764300I-40000J0D01*
G01*
X16412437Y-13764300D02*
X16412437Y-13694300D01*
X16412437Y-13694300D02*
G75*
G03*
X16332437Y-13694300I-40000J0D01*
G01*
X16872438Y-13689300D02*
X16872438Y-13769300D01*
X16832438Y-13729300D02*
X16912438Y-13729300D01*
X16912438Y-13764300D02*
X16912438Y-13694300D01*
X16832438Y-13694300D02*
G75*
G02*
X16912438Y-13694300I40000J0D01*
G01*
X16832438Y-13694300D02*
X16832438Y-13764300D01*
X16832438Y-13764300D02*
G75*
G03*
X16912438Y-13764300I40000J0D01*
G01*
X17136190Y-6986802D02*
X17136190Y-6916798D01*
X17066185Y-6916798D01*
X17066185Y-6986802D01*
X17136190Y-6986802D01*
X17136190Y-7436802D02*
X17136190Y-7366798D01*
X17066185Y-7366798D01*
X17066185Y-7436802D01*
X17136190Y-7436802D01*
X17136190Y-8036802D02*
X17136190Y-7966798D01*
X17066185Y-7966798D01*
X17066185Y-8036802D01*
X17136190Y-8036802D01*
X17136190Y-8486802D02*
X17136190Y-8416798D01*
X17066185Y-8416798D01*
X17066185Y-8486802D01*
X17136190Y-8486802D01*
X11867437Y-8766300D02*
X11917437Y-8716300D01*
X11867437Y-8666300D01*
X11817437Y-8716300D01*
X11867437Y-8766300D01*
X11867437Y-10290300D02*
X11917437Y-10240300D01*
X11867437Y-10190300D01*
X11817437Y-10240300D01*
X11867437Y-10290300D01*
X12121437Y-8766300D02*
X12171437Y-8716300D01*
X12121437Y-8666300D01*
X12071437Y-8716300D01*
X12121437Y-8766300D01*
X12121437Y-10290300D02*
X12171437Y-10240300D01*
X12121437Y-10190300D01*
X12071437Y-10240300D01*
X12121437Y-10290300D01*
X12220437Y-10779300D02*
X12270437Y-10729300D01*
X12220437Y-10679300D01*
X12170437Y-10729300D01*
X12220437Y-10779300D01*
X12220437Y-13065300D02*
X12270437Y-13015300D01*
X12220437Y-12965300D01*
X12170437Y-13015300D01*
X12220437Y-13065300D01*
X12375437Y-8766300D02*
X12425437Y-8716300D01*
X12375437Y-8666300D01*
X12325437Y-8716300D01*
X12375437Y-8766300D01*
X12375437Y-10290300D02*
X12425437Y-10240300D01*
X12375437Y-10190300D01*
X12325437Y-10240300D01*
X12375437Y-10290300D01*
X12474437Y-10779300D02*
X12524437Y-10729300D01*
X12474437Y-10679300D01*
X12424437Y-10729300D01*
X12474437Y-10779300D01*
X12474437Y-13065300D02*
X12524437Y-13015300D01*
X12474437Y-12965300D01*
X12424437Y-13015300D01*
X12474437Y-13065300D01*
X12629437Y-8766300D02*
X12679437Y-8716300D01*
X12629437Y-8666300D01*
X12579437Y-8716300D01*
X12629437Y-8766300D01*
X12629437Y-10290300D02*
X12679437Y-10240300D01*
X12629437Y-10190300D01*
X12579437Y-10240300D01*
X12629437Y-10290300D01*
X12728437Y-10779300D02*
X12778437Y-10729300D01*
X12728437Y-10679300D01*
X12678437Y-10729300D01*
X12728437Y-10779300D01*
X12728437Y-13065300D02*
X12778437Y-13015300D01*
X12728437Y-12965300D01*
X12678437Y-13015300D01*
X12728437Y-13065300D01*
X12883437Y-8766300D02*
X12933437Y-8716300D01*
X12883437Y-8666300D01*
X12833437Y-8716300D01*
X12883437Y-8766300D01*
X12883437Y-10290300D02*
X12933437Y-10240300D01*
X12883437Y-10190300D01*
X12833437Y-10240300D01*
X12883437Y-10290300D01*
X12982437Y-10779300D02*
X13032437Y-10729300D01*
X12982437Y-10679300D01*
X12932437Y-10729300D01*
X12982437Y-10779300D01*
X12982437Y-13065300D02*
X13032437Y-13015300D01*
X12982437Y-12965300D01*
X12932437Y-13015300D01*
X12982437Y-13065300D01*
X13137437Y-8766300D02*
X13187437Y-8716300D01*
X13137437Y-8666300D01*
X13087437Y-8716300D01*
X13137437Y-8766300D01*
X13137437Y-10290300D02*
X13187437Y-10240300D01*
X13137437Y-10190300D01*
X13087437Y-10240300D01*
X13137437Y-10290300D01*
X13236437Y-10779300D02*
X13286437Y-10729300D01*
X13236437Y-10679300D01*
X13186437Y-10729300D01*
X13236437Y-10779300D01*
X13236437Y-13065300D02*
X13286437Y-13015300D01*
X13236437Y-12965300D01*
X13186437Y-13015300D01*
X13236437Y-13065300D01*
X13391437Y-8766300D02*
X13441437Y-8716300D01*
X13391437Y-8666300D01*
X13341437Y-8716300D01*
X13391437Y-8766300D01*
X13391437Y-10290300D02*
X13441437Y-10240300D01*
X13391437Y-10190300D01*
X13341437Y-10240300D01*
X13391437Y-10290300D01*
X13490437Y-10779300D02*
X13540437Y-10729300D01*
X13490437Y-10679300D01*
X13440437Y-10729300D01*
X13490437Y-10779300D01*
X13490437Y-13065300D02*
X13540437Y-13015300D01*
X13490437Y-12965300D01*
X13440437Y-13015300D01*
X13490437Y-13065300D01*
X13610937Y-5275300D02*
X13660937Y-5225300D01*
X13610937Y-5175300D01*
X13560937Y-5225300D01*
X13610937Y-5275300D01*
X13610937Y-5529300D02*
X13660937Y-5479300D01*
X13610937Y-5429300D01*
X13560937Y-5479300D01*
X13610937Y-5529300D01*
X13610937Y-5783300D02*
X13660937Y-5733300D01*
X13610937Y-5683300D01*
X13560937Y-5733300D01*
X13610937Y-5783300D01*
X13610937Y-6037300D02*
X13660937Y-5987300D01*
X13610937Y-5937300D01*
X13560937Y-5987300D01*
X13610937Y-6037300D01*
X13645437Y-8766300D02*
X13695437Y-8716300D01*
X13645437Y-8666300D01*
X13595437Y-8716300D01*
X13645437Y-8766300D01*
X13645437Y-10290300D02*
X13695437Y-10240300D01*
X13645437Y-10190300D01*
X13595437Y-10240300D01*
X13645437Y-10290300D01*
X13744437Y-10779300D02*
X13794437Y-10729300D01*
X13744437Y-10679300D01*
X13694437Y-10729300D01*
X13744437Y-10779300D01*
X13744437Y-13065300D02*
X13794437Y-13015300D01*
X13744437Y-12965300D01*
X13694437Y-13015300D01*
X13744437Y-13065300D01*
X13899437Y-8766300D02*
X13949437Y-8716300D01*
X13899437Y-8666300D01*
X13849437Y-8716300D01*
X13899437Y-8766300D01*
X13899437Y-10290300D02*
X13949437Y-10240300D01*
X13899437Y-10190300D01*
X13849437Y-10240300D01*
X13899437Y-10290300D01*
X13998437Y-10779300D02*
X14048437Y-10729300D01*
X13998437Y-10679300D01*
X13948437Y-10729300D01*
X13998437Y-10779300D01*
X13998437Y-13065300D02*
X14048437Y-13015300D01*
X13998437Y-12965300D01*
X13948437Y-13015300D01*
X13998437Y-13065300D01*
X14153437Y-8766300D02*
X14203437Y-8716300D01*
X14153437Y-8666300D01*
X14103437Y-8716300D01*
X14153437Y-8766300D01*
X14153437Y-10290300D02*
X14203437Y-10240300D01*
X14153437Y-10190300D01*
X14103437Y-10240300D01*
X14153437Y-10290300D01*
X14252437Y-10779300D02*
X14302437Y-10729300D01*
X14252437Y-10679300D01*
X14202437Y-10729300D01*
X14252437Y-10779300D01*
X14252437Y-13065300D02*
X14302437Y-13015300D01*
X14252437Y-12965300D01*
X14202437Y-13015300D01*
X14252437Y-13065300D01*
X14407437Y-8766300D02*
X14457437Y-8716300D01*
X14407437Y-8666300D01*
X14357437Y-8716300D01*
X14407437Y-8766300D01*
X14407437Y-10290300D02*
X14457437Y-10240300D01*
X14407437Y-10190300D01*
X14357437Y-10240300D01*
X14407437Y-10290300D01*
X14506437Y-10779300D02*
X14556437Y-10729300D01*
X14506437Y-10679300D01*
X14456437Y-10729300D01*
X14506437Y-10779300D01*
X14506437Y-13065300D02*
X14556437Y-13015300D01*
X14506437Y-12965300D01*
X14456437Y-13015300D01*
X14506437Y-13065300D01*
X14661437Y-8766300D02*
X14711437Y-8716300D01*
X14661437Y-8666300D01*
X14611437Y-8716300D01*
X14661437Y-8766300D01*
X14661437Y-10290300D02*
X14711437Y-10240300D01*
X14661437Y-10190300D01*
X14611437Y-10240300D01*
X14661437Y-10290300D01*
X14760437Y-10779300D02*
X14810437Y-10729300D01*
X14760437Y-10679300D01*
X14710437Y-10729300D01*
X14760437Y-10779300D01*
X14760437Y-13065300D02*
X14810437Y-13015300D01*
X14760437Y-12965300D01*
X14710437Y-13015300D01*
X14760437Y-13065300D01*
X14915437Y-8766300D02*
X14965437Y-8716300D01*
X14915437Y-8666300D01*
X14865437Y-8716300D01*
X14915437Y-8766300D01*
X14915437Y-10290300D02*
X14965437Y-10240300D01*
X14915437Y-10190300D01*
X14865437Y-10240300D01*
X14915437Y-10290300D01*
X15014437Y-10779300D02*
X15064437Y-10729300D01*
X15014437Y-10679300D01*
X14964437Y-10729300D01*
X15014437Y-10779300D01*
X15014437Y-13065300D02*
X15064437Y-13015300D01*
X15014437Y-12965300D01*
X14964437Y-13015300D01*
X15014437Y-13065300D01*
X15169437Y-8766300D02*
X15219437Y-8716300D01*
X15169437Y-8666300D01*
X15119437Y-8716300D01*
X15169437Y-8766300D01*
X15169437Y-10290300D02*
X15219437Y-10240300D01*
X15169437Y-10190300D01*
X15119437Y-10240300D01*
X15169437Y-10290300D01*
X15268437Y-10779300D02*
X15318437Y-10729300D01*
X15268437Y-10679300D01*
X15218437Y-10729300D01*
X15268437Y-10779300D01*
X15268437Y-13065300D02*
X15318437Y-13015300D01*
X15268437Y-12965300D01*
X15218437Y-13015300D01*
X15268437Y-13065300D01*
X15423437Y-8766300D02*
X15473437Y-8716300D01*
X15423437Y-8666300D01*
X15373437Y-8716300D01*
X15423437Y-8766300D01*
X15423437Y-10290300D02*
X15473437Y-10240300D01*
X15423437Y-10190300D01*
X15373437Y-10240300D01*
X15423437Y-10290300D01*
X15522437Y-10779300D02*
X15572437Y-10729300D01*
X15522437Y-10679300D01*
X15472437Y-10729300D01*
X15522437Y-10779300D01*
X15522437Y-13065300D02*
X15572437Y-13015300D01*
X15522437Y-12965300D01*
X15472437Y-13015300D01*
X15522437Y-13065300D01*
X15776437Y-10779300D02*
X15826437Y-10729300D01*
X15776437Y-10679300D01*
X15726437Y-10729300D01*
X15776437Y-10779300D01*
X15776437Y-13065300D02*
X15826437Y-13015300D01*
X15776437Y-12965300D01*
X15726437Y-13015300D01*
X15776437Y-13065300D01*
X16030437Y-10779300D02*
X16080437Y-10729300D01*
X16030437Y-10679300D01*
X15980437Y-10729300D01*
X16030437Y-10779300D01*
X16030437Y-13065300D02*
X16080437Y-13015300D01*
X16030437Y-12965300D01*
X15980437Y-13015300D01*
X16030437Y-13065300D01*
D13*
X10917438Y-6958300D02*
X11027438Y-7068300D01*
X11027438Y-6958300D02*
X10917438Y-7068300D01*
X11027438Y-7013300D02*
G75*
G02*
X10917438Y-7013300I-55000J0D01*
G01*
X10917438Y-7013300D02*
G75*
G02*
X11027438Y-7013300I55000J0D01*
G01*
X10917438Y-7466300D02*
X11027438Y-7576300D01*
X11027438Y-7466300D02*
X10917438Y-7576300D01*
X11027438Y-7521300D02*
G75*
G02*
X10917438Y-7521300I-55000J0D01*
G01*
X10917438Y-7521300D02*
G75*
G02*
X11027438Y-7521300I55000J0D01*
G01*
X10917438Y-7974300D02*
X11027438Y-8084300D01*
X11027438Y-7974300D02*
X10917438Y-8084300D01*
X11027438Y-8029300D02*
G75*
G02*
X10917438Y-8029300I-55000J0D01*
G01*
X10917438Y-8029300D02*
G75*
G02*
X11027438Y-8029300I55000J0D01*
G01*
X12417437Y-13574300D02*
X12527437Y-13684300D01*
X12527437Y-13574300D02*
X12417437Y-13684300D01*
X12527437Y-13629300D02*
G75*
G02*
X12417437Y-13629300I-55000J0D01*
G01*
X12417437Y-13629300D02*
G75*
G02*
X12527437Y-13629300I55000J0D01*
G01*
X12417437Y-14024300D02*
X12527437Y-14134300D01*
X12527437Y-14024300D02*
X12417437Y-14134300D01*
X12527437Y-14079300D02*
G75*
G02*
X12417437Y-14079300I-55000J0D01*
G01*
X12417437Y-14079300D02*
G75*
G02*
X12527437Y-14079300I55000J0D01*
G01*
X13067437Y-13574300D02*
X13177437Y-13684300D01*
X13177437Y-13574300D02*
X13067437Y-13684300D01*
X13177437Y-13629300D02*
G75*
G02*
X13067437Y-13629300I-55000J0D01*
G01*
X13067437Y-13629300D02*
G75*
G02*
X13177437Y-13629300I55000J0D01*
G01*
X13067437Y-14024300D02*
X13177437Y-14134300D01*
X13177437Y-14024300D02*
X13067437Y-14134300D01*
X13177437Y-14079300D02*
G75*
G02*
X13067437Y-14079300I-55000J0D01*
G01*
X13067437Y-14079300D02*
G75*
G02*
X13177437Y-14079300I55000J0D01*
G01*
X13617437Y-13574300D02*
X13727437Y-13684300D01*
X13727437Y-13574300D02*
X13617437Y-13684300D01*
X13727437Y-13629300D02*
G75*
G02*
X13617437Y-13629300I-55000J0D01*
G01*
X13617437Y-13629300D02*
G75*
G02*
X13727437Y-13629300I55000J0D01*
G01*
X13617437Y-14024300D02*
X13727437Y-14134300D01*
X13727437Y-14024300D02*
X13617437Y-14134300D01*
X13727437Y-14079300D02*
G75*
G02*
X13617437Y-14079300I-55000J0D01*
G01*
X13617437Y-14079300D02*
G75*
G02*
X13727437Y-14079300I55000J0D01*
G01*
X14267437Y-13574300D02*
X14377437Y-13684300D01*
X14377437Y-13574300D02*
X14267437Y-13684300D01*
X14377437Y-13629300D02*
G75*
G02*
X14267437Y-13629300I-55000J0D01*
G01*
X14267437Y-13629300D02*
G75*
G02*
X14377437Y-13629300I55000J0D01*
G01*
X14267437Y-14024300D02*
X14377437Y-14134300D01*
X14377437Y-14024300D02*
X14267437Y-14134300D01*
X14377437Y-14079300D02*
G75*
G02*
X14267437Y-14079300I-55000J0D01*
G01*
X14267437Y-14079300D02*
G75*
G02*
X14377437Y-14079300I55000J0D01*
G01*
X14817437Y-13574300D02*
X14927437Y-13684300D01*
X14927437Y-13574300D02*
X14817437Y-13684300D01*
X14927437Y-13629300D02*
G75*
G02*
X14817437Y-13629300I-55000J0D01*
G01*
X14817437Y-13629300D02*
G75*
G02*
X14927437Y-13629300I55000J0D01*
G01*
X14817437Y-14024300D02*
X14927437Y-14134300D01*
X14927437Y-14024300D02*
X14817437Y-14134300D01*
X14927437Y-14079300D02*
G75*
G02*
X14817437Y-14079300I-55000J0D01*
G01*
X14817437Y-14079300D02*
G75*
G02*
X14927437Y-14079300I55000J0D01*
G01*
X15467437Y-13574300D02*
X15577437Y-13684300D01*
X15577437Y-13574300D02*
X15467437Y-13684300D01*
X15577437Y-13629300D02*
G75*
G02*
X15467437Y-13629300I-55000J0D01*
G01*
X15467437Y-13629300D02*
G75*
G02*
X15577437Y-13629300I55000J0D01*
G01*
X15467437Y-14024300D02*
X15577437Y-14134300D01*
X15577437Y-14024300D02*
X15467437Y-14134300D01*
X15577437Y-14079300D02*
G75*
G02*
X15467437Y-14079300I-55000J0D01*
G01*
X15467437Y-14079300D02*
G75*
G02*
X15577437Y-14079300I55000J0D01*
G01*
D14*
X16787188Y-6761800D02*
X16917188Y-6891800D01*
X16917188Y-6761800D02*
X16787188Y-6891800D01*
X16852188Y-6761800D02*
X16852188Y-6891800D01*
X16787188Y-6826800D02*
X16917188Y-6826800D01*
X16787188Y-7462800D02*
X16917188Y-7592800D01*
X16917188Y-7462800D02*
X16787188Y-7592800D01*
X16852188Y-7462800D02*
X16852188Y-7592800D01*
X16787188Y-7527800D02*
X16917188Y-7527800D01*
X16787188Y-7811800D02*
X16917188Y-7941800D01*
X16917188Y-7811800D02*
X16787188Y-7941800D01*
X16852188Y-7811800D02*
X16852188Y-7941800D01*
X16787188Y-7876800D02*
X16917188Y-7876800D01*
X16787188Y-8512800D02*
X16917188Y-8642800D01*
X16917188Y-8512800D02*
X16787188Y-8642800D01*
X16852188Y-8512800D02*
X16852188Y-8642800D01*
X16787188Y-8577800D02*
X16917188Y-8577800D01*
D11*
X11422437Y-6629300D02*
X11622437Y-6829300D01*
X11622437Y-6629300D02*
X11422437Y-6829300D01*
X11593149Y-6800011D02*
X11593149Y-6658589D01*
X11451726Y-6658589D01*
X11451726Y-6800011D01*
X11593149Y-6800011D01*
X11422437Y-8029300D02*
X11622437Y-8229300D01*
X11622437Y-8029300D02*
X11422437Y-8229300D01*
X11593149Y-8200011D02*
X11593149Y-8058589D01*
X11451726Y-8058589D01*
X11451726Y-8200011D01*
X11593149Y-8200011D01*
X14122437Y-6629300D02*
X14322437Y-6829300D01*
X14322437Y-6629300D02*
X14122437Y-6829300D01*
X14293149Y-6800011D02*
X14293149Y-6658589D01*
X14151726Y-6658589D01*
X14151726Y-6800011D01*
X14293149Y-6800011D01*
X14122437Y-8029300D02*
X14322437Y-8229300D01*
X14322437Y-8029300D02*
X14122437Y-8229300D01*
X14293149Y-8200011D02*
X14293149Y-8058589D01*
X14151726Y-8058589D01*
X14151726Y-8200011D01*
X14293149Y-8200011D01*
X10930714Y-15043284D02*
X10930714Y-14843284D01*
X10930714Y-14843284D02*
X10978333Y-14843284D01*
X10978333Y-14843284D02*
X11006905Y-14852808D01*
X11006905Y-14852808D02*
X11025952Y-14871855D01*
X11025952Y-14871855D02*
X11035476Y-14890903D01*
X11035476Y-14890903D02*
X11045000Y-14928998D01*
X11045000Y-14928998D02*
X11045000Y-14957569D01*
X11045000Y-14957569D02*
X11035476Y-14995665D01*
X11035476Y-14995665D02*
X11025952Y-15014712D01*
X11025952Y-15014712D02*
X11006905Y-15033760D01*
X11006905Y-15033760D02*
X10978333Y-15043284D01*
X10978333Y-15043284D02*
X10930714Y-15043284D01*
X11130714Y-15043284D02*
X11130714Y-14909950D01*
X11130714Y-14948046D02*
X11140238Y-14928998D01*
X11140238Y-14928998D02*
X11149762Y-14919474D01*
X11149762Y-14919474D02*
X11168810Y-14909950D01*
X11168810Y-14909950D02*
X11187857Y-14909950D01*
X11254524Y-15043284D02*
X11254524Y-14909950D01*
X11254524Y-14843284D02*
X11245000Y-14852808D01*
X11245000Y-14852808D02*
X11254524Y-14862331D01*
X11254524Y-14862331D02*
X11264048Y-14852808D01*
X11264048Y-14852808D02*
X11254524Y-14843284D01*
X11254524Y-14843284D02*
X11254524Y-14862331D01*
X11378333Y-15043284D02*
X11359286Y-15033760D01*
X11359286Y-15033760D02*
X11349762Y-15014712D01*
X11349762Y-15014712D02*
X11349762Y-14843284D01*
X11483095Y-15043284D02*
X11464048Y-15033760D01*
X11464048Y-15033760D02*
X11454524Y-15014712D01*
X11454524Y-15014712D02*
X11454524Y-14843284D01*
X11711667Y-15043284D02*
X11711667Y-14843284D01*
X11711667Y-14843284D02*
X11778333Y-14986141D01*
X11778333Y-14986141D02*
X11845000Y-14843284D01*
X11845000Y-14843284D02*
X11845000Y-15043284D01*
X12025952Y-15043284D02*
X12025952Y-14938522D01*
X12025952Y-14938522D02*
X12016429Y-14919474D01*
X12016429Y-14919474D02*
X11997381Y-14909950D01*
X11997381Y-14909950D02*
X11959286Y-14909950D01*
X11959286Y-14909950D02*
X11940238Y-14919474D01*
X12025952Y-15033760D02*
X12006905Y-15043284D01*
X12006905Y-15043284D02*
X11959286Y-15043284D01*
X11959286Y-15043284D02*
X11940238Y-15033760D01*
X11940238Y-15033760D02*
X11930714Y-15014712D01*
X11930714Y-15014712D02*
X11930714Y-14995665D01*
X11930714Y-14995665D02*
X11940238Y-14976617D01*
X11940238Y-14976617D02*
X11959286Y-14967093D01*
X11959286Y-14967093D02*
X12006905Y-14967093D01*
X12006905Y-14967093D02*
X12025952Y-14957569D01*
X12121190Y-14909950D02*
X12121190Y-15109950D01*
X12121190Y-14919474D02*
X12140238Y-14909950D01*
X12140238Y-14909950D02*
X12178333Y-14909950D01*
X12178333Y-14909950D02*
X12197381Y-14919474D01*
X12197381Y-14919474D02*
X12206905Y-14928998D01*
X12206905Y-14928998D02*
X12216429Y-14948046D01*
X12216429Y-14948046D02*
X12216429Y-15005188D01*
X12216429Y-15005188D02*
X12206905Y-15024236D01*
X12206905Y-15024236D02*
X12197381Y-15033760D01*
X12197381Y-15033760D02*
X12178333Y-15043284D01*
X12178333Y-15043284D02*
X12140238Y-15043284D01*
X12140238Y-15043284D02*
X12121190Y-15033760D01*
X12302143Y-15024236D02*
X12311667Y-15033760D01*
X12311667Y-15033760D02*
X12302143Y-15043284D01*
X12302143Y-15043284D02*
X12292619Y-15033760D01*
X12292619Y-15033760D02*
X12302143Y-15024236D01*
X12302143Y-15024236D02*
X12302143Y-15043284D01*
X12302143Y-14919474D02*
X12311667Y-14928998D01*
X12311667Y-14928998D02*
X12302143Y-14938522D01*
X12302143Y-14938522D02*
X12292619Y-14928998D01*
X12292619Y-14928998D02*
X12302143Y-14919474D01*
X12302143Y-14919474D02*
X12302143Y-14938522D01*
D12*
X10629938Y-15351800D02*
X10669938Y-15391800D01*
X10669938Y-15351800D02*
X10629938Y-15391800D01*
D11*
X10968810Y-15263284D02*
X10987857Y-15263284D01*
X10987857Y-15263284D02*
X11006905Y-15272808D01*
X11006905Y-15272808D02*
X11016429Y-15282331D01*
X11016429Y-15282331D02*
X11025952Y-15301379D01*
X11025952Y-15301379D02*
X11035476Y-15339474D01*
X11035476Y-15339474D02*
X11035476Y-15387093D01*
X11035476Y-15387093D02*
X11025952Y-15425188D01*
X11025952Y-15425188D02*
X11016429Y-15444236D01*
X11016429Y-15444236D02*
X11006905Y-15453760D01*
X11006905Y-15453760D02*
X10987857Y-15463284D01*
X10987857Y-15463284D02*
X10968810Y-15463284D01*
X10968810Y-15463284D02*
X10949762Y-15453760D01*
X10949762Y-15453760D02*
X10940238Y-15444236D01*
X10940238Y-15444236D02*
X10930714Y-15425188D01*
X10930714Y-15425188D02*
X10921191Y-15387093D01*
X10921191Y-15387093D02*
X10921191Y-15339474D01*
X10921191Y-15339474D02*
X10930714Y-15301379D01*
X10930714Y-15301379D02*
X10940238Y-15282331D01*
X10940238Y-15282331D02*
X10949762Y-15272808D01*
X10949762Y-15272808D02*
X10968810Y-15263284D01*
X11121191Y-15444236D02*
X11130714Y-15453760D01*
X11130714Y-15453760D02*
X11121191Y-15463284D01*
X11121191Y-15463284D02*
X11111667Y-15453760D01*
X11111667Y-15453760D02*
X11121191Y-15444236D01*
X11121191Y-15444236D02*
X11121191Y-15463284D01*
X11302143Y-15329950D02*
X11302143Y-15463284D01*
X11254524Y-15253760D02*
X11206905Y-15396617D01*
X11206905Y-15396617D02*
X11330714Y-15396617D01*
X11445000Y-15263284D02*
X11464048Y-15263284D01*
X11464048Y-15263284D02*
X11483095Y-15272808D01*
X11483095Y-15272808D02*
X11492619Y-15282331D01*
X11492619Y-15282331D02*
X11502143Y-15301379D01*
X11502143Y-15301379D02*
X11511667Y-15339474D01*
X11511667Y-15339474D02*
X11511667Y-15387093D01*
X11511667Y-15387093D02*
X11502143Y-15425188D01*
X11502143Y-15425188D02*
X11492619Y-15444236D01*
X11492619Y-15444236D02*
X11483095Y-15453760D01*
X11483095Y-15453760D02*
X11464048Y-15463284D01*
X11464048Y-15463284D02*
X11445000Y-15463284D01*
X11445000Y-15463284D02*
X11425952Y-15453760D01*
X11425952Y-15453760D02*
X11416429Y-15444236D01*
X11416429Y-15444236D02*
X11406905Y-15425188D01*
X11406905Y-15425188D02*
X11397381Y-15387093D01*
X11397381Y-15387093D02*
X11397381Y-15339474D01*
X11397381Y-15339474D02*
X11406905Y-15301379D01*
X11406905Y-15301379D02*
X11416429Y-15282331D01*
X11416429Y-15282331D02*
X11425952Y-15272808D01*
X11425952Y-15272808D02*
X11445000Y-15263284D01*
X11635476Y-15263284D02*
X11654524Y-15263284D01*
X11654524Y-15263284D02*
X11673571Y-15272808D01*
X11673571Y-15272808D02*
X11683095Y-15282331D01*
X11683095Y-15282331D02*
X11692619Y-15301379D01*
X11692619Y-15301379D02*
X11702143Y-15339474D01*
X11702143Y-15339474D02*
X11702143Y-15387093D01*
X11702143Y-15387093D02*
X11692619Y-15425188D01*
X11692619Y-15425188D02*
X11683095Y-15444236D01*
X11683095Y-15444236D02*
X11673571Y-15453760D01*
X11673571Y-15453760D02*
X11654524Y-15463284D01*
X11654524Y-15463284D02*
X11635476Y-15463284D01*
X11635476Y-15463284D02*
X11616429Y-15453760D01*
X11616429Y-15453760D02*
X11606905Y-15444236D01*
X11606905Y-15444236D02*
X11597381Y-15425188D01*
X11597381Y-15425188D02*
X11587857Y-15387093D01*
X11587857Y-15387093D02*
X11587857Y-15339474D01*
X11587857Y-15339474D02*
X11597381Y-15301379D01*
X11597381Y-15301379D02*
X11606905Y-15282331D01*
X11606905Y-15282331D02*
X11616429Y-15272808D01*
X11616429Y-15272808D02*
X11635476Y-15263284D01*
X11787857Y-15463284D02*
X11787857Y-15329950D01*
X11787857Y-15348998D02*
X11797381Y-15339474D01*
X11797381Y-15339474D02*
X11816429Y-15329950D01*
X11816429Y-15329950D02*
X11845000Y-15329950D01*
X11845000Y-15329950D02*
X11864048Y-15339474D01*
X11864048Y-15339474D02*
X11873571Y-15358522D01*
X11873571Y-15358522D02*
X11873571Y-15463284D01*
X11873571Y-15358522D02*
X11883095Y-15339474D01*
X11883095Y-15339474D02*
X11902143Y-15329950D01*
X11902143Y-15329950D02*
X11930714Y-15329950D01*
X11930714Y-15329950D02*
X11949762Y-15339474D01*
X11949762Y-15339474D02*
X11959286Y-15358522D01*
X11959286Y-15358522D02*
X11959286Y-15463284D01*
X12054524Y-15463284D02*
X12054524Y-15329950D01*
X12054524Y-15348998D02*
X12064048Y-15339474D01*
X12064048Y-15339474D02*
X12083095Y-15329950D01*
X12083095Y-15329950D02*
X12111667Y-15329950D01*
X12111667Y-15329950D02*
X12130714Y-15339474D01*
X12130714Y-15339474D02*
X12140238Y-15358522D01*
X12140238Y-15358522D02*
X12140238Y-15463284D01*
X12140238Y-15358522D02*
X12149762Y-15339474D01*
X12149762Y-15339474D02*
X12168810Y-15329950D01*
X12168810Y-15329950D02*
X12197381Y-15329950D01*
X12197381Y-15329950D02*
X12216429Y-15339474D01*
X12216429Y-15339474D02*
X12225952Y-15358522D01*
X12225952Y-15358522D02*
X12225952Y-15463284D01*
X12616429Y-15253760D02*
X12445000Y-15510903D01*
X12873572Y-15263284D02*
X12892619Y-15263284D01*
X12892619Y-15263284D02*
X12911667Y-15272808D01*
X12911667Y-15272808D02*
X12921191Y-15282331D01*
X12921191Y-15282331D02*
X12930714Y-15301379D01*
X12930714Y-15301379D02*
X12940238Y-15339474D01*
X12940238Y-15339474D02*
X12940238Y-15387093D01*
X12940238Y-15387093D02*
X12930714Y-15425188D01*
X12930714Y-15425188D02*
X12921191Y-15444236D01*
X12921191Y-15444236D02*
X12911667Y-15453760D01*
X12911667Y-15453760D02*
X12892619Y-15463284D01*
X12892619Y-15463284D02*
X12873572Y-15463284D01*
X12873572Y-15463284D02*
X12854524Y-15453760D01*
X12854524Y-15453760D02*
X12845000Y-15444236D01*
X12845000Y-15444236D02*
X12835476Y-15425188D01*
X12835476Y-15425188D02*
X12825953Y-15387093D01*
X12825953Y-15387093D02*
X12825953Y-15339474D01*
X12825953Y-15339474D02*
X12835476Y-15301379D01*
X12835476Y-15301379D02*
X12845000Y-15282331D01*
X12845000Y-15282331D02*
X12854524Y-15272808D01*
X12854524Y-15272808D02*
X12873572Y-15263284D01*
X13025953Y-15444236D02*
X13035476Y-15453760D01*
X13035476Y-15453760D02*
X13025953Y-15463284D01*
X13025953Y-15463284D02*
X13016429Y-15453760D01*
X13016429Y-15453760D02*
X13025953Y-15444236D01*
X13025953Y-15444236D02*
X13025953Y-15463284D01*
X13159286Y-15263284D02*
X13178334Y-15263284D01*
X13178334Y-15263284D02*
X13197381Y-15272808D01*
X13197381Y-15272808D02*
X13206905Y-15282331D01*
X13206905Y-15282331D02*
X13216429Y-15301379D01*
X13216429Y-15301379D02*
X13225953Y-15339474D01*
X13225953Y-15339474D02*
X13225953Y-15387093D01*
X13225953Y-15387093D02*
X13216429Y-15425188D01*
X13216429Y-15425188D02*
X13206905Y-15444236D01*
X13206905Y-15444236D02*
X13197381Y-15453760D01*
X13197381Y-15453760D02*
X13178334Y-15463284D01*
X13178334Y-15463284D02*
X13159286Y-15463284D01*
X13159286Y-15463284D02*
X13140238Y-15453760D01*
X13140238Y-15453760D02*
X13130714Y-15444236D01*
X13130714Y-15444236D02*
X13121191Y-15425188D01*
X13121191Y-15425188D02*
X13111667Y-15387093D01*
X13111667Y-15387093D02*
X13111667Y-15339474D01*
X13111667Y-15339474D02*
X13121191Y-15301379D01*
X13121191Y-15301379D02*
X13130714Y-15282331D01*
X13130714Y-15282331D02*
X13140238Y-15272808D01*
X13140238Y-15272808D02*
X13159286Y-15263284D01*
X13416429Y-15463284D02*
X13302143Y-15463284D01*
X13359286Y-15463284D02*
X13359286Y-15263284D01*
X13359286Y-15263284D02*
X13340238Y-15291855D01*
X13340238Y-15291855D02*
X13321191Y-15310903D01*
X13321191Y-15310903D02*
X13302143Y-15320427D01*
X13597381Y-15263284D02*
X13502143Y-15263284D01*
X13502143Y-15263284D02*
X13492619Y-15358522D01*
X13492619Y-15358522D02*
X13502143Y-15348998D01*
X13502143Y-15348998D02*
X13521191Y-15339474D01*
X13521191Y-15339474D02*
X13568810Y-15339474D01*
X13568810Y-15339474D02*
X13587857Y-15348998D01*
X13587857Y-15348998D02*
X13597381Y-15358522D01*
X13597381Y-15358522D02*
X13606905Y-15377569D01*
X13606905Y-15377569D02*
X13606905Y-15425188D01*
X13606905Y-15425188D02*
X13597381Y-15444236D01*
X13597381Y-15444236D02*
X13587857Y-15453760D01*
X13587857Y-15453760D02*
X13568810Y-15463284D01*
X13568810Y-15463284D02*
X13521191Y-15463284D01*
X13521191Y-15463284D02*
X13502143Y-15453760D01*
X13502143Y-15453760D02*
X13492619Y-15444236D01*
X13673572Y-15263284D02*
X13806905Y-15263284D01*
X13806905Y-15263284D02*
X13721191Y-15463284D01*
X13873572Y-15263284D02*
X13873572Y-15301379D01*
X13949762Y-15263284D02*
X13949762Y-15301379D01*
X14245000Y-15539474D02*
X14235476Y-15529950D01*
X14235476Y-15529950D02*
X14216429Y-15501379D01*
X14216429Y-15501379D02*
X14206905Y-15482331D01*
X14206905Y-15482331D02*
X14197381Y-15453760D01*
X14197381Y-15453760D02*
X14187857Y-15406141D01*
X14187857Y-15406141D02*
X14187857Y-15368046D01*
X14187857Y-15368046D02*
X14197381Y-15320427D01*
X14197381Y-15320427D02*
X14206905Y-15291855D01*
X14206905Y-15291855D02*
X14216429Y-15272808D01*
X14216429Y-15272808D02*
X14235476Y-15244236D01*
X14235476Y-15244236D02*
X14245000Y-15234712D01*
X14359286Y-15263284D02*
X14378334Y-15263284D01*
X14378334Y-15263284D02*
X14397381Y-15272808D01*
X14397381Y-15272808D02*
X14406905Y-15282331D01*
X14406905Y-15282331D02*
X14416429Y-15301379D01*
X14416429Y-15301379D02*
X14425953Y-15339474D01*
X14425953Y-15339474D02*
X14425953Y-15387093D01*
X14425953Y-15387093D02*
X14416429Y-15425188D01*
X14416429Y-15425188D02*
X14406905Y-15444236D01*
X14406905Y-15444236D02*
X14397381Y-15453760D01*
X14397381Y-15453760D02*
X14378334Y-15463284D01*
X14378334Y-15463284D02*
X14359286Y-15463284D01*
X14359286Y-15463284D02*
X14340238Y-15453760D01*
X14340238Y-15453760D02*
X14330715Y-15444236D01*
X14330715Y-15444236D02*
X14321191Y-15425188D01*
X14321191Y-15425188D02*
X14311667Y-15387093D01*
X14311667Y-15387093D02*
X14311667Y-15339474D01*
X14311667Y-15339474D02*
X14321191Y-15301379D01*
X14321191Y-15301379D02*
X14330715Y-15282331D01*
X14330715Y-15282331D02*
X14340238Y-15272808D01*
X14340238Y-15272808D02*
X14359286Y-15263284D01*
X14664048Y-15463284D02*
X14664048Y-15263284D01*
X14749762Y-15463284D02*
X14749762Y-15358522D01*
X14749762Y-15358522D02*
X14740238Y-15339474D01*
X14740238Y-15339474D02*
X14721191Y-15329950D01*
X14721191Y-15329950D02*
X14692619Y-15329950D01*
X14692619Y-15329950D02*
X14673572Y-15339474D01*
X14673572Y-15339474D02*
X14664048Y-15348998D01*
X14873572Y-15463284D02*
X14854524Y-15453760D01*
X14854524Y-15453760D02*
X14845000Y-15444236D01*
X14845000Y-15444236D02*
X14835477Y-15425188D01*
X14835477Y-15425188D02*
X14835477Y-15368046D01*
X14835477Y-15368046D02*
X14845000Y-15348998D01*
X14845000Y-15348998D02*
X14854524Y-15339474D01*
X14854524Y-15339474D02*
X14873572Y-15329950D01*
X14873572Y-15329950D02*
X14902143Y-15329950D01*
X14902143Y-15329950D02*
X14921191Y-15339474D01*
X14921191Y-15339474D02*
X14930715Y-15348998D01*
X14930715Y-15348998D02*
X14940238Y-15368046D01*
X14940238Y-15368046D02*
X14940238Y-15425188D01*
X14940238Y-15425188D02*
X14930715Y-15444236D01*
X14930715Y-15444236D02*
X14921191Y-15453760D01*
X14921191Y-15453760D02*
X14902143Y-15463284D01*
X14902143Y-15463284D02*
X14873572Y-15463284D01*
X15054524Y-15463284D02*
X15035477Y-15453760D01*
X15035477Y-15453760D02*
X15025953Y-15434712D01*
X15025953Y-15434712D02*
X15025953Y-15263284D01*
X15206905Y-15453760D02*
X15187858Y-15463284D01*
X15187858Y-15463284D02*
X15149762Y-15463284D01*
X15149762Y-15463284D02*
X15130715Y-15453760D01*
X15130715Y-15453760D02*
X15121191Y-15434712D01*
X15121191Y-15434712D02*
X15121191Y-15358522D01*
X15121191Y-15358522D02*
X15130715Y-15339474D01*
X15130715Y-15339474D02*
X15149762Y-15329950D01*
X15149762Y-15329950D02*
X15187858Y-15329950D01*
X15187858Y-15329950D02*
X15206905Y-15339474D01*
X15206905Y-15339474D02*
X15216429Y-15358522D01*
X15216429Y-15358522D02*
X15216429Y-15377569D01*
X15216429Y-15377569D02*
X15121191Y-15396617D01*
X15292619Y-15453760D02*
X15311667Y-15463284D01*
X15311667Y-15463284D02*
X15349762Y-15463284D01*
X15349762Y-15463284D02*
X15368810Y-15453760D01*
X15368810Y-15453760D02*
X15378334Y-15434712D01*
X15378334Y-15434712D02*
X15378334Y-15425188D01*
X15378334Y-15425188D02*
X15368810Y-15406141D01*
X15368810Y-15406141D02*
X15349762Y-15396617D01*
X15349762Y-15396617D02*
X15321191Y-15396617D01*
X15321191Y-15396617D02*
X15302143Y-15387093D01*
X15302143Y-15387093D02*
X15292619Y-15368046D01*
X15292619Y-15368046D02*
X15292619Y-15358522D01*
X15292619Y-15358522D02*
X15302143Y-15339474D01*
X15302143Y-15339474D02*
X15321191Y-15329950D01*
X15321191Y-15329950D02*
X15349762Y-15329950D01*
X15349762Y-15329950D02*
X15368810Y-15339474D01*
X15616429Y-15387093D02*
X15768810Y-15387093D01*
X15692620Y-15463284D02*
X15692620Y-15310903D01*
X15997381Y-15263284D02*
X16121191Y-15263284D01*
X16121191Y-15263284D02*
X16054524Y-15339474D01*
X16054524Y-15339474D02*
X16083096Y-15339474D01*
X16083096Y-15339474D02*
X16102143Y-15348998D01*
X16102143Y-15348998D02*
X16111667Y-15358522D01*
X16111667Y-15358522D02*
X16121191Y-15377569D01*
X16121191Y-15377569D02*
X16121191Y-15425188D01*
X16121191Y-15425188D02*
X16111667Y-15444236D01*
X16111667Y-15444236D02*
X16102143Y-15453760D01*
X16102143Y-15453760D02*
X16083096Y-15463284D01*
X16083096Y-15463284D02*
X16025953Y-15463284D01*
X16025953Y-15463284D02*
X16006905Y-15453760D01*
X16006905Y-15453760D02*
X15997381Y-15444236D01*
X16349762Y-15453760D02*
X16368810Y-15463284D01*
X16368810Y-15463284D02*
X16406905Y-15463284D01*
X16406905Y-15463284D02*
X16425953Y-15453760D01*
X16425953Y-15453760D02*
X16435477Y-15434712D01*
X16435477Y-15434712D02*
X16435477Y-15425188D01*
X16435477Y-15425188D02*
X16425953Y-15406141D01*
X16425953Y-15406141D02*
X16406905Y-15396617D01*
X16406905Y-15396617D02*
X16378334Y-15396617D01*
X16378334Y-15396617D02*
X16359286Y-15387093D01*
X16359286Y-15387093D02*
X16349762Y-15368046D01*
X16349762Y-15368046D02*
X16349762Y-15358522D01*
X16349762Y-15358522D02*
X16359286Y-15339474D01*
X16359286Y-15339474D02*
X16378334Y-15329950D01*
X16378334Y-15329950D02*
X16406905Y-15329950D01*
X16406905Y-15329950D02*
X16425953Y-15339474D01*
X16549762Y-15463284D02*
X16530715Y-15453760D01*
X16530715Y-15453760D02*
X16521191Y-15434712D01*
X16521191Y-15434712D02*
X16521191Y-15263284D01*
X16654524Y-15463284D02*
X16635477Y-15453760D01*
X16635477Y-15453760D02*
X16625953Y-15444236D01*
X16625953Y-15444236D02*
X16616429Y-15425188D01*
X16616429Y-15425188D02*
X16616429Y-15368046D01*
X16616429Y-15368046D02*
X16625953Y-15348998D01*
X16625953Y-15348998D02*
X16635477Y-15339474D01*
X16635477Y-15339474D02*
X16654524Y-15329950D01*
X16654524Y-15329950D02*
X16683096Y-15329950D01*
X16683096Y-15329950D02*
X16702143Y-15339474D01*
X16702143Y-15339474D02*
X16711667Y-15348998D01*
X16711667Y-15348998D02*
X16721191Y-15368046D01*
X16721191Y-15368046D02*
X16721191Y-15425188D01*
X16721191Y-15425188D02*
X16711667Y-15444236D01*
X16711667Y-15444236D02*
X16702143Y-15453760D01*
X16702143Y-15453760D02*
X16683096Y-15463284D01*
X16683096Y-15463284D02*
X16654524Y-15463284D01*
X16778334Y-15329950D02*
X16854524Y-15329950D01*
X16806905Y-15263284D02*
X16806905Y-15434712D01*
X16806905Y-15434712D02*
X16816429Y-15453760D01*
X16816429Y-15453760D02*
X16835477Y-15463284D01*
X16835477Y-15463284D02*
X16854524Y-15463284D01*
X16911667Y-15453760D02*
X16930715Y-15463284D01*
X16930715Y-15463284D02*
X16968810Y-15463284D01*
X16968810Y-15463284D02*
X16987858Y-15453760D01*
X16987858Y-15453760D02*
X16997382Y-15434712D01*
X16997382Y-15434712D02*
X16997382Y-15425188D01*
X16997382Y-15425188D02*
X16987858Y-15406141D01*
X16987858Y-15406141D02*
X16968810Y-15396617D01*
X16968810Y-15396617D02*
X16940239Y-15396617D01*
X16940239Y-15396617D02*
X16921191Y-15387093D01*
X16921191Y-15387093D02*
X16911667Y-15368046D01*
X16911667Y-15368046D02*
X16911667Y-15358522D01*
X16911667Y-15358522D02*
X16921191Y-15339474D01*
X16921191Y-15339474D02*
X16940239Y-15329950D01*
X16940239Y-15329950D02*
X16968810Y-15329950D01*
X16968810Y-15329950D02*
X16987858Y-15339474D01*
X17064048Y-15539474D02*
X17073572Y-15529950D01*
X17073572Y-15529950D02*
X17092620Y-15501379D01*
X17092620Y-15501379D02*
X17102144Y-15482331D01*
X17102144Y-15482331D02*
X17111667Y-15453760D01*
X17111667Y-15453760D02*
X17121191Y-15406141D01*
X17121191Y-15406141D02*
X17121191Y-15368046D01*
X17121191Y-15368046D02*
X17111667Y-15320427D01*
X17111667Y-15320427D02*
X17102144Y-15291855D01*
X17102144Y-15291855D02*
X17092620Y-15272808D01*
X17092620Y-15272808D02*
X17073572Y-15244236D01*
X17073572Y-15244236D02*
X17064048Y-15234712D01*
D12*
X10669938Y-15635800D02*
G75*
G02*
X10594938Y-15635800I-37500J0D01*
G01*
X10594938Y-15635800D02*
G75*
G02*
X10669938Y-15635800I37500J0D01*
G01*
D11*
X10968810Y-15527284D02*
X10987857Y-15527284D01*
X10987857Y-15527284D02*
X11006905Y-15536808D01*
X11006905Y-15536808D02*
X11016429Y-15546331D01*
X11016429Y-15546331D02*
X11025952Y-15565379D01*
X11025952Y-15565379D02*
X11035476Y-15603474D01*
X11035476Y-15603474D02*
X11035476Y-15651093D01*
X11035476Y-15651093D02*
X11025952Y-15689188D01*
X11025952Y-15689188D02*
X11016429Y-15708236D01*
X11016429Y-15708236D02*
X11006905Y-15717760D01*
X11006905Y-15717760D02*
X10987857Y-15727284D01*
X10987857Y-15727284D02*
X10968810Y-15727284D01*
X10968810Y-15727284D02*
X10949762Y-15717760D01*
X10949762Y-15717760D02*
X10940238Y-15708236D01*
X10940238Y-15708236D02*
X10930714Y-15689188D01*
X10930714Y-15689188D02*
X10921191Y-15651093D01*
X10921191Y-15651093D02*
X10921191Y-15603474D01*
X10921191Y-15603474D02*
X10930714Y-15565379D01*
X10930714Y-15565379D02*
X10940238Y-15546331D01*
X10940238Y-15546331D02*
X10949762Y-15536808D01*
X10949762Y-15536808D02*
X10968810Y-15527284D01*
X11121191Y-15708236D02*
X11130714Y-15717760D01*
X11130714Y-15717760D02*
X11121191Y-15727284D01*
X11121191Y-15727284D02*
X11111667Y-15717760D01*
X11111667Y-15717760D02*
X11121191Y-15708236D01*
X11121191Y-15708236D02*
X11121191Y-15727284D01*
X11197381Y-15527284D02*
X11330714Y-15527284D01*
X11330714Y-15527284D02*
X11245000Y-15727284D01*
X11502143Y-15527284D02*
X11406905Y-15527284D01*
X11406905Y-15527284D02*
X11397381Y-15622522D01*
X11397381Y-15622522D02*
X11406905Y-15612998D01*
X11406905Y-15612998D02*
X11425952Y-15603474D01*
X11425952Y-15603474D02*
X11473571Y-15603474D01*
X11473571Y-15603474D02*
X11492619Y-15612998D01*
X11492619Y-15612998D02*
X11502143Y-15622522D01*
X11502143Y-15622522D02*
X11511667Y-15641569D01*
X11511667Y-15641569D02*
X11511667Y-15689188D01*
X11511667Y-15689188D02*
X11502143Y-15708236D01*
X11502143Y-15708236D02*
X11492619Y-15717760D01*
X11492619Y-15717760D02*
X11473571Y-15727284D01*
X11473571Y-15727284D02*
X11425952Y-15727284D01*
X11425952Y-15727284D02*
X11406905Y-15717760D01*
X11406905Y-15717760D02*
X11397381Y-15708236D01*
X11635476Y-15527284D02*
X11654524Y-15527284D01*
X11654524Y-15527284D02*
X11673571Y-15536808D01*
X11673571Y-15536808D02*
X11683095Y-15546331D01*
X11683095Y-15546331D02*
X11692619Y-15565379D01*
X11692619Y-15565379D02*
X11702143Y-15603474D01*
X11702143Y-15603474D02*
X11702143Y-15651093D01*
X11702143Y-15651093D02*
X11692619Y-15689188D01*
X11692619Y-15689188D02*
X11683095Y-15708236D01*
X11683095Y-15708236D02*
X11673571Y-15717760D01*
X11673571Y-15717760D02*
X11654524Y-15727284D01*
X11654524Y-15727284D02*
X11635476Y-15727284D01*
X11635476Y-15727284D02*
X11616429Y-15717760D01*
X11616429Y-15717760D02*
X11606905Y-15708236D01*
X11606905Y-15708236D02*
X11597381Y-15689188D01*
X11597381Y-15689188D02*
X11587857Y-15651093D01*
X11587857Y-15651093D02*
X11587857Y-15603474D01*
X11587857Y-15603474D02*
X11597381Y-15565379D01*
X11597381Y-15565379D02*
X11606905Y-15546331D01*
X11606905Y-15546331D02*
X11616429Y-15536808D01*
X11616429Y-15536808D02*
X11635476Y-15527284D01*
X11787857Y-15727284D02*
X11787857Y-15593950D01*
X11787857Y-15612998D02*
X11797381Y-15603474D01*
X11797381Y-15603474D02*
X11816429Y-15593950D01*
X11816429Y-15593950D02*
X11845000Y-15593950D01*
X11845000Y-15593950D02*
X11864048Y-15603474D01*
X11864048Y-15603474D02*
X11873571Y-15622522D01*
X11873571Y-15622522D02*
X11873571Y-15727284D01*
X11873571Y-15622522D02*
X11883095Y-15603474D01*
X11883095Y-15603474D02*
X11902143Y-15593950D01*
X11902143Y-15593950D02*
X11930714Y-15593950D01*
X11930714Y-15593950D02*
X11949762Y-15603474D01*
X11949762Y-15603474D02*
X11959286Y-15622522D01*
X11959286Y-15622522D02*
X11959286Y-15727284D01*
X12054524Y-15727284D02*
X12054524Y-15593950D01*
X12054524Y-15612998D02*
X12064048Y-15603474D01*
X12064048Y-15603474D02*
X12083095Y-15593950D01*
X12083095Y-15593950D02*
X12111667Y-15593950D01*
X12111667Y-15593950D02*
X12130714Y-15603474D01*
X12130714Y-15603474D02*
X12140238Y-15622522D01*
X12140238Y-15622522D02*
X12140238Y-15727284D01*
X12140238Y-15622522D02*
X12149762Y-15603474D01*
X12149762Y-15603474D02*
X12168810Y-15593950D01*
X12168810Y-15593950D02*
X12197381Y-15593950D01*
X12197381Y-15593950D02*
X12216429Y-15603474D01*
X12216429Y-15603474D02*
X12225952Y-15622522D01*
X12225952Y-15622522D02*
X12225952Y-15727284D01*
X12616429Y-15517760D02*
X12445000Y-15774903D01*
X12873572Y-15527284D02*
X12892619Y-15527284D01*
X12892619Y-15527284D02*
X12911667Y-15536808D01*
X12911667Y-15536808D02*
X12921191Y-15546331D01*
X12921191Y-15546331D02*
X12930714Y-15565379D01*
X12930714Y-15565379D02*
X12940238Y-15603474D01*
X12940238Y-15603474D02*
X12940238Y-15651093D01*
X12940238Y-15651093D02*
X12930714Y-15689188D01*
X12930714Y-15689188D02*
X12921191Y-15708236D01*
X12921191Y-15708236D02*
X12911667Y-15717760D01*
X12911667Y-15717760D02*
X12892619Y-15727284D01*
X12892619Y-15727284D02*
X12873572Y-15727284D01*
X12873572Y-15727284D02*
X12854524Y-15717760D01*
X12854524Y-15717760D02*
X12845000Y-15708236D01*
X12845000Y-15708236D02*
X12835476Y-15689188D01*
X12835476Y-15689188D02*
X12825953Y-15651093D01*
X12825953Y-15651093D02*
X12825953Y-15603474D01*
X12825953Y-15603474D02*
X12835476Y-15565379D01*
X12835476Y-15565379D02*
X12845000Y-15546331D01*
X12845000Y-15546331D02*
X12854524Y-15536808D01*
X12854524Y-15536808D02*
X12873572Y-15527284D01*
X13025953Y-15708236D02*
X13035476Y-15717760D01*
X13035476Y-15717760D02*
X13025953Y-15727284D01*
X13025953Y-15727284D02*
X13016429Y-15717760D01*
X13016429Y-15717760D02*
X13025953Y-15708236D01*
X13025953Y-15708236D02*
X13025953Y-15727284D01*
X13159286Y-15527284D02*
X13178334Y-15527284D01*
X13178334Y-15527284D02*
X13197381Y-15536808D01*
X13197381Y-15536808D02*
X13206905Y-15546331D01*
X13206905Y-15546331D02*
X13216429Y-15565379D01*
X13216429Y-15565379D02*
X13225953Y-15603474D01*
X13225953Y-15603474D02*
X13225953Y-15651093D01*
X13225953Y-15651093D02*
X13216429Y-15689188D01*
X13216429Y-15689188D02*
X13206905Y-15708236D01*
X13206905Y-15708236D02*
X13197381Y-15717760D01*
X13197381Y-15717760D02*
X13178334Y-15727284D01*
X13178334Y-15727284D02*
X13159286Y-15727284D01*
X13159286Y-15727284D02*
X13140238Y-15717760D01*
X13140238Y-15717760D02*
X13130714Y-15708236D01*
X13130714Y-15708236D02*
X13121191Y-15689188D01*
X13121191Y-15689188D02*
X13111667Y-15651093D01*
X13111667Y-15651093D02*
X13111667Y-15603474D01*
X13111667Y-15603474D02*
X13121191Y-15565379D01*
X13121191Y-15565379D02*
X13130714Y-15546331D01*
X13130714Y-15546331D02*
X13140238Y-15536808D01*
X13140238Y-15536808D02*
X13159286Y-15527284D01*
X13302143Y-15546331D02*
X13311667Y-15536808D01*
X13311667Y-15536808D02*
X13330714Y-15527284D01*
X13330714Y-15527284D02*
X13378334Y-15527284D01*
X13378334Y-15527284D02*
X13397381Y-15536808D01*
X13397381Y-15536808D02*
X13406905Y-15546331D01*
X13406905Y-15546331D02*
X13416429Y-15565379D01*
X13416429Y-15565379D02*
X13416429Y-15584427D01*
X13416429Y-15584427D02*
X13406905Y-15612998D01*
X13406905Y-15612998D02*
X13292619Y-15727284D01*
X13292619Y-15727284D02*
X13416429Y-15727284D01*
X13511667Y-15727284D02*
X13549762Y-15727284D01*
X13549762Y-15727284D02*
X13568810Y-15717760D01*
X13568810Y-15717760D02*
X13578334Y-15708236D01*
X13578334Y-15708236D02*
X13597381Y-15679665D01*
X13597381Y-15679665D02*
X13606905Y-15641569D01*
X13606905Y-15641569D02*
X13606905Y-15565379D01*
X13606905Y-15565379D02*
X13597381Y-15546331D01*
X13597381Y-15546331D02*
X13587857Y-15536808D01*
X13587857Y-15536808D02*
X13568810Y-15527284D01*
X13568810Y-15527284D02*
X13530714Y-15527284D01*
X13530714Y-15527284D02*
X13511667Y-15536808D01*
X13511667Y-15536808D02*
X13502143Y-15546331D01*
X13502143Y-15546331D02*
X13492619Y-15565379D01*
X13492619Y-15565379D02*
X13492619Y-15612998D01*
X13492619Y-15612998D02*
X13502143Y-15632046D01*
X13502143Y-15632046D02*
X13511667Y-15641569D01*
X13511667Y-15641569D02*
X13530714Y-15651093D01*
X13530714Y-15651093D02*
X13568810Y-15651093D01*
X13568810Y-15651093D02*
X13587857Y-15641569D01*
X13587857Y-15641569D02*
X13597381Y-15632046D01*
X13597381Y-15632046D02*
X13606905Y-15612998D01*
X13787857Y-15527284D02*
X13692619Y-15527284D01*
X13692619Y-15527284D02*
X13683095Y-15622522D01*
X13683095Y-15622522D02*
X13692619Y-15612998D01*
X13692619Y-15612998D02*
X13711667Y-15603474D01*
X13711667Y-15603474D02*
X13759286Y-15603474D01*
X13759286Y-15603474D02*
X13778334Y-15612998D01*
X13778334Y-15612998D02*
X13787857Y-15622522D01*
X13787857Y-15622522D02*
X13797381Y-15641569D01*
X13797381Y-15641569D02*
X13797381Y-15689188D01*
X13797381Y-15689188D02*
X13787857Y-15708236D01*
X13787857Y-15708236D02*
X13778334Y-15717760D01*
X13778334Y-15717760D02*
X13759286Y-15727284D01*
X13759286Y-15727284D02*
X13711667Y-15727284D01*
X13711667Y-15727284D02*
X13692619Y-15717760D01*
X13692619Y-15717760D02*
X13683095Y-15708236D01*
X13873572Y-15527284D02*
X13873572Y-15565379D01*
X13949762Y-15527284D02*
X13949762Y-15565379D01*
X14245000Y-15803474D02*
X14235476Y-15793950D01*
X14235476Y-15793950D02*
X14216429Y-15765379D01*
X14216429Y-15765379D02*
X14206905Y-15746331D01*
X14206905Y-15746331D02*
X14197381Y-15717760D01*
X14197381Y-15717760D02*
X14187857Y-15670141D01*
X14187857Y-15670141D02*
X14187857Y-15632046D01*
X14187857Y-15632046D02*
X14197381Y-15584427D01*
X14197381Y-15584427D02*
X14206905Y-15555855D01*
X14206905Y-15555855D02*
X14216429Y-15536808D01*
X14216429Y-15536808D02*
X14235476Y-15508236D01*
X14235476Y-15508236D02*
X14245000Y-15498712D01*
X14311667Y-15546331D02*
X14321191Y-15536808D01*
X14321191Y-15536808D02*
X14340238Y-15527284D01*
X14340238Y-15527284D02*
X14387857Y-15527284D01*
X14387857Y-15527284D02*
X14406905Y-15536808D01*
X14406905Y-15536808D02*
X14416429Y-15546331D01*
X14416429Y-15546331D02*
X14425953Y-15565379D01*
X14425953Y-15565379D02*
X14425953Y-15584427D01*
X14425953Y-15584427D02*
X14416429Y-15612998D01*
X14416429Y-15612998D02*
X14302143Y-15727284D01*
X14302143Y-15727284D02*
X14425953Y-15727284D01*
X14664048Y-15727284D02*
X14664048Y-15527284D01*
X14749762Y-15727284D02*
X14749762Y-15622522D01*
X14749762Y-15622522D02*
X14740238Y-15603474D01*
X14740238Y-15603474D02*
X14721191Y-15593950D01*
X14721191Y-15593950D02*
X14692619Y-15593950D01*
X14692619Y-15593950D02*
X14673572Y-15603474D01*
X14673572Y-15603474D02*
X14664048Y-15612998D01*
X14873572Y-15727284D02*
X14854524Y-15717760D01*
X14854524Y-15717760D02*
X14845000Y-15708236D01*
X14845000Y-15708236D02*
X14835477Y-15689188D01*
X14835477Y-15689188D02*
X14835477Y-15632046D01*
X14835477Y-15632046D02*
X14845000Y-15612998D01*
X14845000Y-15612998D02*
X14854524Y-15603474D01*
X14854524Y-15603474D02*
X14873572Y-15593950D01*
X14873572Y-15593950D02*
X14902143Y-15593950D01*
X14902143Y-15593950D02*
X14921191Y-15603474D01*
X14921191Y-15603474D02*
X14930715Y-15612998D01*
X14930715Y-15612998D02*
X14940238Y-15632046D01*
X14940238Y-15632046D02*
X14940238Y-15689188D01*
X14940238Y-15689188D02*
X14930715Y-15708236D01*
X14930715Y-15708236D02*
X14921191Y-15717760D01*
X14921191Y-15717760D02*
X14902143Y-15727284D01*
X14902143Y-15727284D02*
X14873572Y-15727284D01*
X15054524Y-15727284D02*
X15035477Y-15717760D01*
X15035477Y-15717760D02*
X15025953Y-15698712D01*
X15025953Y-15698712D02*
X15025953Y-15527284D01*
X15206905Y-15717760D02*
X15187858Y-15727284D01*
X15187858Y-15727284D02*
X15149762Y-15727284D01*
X15149762Y-15727284D02*
X15130715Y-15717760D01*
X15130715Y-15717760D02*
X15121191Y-15698712D01*
X15121191Y-15698712D02*
X15121191Y-15622522D01*
X15121191Y-15622522D02*
X15130715Y-15603474D01*
X15130715Y-15603474D02*
X15149762Y-15593950D01*
X15149762Y-15593950D02*
X15187858Y-15593950D01*
X15187858Y-15593950D02*
X15206905Y-15603474D01*
X15206905Y-15603474D02*
X15216429Y-15622522D01*
X15216429Y-15622522D02*
X15216429Y-15641569D01*
X15216429Y-15641569D02*
X15121191Y-15660617D01*
X15292619Y-15717760D02*
X15311667Y-15727284D01*
X15311667Y-15727284D02*
X15349762Y-15727284D01*
X15349762Y-15727284D02*
X15368810Y-15717760D01*
X15368810Y-15717760D02*
X15378334Y-15698712D01*
X15378334Y-15698712D02*
X15378334Y-15689188D01*
X15378334Y-15689188D02*
X15368810Y-15670141D01*
X15368810Y-15670141D02*
X15349762Y-15660617D01*
X15349762Y-15660617D02*
X15321191Y-15660617D01*
X15321191Y-15660617D02*
X15302143Y-15651093D01*
X15302143Y-15651093D02*
X15292619Y-15632046D01*
X15292619Y-15632046D02*
X15292619Y-15622522D01*
X15292619Y-15622522D02*
X15302143Y-15603474D01*
X15302143Y-15603474D02*
X15321191Y-15593950D01*
X15321191Y-15593950D02*
X15349762Y-15593950D01*
X15349762Y-15593950D02*
X15368810Y-15603474D01*
X15445000Y-15803474D02*
X15454524Y-15793950D01*
X15454524Y-15793950D02*
X15473572Y-15765379D01*
X15473572Y-15765379D02*
X15483096Y-15746331D01*
X15483096Y-15746331D02*
X15492619Y-15717760D01*
X15492619Y-15717760D02*
X15502143Y-15670141D01*
X15502143Y-15670141D02*
X15502143Y-15632046D01*
X15502143Y-15632046D02*
X15492619Y-15584427D01*
X15492619Y-15584427D02*
X15483096Y-15555855D01*
X15483096Y-15555855D02*
X15473572Y-15536808D01*
X15473572Y-15536808D02*
X15454524Y-15508236D01*
X15454524Y-15508236D02*
X15445000Y-15498712D01*
D12*
X10629938Y-15859800D02*
X10629938Y-15939800D01*
X10589938Y-15899800D02*
X10669938Y-15899800D01*
D11*
X10968810Y-15791284D02*
X10987857Y-15791284D01*
X10987857Y-15791284D02*
X11006905Y-15800808D01*
X11006905Y-15800808D02*
X11016429Y-15810331D01*
X11016429Y-15810331D02*
X11025952Y-15829379D01*
X11025952Y-15829379D02*
X11035476Y-15867474D01*
X11035476Y-15867474D02*
X11035476Y-15915093D01*
X11035476Y-15915093D02*
X11025952Y-15953188D01*
X11025952Y-15953188D02*
X11016429Y-15972236D01*
X11016429Y-15972236D02*
X11006905Y-15981760D01*
X11006905Y-15981760D02*
X10987857Y-15991284D01*
X10987857Y-15991284D02*
X10968810Y-15991284D01*
X10968810Y-15991284D02*
X10949762Y-15981760D01*
X10949762Y-15981760D02*
X10940238Y-15972236D01*
X10940238Y-15972236D02*
X10930714Y-15953188D01*
X10930714Y-15953188D02*
X10921191Y-15915093D01*
X10921191Y-15915093D02*
X10921191Y-15867474D01*
X10921191Y-15867474D02*
X10930714Y-15829379D01*
X10930714Y-15829379D02*
X10940238Y-15810331D01*
X10940238Y-15810331D02*
X10949762Y-15800808D01*
X10949762Y-15800808D02*
X10968810Y-15791284D01*
X11121191Y-15972236D02*
X11130714Y-15981760D01*
X11130714Y-15981760D02*
X11121191Y-15991284D01*
X11121191Y-15991284D02*
X11111667Y-15981760D01*
X11111667Y-15981760D02*
X11121191Y-15972236D01*
X11121191Y-15972236D02*
X11121191Y-15991284D01*
X11245000Y-15876998D02*
X11225952Y-15867474D01*
X11225952Y-15867474D02*
X11216429Y-15857950D01*
X11216429Y-15857950D02*
X11206905Y-15838903D01*
X11206905Y-15838903D02*
X11206905Y-15829379D01*
X11206905Y-15829379D02*
X11216429Y-15810331D01*
X11216429Y-15810331D02*
X11225952Y-15800808D01*
X11225952Y-15800808D02*
X11245000Y-15791284D01*
X11245000Y-15791284D02*
X11283095Y-15791284D01*
X11283095Y-15791284D02*
X11302143Y-15800808D01*
X11302143Y-15800808D02*
X11311667Y-15810331D01*
X11311667Y-15810331D02*
X11321190Y-15829379D01*
X11321190Y-15829379D02*
X11321190Y-15838903D01*
X11321190Y-15838903D02*
X11311667Y-15857950D01*
X11311667Y-15857950D02*
X11302143Y-15867474D01*
X11302143Y-15867474D02*
X11283095Y-15876998D01*
X11283095Y-15876998D02*
X11245000Y-15876998D01*
X11245000Y-15876998D02*
X11225952Y-15886522D01*
X11225952Y-15886522D02*
X11216429Y-15896046D01*
X11216429Y-15896046D02*
X11206905Y-15915093D01*
X11206905Y-15915093D02*
X11206905Y-15953188D01*
X11206905Y-15953188D02*
X11216429Y-15972236D01*
X11216429Y-15972236D02*
X11225952Y-15981760D01*
X11225952Y-15981760D02*
X11245000Y-15991284D01*
X11245000Y-15991284D02*
X11283095Y-15991284D01*
X11283095Y-15991284D02*
X11302143Y-15981760D01*
X11302143Y-15981760D02*
X11311667Y-15972236D01*
X11311667Y-15972236D02*
X11321190Y-15953188D01*
X11321190Y-15953188D02*
X11321190Y-15915093D01*
X11321190Y-15915093D02*
X11311667Y-15896046D01*
X11311667Y-15896046D02*
X11302143Y-15886522D01*
X11302143Y-15886522D02*
X11283095Y-15876998D01*
X11445000Y-15791284D02*
X11464048Y-15791284D01*
X11464048Y-15791284D02*
X11483095Y-15800808D01*
X11483095Y-15800808D02*
X11492619Y-15810331D01*
X11492619Y-15810331D02*
X11502143Y-15829379D01*
X11502143Y-15829379D02*
X11511667Y-15867474D01*
X11511667Y-15867474D02*
X11511667Y-15915093D01*
X11511667Y-15915093D02*
X11502143Y-15953188D01*
X11502143Y-15953188D02*
X11492619Y-15972236D01*
X11492619Y-15972236D02*
X11483095Y-15981760D01*
X11483095Y-15981760D02*
X11464048Y-15991284D01*
X11464048Y-15991284D02*
X11445000Y-15991284D01*
X11445000Y-15991284D02*
X11425952Y-15981760D01*
X11425952Y-15981760D02*
X11416429Y-15972236D01*
X11416429Y-15972236D02*
X11406905Y-15953188D01*
X11406905Y-15953188D02*
X11397381Y-15915093D01*
X11397381Y-15915093D02*
X11397381Y-15867474D01*
X11397381Y-15867474D02*
X11406905Y-15829379D01*
X11406905Y-15829379D02*
X11416429Y-15810331D01*
X11416429Y-15810331D02*
X11425952Y-15800808D01*
X11425952Y-15800808D02*
X11445000Y-15791284D01*
X11635476Y-15791284D02*
X11654524Y-15791284D01*
X11654524Y-15791284D02*
X11673571Y-15800808D01*
X11673571Y-15800808D02*
X11683095Y-15810331D01*
X11683095Y-15810331D02*
X11692619Y-15829379D01*
X11692619Y-15829379D02*
X11702143Y-15867474D01*
X11702143Y-15867474D02*
X11702143Y-15915093D01*
X11702143Y-15915093D02*
X11692619Y-15953188D01*
X11692619Y-15953188D02*
X11683095Y-15972236D01*
X11683095Y-15972236D02*
X11673571Y-15981760D01*
X11673571Y-15981760D02*
X11654524Y-15991284D01*
X11654524Y-15991284D02*
X11635476Y-15991284D01*
X11635476Y-15991284D02*
X11616429Y-15981760D01*
X11616429Y-15981760D02*
X11606905Y-15972236D01*
X11606905Y-15972236D02*
X11597381Y-15953188D01*
X11597381Y-15953188D02*
X11587857Y-15915093D01*
X11587857Y-15915093D02*
X11587857Y-15867474D01*
X11587857Y-15867474D02*
X11597381Y-15829379D01*
X11597381Y-15829379D02*
X11606905Y-15810331D01*
X11606905Y-15810331D02*
X11616429Y-15800808D01*
X11616429Y-15800808D02*
X11635476Y-15791284D01*
X11787857Y-15991284D02*
X11787857Y-15857950D01*
X11787857Y-15876998D02*
X11797381Y-15867474D01*
X11797381Y-15867474D02*
X11816429Y-15857950D01*
X11816429Y-15857950D02*
X11845000Y-15857950D01*
X11845000Y-15857950D02*
X11864048Y-15867474D01*
X11864048Y-15867474D02*
X11873571Y-15886522D01*
X11873571Y-15886522D02*
X11873571Y-15991284D01*
X11873571Y-15886522D02*
X11883095Y-15867474D01*
X11883095Y-15867474D02*
X11902143Y-15857950D01*
X11902143Y-15857950D02*
X11930714Y-15857950D01*
X11930714Y-15857950D02*
X11949762Y-15867474D01*
X11949762Y-15867474D02*
X11959286Y-15886522D01*
X11959286Y-15886522D02*
X11959286Y-15991284D01*
X12054524Y-15991284D02*
X12054524Y-15857950D01*
X12054524Y-15876998D02*
X12064048Y-15867474D01*
X12064048Y-15867474D02*
X12083095Y-15857950D01*
X12083095Y-15857950D02*
X12111667Y-15857950D01*
X12111667Y-15857950D02*
X12130714Y-15867474D01*
X12130714Y-15867474D02*
X12140238Y-15886522D01*
X12140238Y-15886522D02*
X12140238Y-15991284D01*
X12140238Y-15886522D02*
X12149762Y-15867474D01*
X12149762Y-15867474D02*
X12168810Y-15857950D01*
X12168810Y-15857950D02*
X12197381Y-15857950D01*
X12197381Y-15857950D02*
X12216429Y-15867474D01*
X12216429Y-15867474D02*
X12225952Y-15886522D01*
X12225952Y-15886522D02*
X12225952Y-15991284D01*
X12616429Y-15781760D02*
X12445000Y-16038903D01*
X12873572Y-15791284D02*
X12892619Y-15791284D01*
X12892619Y-15791284D02*
X12911667Y-15800808D01*
X12911667Y-15800808D02*
X12921191Y-15810331D01*
X12921191Y-15810331D02*
X12930714Y-15829379D01*
X12930714Y-15829379D02*
X12940238Y-15867474D01*
X12940238Y-15867474D02*
X12940238Y-15915093D01*
X12940238Y-15915093D02*
X12930714Y-15953188D01*
X12930714Y-15953188D02*
X12921191Y-15972236D01*
X12921191Y-15972236D02*
X12911667Y-15981760D01*
X12911667Y-15981760D02*
X12892619Y-15991284D01*
X12892619Y-15991284D02*
X12873572Y-15991284D01*
X12873572Y-15991284D02*
X12854524Y-15981760D01*
X12854524Y-15981760D02*
X12845000Y-15972236D01*
X12845000Y-15972236D02*
X12835476Y-15953188D01*
X12835476Y-15953188D02*
X12825953Y-15915093D01*
X12825953Y-15915093D02*
X12825953Y-15867474D01*
X12825953Y-15867474D02*
X12835476Y-15829379D01*
X12835476Y-15829379D02*
X12845000Y-15810331D01*
X12845000Y-15810331D02*
X12854524Y-15800808D01*
X12854524Y-15800808D02*
X12873572Y-15791284D01*
X13025953Y-15972236D02*
X13035476Y-15981760D01*
X13035476Y-15981760D02*
X13025953Y-15991284D01*
X13025953Y-15991284D02*
X13016429Y-15981760D01*
X13016429Y-15981760D02*
X13025953Y-15972236D01*
X13025953Y-15972236D02*
X13025953Y-15991284D01*
X13159286Y-15791284D02*
X13178334Y-15791284D01*
X13178334Y-15791284D02*
X13197381Y-15800808D01*
X13197381Y-15800808D02*
X13206905Y-15810331D01*
X13206905Y-15810331D02*
X13216429Y-15829379D01*
X13216429Y-15829379D02*
X13225953Y-15867474D01*
X13225953Y-15867474D02*
X13225953Y-15915093D01*
X13225953Y-15915093D02*
X13216429Y-15953188D01*
X13216429Y-15953188D02*
X13206905Y-15972236D01*
X13206905Y-15972236D02*
X13197381Y-15981760D01*
X13197381Y-15981760D02*
X13178334Y-15991284D01*
X13178334Y-15991284D02*
X13159286Y-15991284D01*
X13159286Y-15991284D02*
X13140238Y-15981760D01*
X13140238Y-15981760D02*
X13130714Y-15972236D01*
X13130714Y-15972236D02*
X13121191Y-15953188D01*
X13121191Y-15953188D02*
X13111667Y-15915093D01*
X13111667Y-15915093D02*
X13111667Y-15867474D01*
X13111667Y-15867474D02*
X13121191Y-15829379D01*
X13121191Y-15829379D02*
X13130714Y-15810331D01*
X13130714Y-15810331D02*
X13140238Y-15800808D01*
X13140238Y-15800808D02*
X13159286Y-15791284D01*
X13292619Y-15791284D02*
X13416429Y-15791284D01*
X13416429Y-15791284D02*
X13349762Y-15867474D01*
X13349762Y-15867474D02*
X13378334Y-15867474D01*
X13378334Y-15867474D02*
X13397381Y-15876998D01*
X13397381Y-15876998D02*
X13406905Y-15886522D01*
X13406905Y-15886522D02*
X13416429Y-15905569D01*
X13416429Y-15905569D02*
X13416429Y-15953188D01*
X13416429Y-15953188D02*
X13406905Y-15972236D01*
X13406905Y-15972236D02*
X13397381Y-15981760D01*
X13397381Y-15981760D02*
X13378334Y-15991284D01*
X13378334Y-15991284D02*
X13321191Y-15991284D01*
X13321191Y-15991284D02*
X13302143Y-15981760D01*
X13302143Y-15981760D02*
X13292619Y-15972236D01*
X13606905Y-15991284D02*
X13492619Y-15991284D01*
X13549762Y-15991284D02*
X13549762Y-15791284D01*
X13549762Y-15791284D02*
X13530714Y-15819855D01*
X13530714Y-15819855D02*
X13511667Y-15838903D01*
X13511667Y-15838903D02*
X13492619Y-15848427D01*
X13787857Y-15791284D02*
X13692619Y-15791284D01*
X13692619Y-15791284D02*
X13683095Y-15886522D01*
X13683095Y-15886522D02*
X13692619Y-15876998D01*
X13692619Y-15876998D02*
X13711667Y-15867474D01*
X13711667Y-15867474D02*
X13759286Y-15867474D01*
X13759286Y-15867474D02*
X13778334Y-15876998D01*
X13778334Y-15876998D02*
X13787857Y-15886522D01*
X13787857Y-15886522D02*
X13797381Y-15905569D01*
X13797381Y-15905569D02*
X13797381Y-15953188D01*
X13797381Y-15953188D02*
X13787857Y-15972236D01*
X13787857Y-15972236D02*
X13778334Y-15981760D01*
X13778334Y-15981760D02*
X13759286Y-15991284D01*
X13759286Y-15991284D02*
X13711667Y-15991284D01*
X13711667Y-15991284D02*
X13692619Y-15981760D01*
X13692619Y-15981760D02*
X13683095Y-15972236D01*
X13873572Y-15791284D02*
X13873572Y-15829379D01*
X13949762Y-15791284D02*
X13949762Y-15829379D01*
X14245000Y-16067474D02*
X14235476Y-16057950D01*
X14235476Y-16057950D02*
X14216429Y-16029379D01*
X14216429Y-16029379D02*
X14206905Y-16010331D01*
X14206905Y-16010331D02*
X14197381Y-15981760D01*
X14197381Y-15981760D02*
X14187857Y-15934141D01*
X14187857Y-15934141D02*
X14187857Y-15896046D01*
X14187857Y-15896046D02*
X14197381Y-15848427D01*
X14197381Y-15848427D02*
X14206905Y-15819855D01*
X14206905Y-15819855D02*
X14216429Y-15800808D01*
X14216429Y-15800808D02*
X14235476Y-15772236D01*
X14235476Y-15772236D02*
X14245000Y-15762712D01*
X14349762Y-15876998D02*
X14330715Y-15867474D01*
X14330715Y-15867474D02*
X14321191Y-15857950D01*
X14321191Y-15857950D02*
X14311667Y-15838903D01*
X14311667Y-15838903D02*
X14311667Y-15829379D01*
X14311667Y-15829379D02*
X14321191Y-15810331D01*
X14321191Y-15810331D02*
X14330715Y-15800808D01*
X14330715Y-15800808D02*
X14349762Y-15791284D01*
X14349762Y-15791284D02*
X14387857Y-15791284D01*
X14387857Y-15791284D02*
X14406905Y-15800808D01*
X14406905Y-15800808D02*
X14416429Y-15810331D01*
X14416429Y-15810331D02*
X14425953Y-15829379D01*
X14425953Y-15829379D02*
X14425953Y-15838903D01*
X14425953Y-15838903D02*
X14416429Y-15857950D01*
X14416429Y-15857950D02*
X14406905Y-15867474D01*
X14406905Y-15867474D02*
X14387857Y-15876998D01*
X14387857Y-15876998D02*
X14349762Y-15876998D01*
X14349762Y-15876998D02*
X14330715Y-15886522D01*
X14330715Y-15886522D02*
X14321191Y-15896046D01*
X14321191Y-15896046D02*
X14311667Y-15915093D01*
X14311667Y-15915093D02*
X14311667Y-15953188D01*
X14311667Y-15953188D02*
X14321191Y-15972236D01*
X14321191Y-15972236D02*
X14330715Y-15981760D01*
X14330715Y-15981760D02*
X14349762Y-15991284D01*
X14349762Y-15991284D02*
X14387857Y-15991284D01*
X14387857Y-15991284D02*
X14406905Y-15981760D01*
X14406905Y-15981760D02*
X14416429Y-15972236D01*
X14416429Y-15972236D02*
X14425953Y-15953188D01*
X14425953Y-15953188D02*
X14425953Y-15915093D01*
X14425953Y-15915093D02*
X14416429Y-15896046D01*
X14416429Y-15896046D02*
X14406905Y-15886522D01*
X14406905Y-15886522D02*
X14387857Y-15876998D01*
X14664048Y-15991284D02*
X14664048Y-15791284D01*
X14749762Y-15991284D02*
X14749762Y-15886522D01*
X14749762Y-15886522D02*
X14740238Y-15867474D01*
X14740238Y-15867474D02*
X14721191Y-15857950D01*
X14721191Y-15857950D02*
X14692619Y-15857950D01*
X14692619Y-15857950D02*
X14673572Y-15867474D01*
X14673572Y-15867474D02*
X14664048Y-15876998D01*
X14873572Y-15991284D02*
X14854524Y-15981760D01*
X14854524Y-15981760D02*
X14845000Y-15972236D01*
X14845000Y-15972236D02*
X14835477Y-15953188D01*
X14835477Y-15953188D02*
X14835477Y-15896046D01*
X14835477Y-15896046D02*
X14845000Y-15876998D01*
X14845000Y-15876998D02*
X14854524Y-15867474D01*
X14854524Y-15867474D02*
X14873572Y-15857950D01*
X14873572Y-15857950D02*
X14902143Y-15857950D01*
X14902143Y-15857950D02*
X14921191Y-15867474D01*
X14921191Y-15867474D02*
X14930715Y-15876998D01*
X14930715Y-15876998D02*
X14940238Y-15896046D01*
X14940238Y-15896046D02*
X14940238Y-15953188D01*
X14940238Y-15953188D02*
X14930715Y-15972236D01*
X14930715Y-15972236D02*
X14921191Y-15981760D01*
X14921191Y-15981760D02*
X14902143Y-15991284D01*
X14902143Y-15991284D02*
X14873572Y-15991284D01*
X15054524Y-15991284D02*
X15035477Y-15981760D01*
X15035477Y-15981760D02*
X15025953Y-15962712D01*
X15025953Y-15962712D02*
X15025953Y-15791284D01*
X15206905Y-15981760D02*
X15187858Y-15991284D01*
X15187858Y-15991284D02*
X15149762Y-15991284D01*
X15149762Y-15991284D02*
X15130715Y-15981760D01*
X15130715Y-15981760D02*
X15121191Y-15962712D01*
X15121191Y-15962712D02*
X15121191Y-15886522D01*
X15121191Y-15886522D02*
X15130715Y-15867474D01*
X15130715Y-15867474D02*
X15149762Y-15857950D01*
X15149762Y-15857950D02*
X15187858Y-15857950D01*
X15187858Y-15857950D02*
X15206905Y-15867474D01*
X15206905Y-15867474D02*
X15216429Y-15886522D01*
X15216429Y-15886522D02*
X15216429Y-15905569D01*
X15216429Y-15905569D02*
X15121191Y-15924617D01*
X15292619Y-15981760D02*
X15311667Y-15991284D01*
X15311667Y-15991284D02*
X15349762Y-15991284D01*
X15349762Y-15991284D02*
X15368810Y-15981760D01*
X15368810Y-15981760D02*
X15378334Y-15962712D01*
X15378334Y-15962712D02*
X15378334Y-15953188D01*
X15378334Y-15953188D02*
X15368810Y-15934141D01*
X15368810Y-15934141D02*
X15349762Y-15924617D01*
X15349762Y-15924617D02*
X15321191Y-15924617D01*
X15321191Y-15924617D02*
X15302143Y-15915093D01*
X15302143Y-15915093D02*
X15292619Y-15896046D01*
X15292619Y-15896046D02*
X15292619Y-15886522D01*
X15292619Y-15886522D02*
X15302143Y-15867474D01*
X15302143Y-15867474D02*
X15321191Y-15857950D01*
X15321191Y-15857950D02*
X15349762Y-15857950D01*
X15349762Y-15857950D02*
X15368810Y-15867474D01*
X15616429Y-15915093D02*
X15768810Y-15915093D01*
X15692620Y-15991284D02*
X15692620Y-15838903D01*
X16006905Y-15810331D02*
X16016429Y-15800808D01*
X16016429Y-15800808D02*
X16035477Y-15791284D01*
X16035477Y-15791284D02*
X16083096Y-15791284D01*
X16083096Y-15791284D02*
X16102143Y-15800808D01*
X16102143Y-15800808D02*
X16111667Y-15810331D01*
X16111667Y-15810331D02*
X16121191Y-15829379D01*
X16121191Y-15829379D02*
X16121191Y-15848427D01*
X16121191Y-15848427D02*
X16111667Y-15876998D01*
X16111667Y-15876998D02*
X15997381Y-15991284D01*
X15997381Y-15991284D02*
X16121191Y-15991284D01*
X16349762Y-15981760D02*
X16368810Y-15991284D01*
X16368810Y-15991284D02*
X16406905Y-15991284D01*
X16406905Y-15991284D02*
X16425953Y-15981760D01*
X16425953Y-15981760D02*
X16435477Y-15962712D01*
X16435477Y-15962712D02*
X16435477Y-15953188D01*
X16435477Y-15953188D02*
X16425953Y-15934141D01*
X16425953Y-15934141D02*
X16406905Y-15924617D01*
X16406905Y-15924617D02*
X16378334Y-15924617D01*
X16378334Y-15924617D02*
X16359286Y-15915093D01*
X16359286Y-15915093D02*
X16349762Y-15896046D01*
X16349762Y-15896046D02*
X16349762Y-15886522D01*
X16349762Y-15886522D02*
X16359286Y-15867474D01*
X16359286Y-15867474D02*
X16378334Y-15857950D01*
X16378334Y-15857950D02*
X16406905Y-15857950D01*
X16406905Y-15857950D02*
X16425953Y-15867474D01*
X16549762Y-15991284D02*
X16530715Y-15981760D01*
X16530715Y-15981760D02*
X16521191Y-15962712D01*
X16521191Y-15962712D02*
X16521191Y-15791284D01*
X16654524Y-15991284D02*
X16635477Y-15981760D01*
X16635477Y-15981760D02*
X16625953Y-15972236D01*
X16625953Y-15972236D02*
X16616429Y-15953188D01*
X16616429Y-15953188D02*
X16616429Y-15896046D01*
X16616429Y-15896046D02*
X16625953Y-15876998D01*
X16625953Y-15876998D02*
X16635477Y-15867474D01*
X16635477Y-15867474D02*
X16654524Y-15857950D01*
X16654524Y-15857950D02*
X16683096Y-15857950D01*
X16683096Y-15857950D02*
X16702143Y-15867474D01*
X16702143Y-15867474D02*
X16711667Y-15876998D01*
X16711667Y-15876998D02*
X16721191Y-15896046D01*
X16721191Y-15896046D02*
X16721191Y-15953188D01*
X16721191Y-15953188D02*
X16711667Y-15972236D01*
X16711667Y-15972236D02*
X16702143Y-15981760D01*
X16702143Y-15981760D02*
X16683096Y-15991284D01*
X16683096Y-15991284D02*
X16654524Y-15991284D01*
X16778334Y-15857950D02*
X16854524Y-15857950D01*
X16806905Y-15791284D02*
X16806905Y-15962712D01*
X16806905Y-15962712D02*
X16816429Y-15981760D01*
X16816429Y-15981760D02*
X16835477Y-15991284D01*
X16835477Y-15991284D02*
X16854524Y-15991284D01*
X16911667Y-15981760D02*
X16930715Y-15991284D01*
X16930715Y-15991284D02*
X16968810Y-15991284D01*
X16968810Y-15991284D02*
X16987858Y-15981760D01*
X16987858Y-15981760D02*
X16997382Y-15962712D01*
X16997382Y-15962712D02*
X16997382Y-15953188D01*
X16997382Y-15953188D02*
X16987858Y-15934141D01*
X16987858Y-15934141D02*
X16968810Y-15924617D01*
X16968810Y-15924617D02*
X16940239Y-15924617D01*
X16940239Y-15924617D02*
X16921191Y-15915093D01*
X16921191Y-15915093D02*
X16911667Y-15896046D01*
X16911667Y-15896046D02*
X16911667Y-15886522D01*
X16911667Y-15886522D02*
X16921191Y-15867474D01*
X16921191Y-15867474D02*
X16940239Y-15857950D01*
X16940239Y-15857950D02*
X16968810Y-15857950D01*
X16968810Y-15857950D02*
X16987858Y-15867474D01*
X17064048Y-16067474D02*
X17073572Y-16057950D01*
X17073572Y-16057950D02*
X17092620Y-16029379D01*
X17092620Y-16029379D02*
X17102144Y-16010331D01*
X17102144Y-16010331D02*
X17111667Y-15981760D01*
X17111667Y-15981760D02*
X17121191Y-15934141D01*
X17121191Y-15934141D02*
X17121191Y-15896046D01*
X17121191Y-15896046D02*
X17111667Y-15848427D01*
X17111667Y-15848427D02*
X17102144Y-15819855D01*
X17102144Y-15819855D02*
X17092620Y-15800808D01*
X17092620Y-15800808D02*
X17073572Y-15772236D01*
X17073572Y-15772236D02*
X17064048Y-15762712D01*
D12*
X10655440Y-16198802D02*
X10655440Y-16128798D01*
X10585435Y-16128798D01*
X10585435Y-16198802D01*
X10655440Y-16198802D01*
D11*
X10968810Y-16055284D02*
X10987857Y-16055284D01*
X10987857Y-16055284D02*
X11006905Y-16064808D01*
X11006905Y-16064808D02*
X11016429Y-16074331D01*
X11016429Y-16074331D02*
X11025952Y-16093379D01*
X11025952Y-16093379D02*
X11035476Y-16131474D01*
X11035476Y-16131474D02*
X11035476Y-16179093D01*
X11035476Y-16179093D02*
X11025952Y-16217188D01*
X11025952Y-16217188D02*
X11016429Y-16236236D01*
X11016429Y-16236236D02*
X11006905Y-16245760D01*
X11006905Y-16245760D02*
X10987857Y-16255284D01*
X10987857Y-16255284D02*
X10968810Y-16255284D01*
X10968810Y-16255284D02*
X10949762Y-16245760D01*
X10949762Y-16245760D02*
X10940238Y-16236236D01*
X10940238Y-16236236D02*
X10930714Y-16217188D01*
X10930714Y-16217188D02*
X10921191Y-16179093D01*
X10921191Y-16179093D02*
X10921191Y-16131474D01*
X10921191Y-16131474D02*
X10930714Y-16093379D01*
X10930714Y-16093379D02*
X10940238Y-16074331D01*
X10940238Y-16074331D02*
X10949762Y-16064808D01*
X10949762Y-16064808D02*
X10968810Y-16055284D01*
X11121191Y-16236236D02*
X11130714Y-16245760D01*
X11130714Y-16245760D02*
X11121191Y-16255284D01*
X11121191Y-16255284D02*
X11111667Y-16245760D01*
X11111667Y-16245760D02*
X11121191Y-16236236D01*
X11121191Y-16236236D02*
X11121191Y-16255284D01*
X11225952Y-16255284D02*
X11264048Y-16255284D01*
X11264048Y-16255284D02*
X11283095Y-16245760D01*
X11283095Y-16245760D02*
X11292619Y-16236236D01*
X11292619Y-16236236D02*
X11311667Y-16207665D01*
X11311667Y-16207665D02*
X11321190Y-16169569D01*
X11321190Y-16169569D02*
X11321190Y-16093379D01*
X11321190Y-16093379D02*
X11311667Y-16074331D01*
X11311667Y-16074331D02*
X11302143Y-16064808D01*
X11302143Y-16064808D02*
X11283095Y-16055284D01*
X11283095Y-16055284D02*
X11245000Y-16055284D01*
X11245000Y-16055284D02*
X11225952Y-16064808D01*
X11225952Y-16064808D02*
X11216429Y-16074331D01*
X11216429Y-16074331D02*
X11206905Y-16093379D01*
X11206905Y-16093379D02*
X11206905Y-16140998D01*
X11206905Y-16140998D02*
X11216429Y-16160046D01*
X11216429Y-16160046D02*
X11225952Y-16169569D01*
X11225952Y-16169569D02*
X11245000Y-16179093D01*
X11245000Y-16179093D02*
X11283095Y-16179093D01*
X11283095Y-16179093D02*
X11302143Y-16169569D01*
X11302143Y-16169569D02*
X11311667Y-16160046D01*
X11311667Y-16160046D02*
X11321190Y-16140998D01*
X11416429Y-16255284D02*
X11454524Y-16255284D01*
X11454524Y-16255284D02*
X11473571Y-16245760D01*
X11473571Y-16245760D02*
X11483095Y-16236236D01*
X11483095Y-16236236D02*
X11502143Y-16207665D01*
X11502143Y-16207665D02*
X11511667Y-16169569D01*
X11511667Y-16169569D02*
X11511667Y-16093379D01*
X11511667Y-16093379D02*
X11502143Y-16074331D01*
X11502143Y-16074331D02*
X11492619Y-16064808D01*
X11492619Y-16064808D02*
X11473571Y-16055284D01*
X11473571Y-16055284D02*
X11435476Y-16055284D01*
X11435476Y-16055284D02*
X11416429Y-16064808D01*
X11416429Y-16064808D02*
X11406905Y-16074331D01*
X11406905Y-16074331D02*
X11397381Y-16093379D01*
X11397381Y-16093379D02*
X11397381Y-16140998D01*
X11397381Y-16140998D02*
X11406905Y-16160046D01*
X11406905Y-16160046D02*
X11416429Y-16169569D01*
X11416429Y-16169569D02*
X11435476Y-16179093D01*
X11435476Y-16179093D02*
X11473571Y-16179093D01*
X11473571Y-16179093D02*
X11492619Y-16169569D01*
X11492619Y-16169569D02*
X11502143Y-16160046D01*
X11502143Y-16160046D02*
X11511667Y-16140998D01*
X11635476Y-16055284D02*
X11654524Y-16055284D01*
X11654524Y-16055284D02*
X11673571Y-16064808D01*
X11673571Y-16064808D02*
X11683095Y-16074331D01*
X11683095Y-16074331D02*
X11692619Y-16093379D01*
X11692619Y-16093379D02*
X11702143Y-16131474D01*
X11702143Y-16131474D02*
X11702143Y-16179093D01*
X11702143Y-16179093D02*
X11692619Y-16217188D01*
X11692619Y-16217188D02*
X11683095Y-16236236D01*
X11683095Y-16236236D02*
X11673571Y-16245760D01*
X11673571Y-16245760D02*
X11654524Y-16255284D01*
X11654524Y-16255284D02*
X11635476Y-16255284D01*
X11635476Y-16255284D02*
X11616429Y-16245760D01*
X11616429Y-16245760D02*
X11606905Y-16236236D01*
X11606905Y-16236236D02*
X11597381Y-16217188D01*
X11597381Y-16217188D02*
X11587857Y-16179093D01*
X11587857Y-16179093D02*
X11587857Y-16131474D01*
X11587857Y-16131474D02*
X11597381Y-16093379D01*
X11597381Y-16093379D02*
X11606905Y-16074331D01*
X11606905Y-16074331D02*
X11616429Y-16064808D01*
X11616429Y-16064808D02*
X11635476Y-16055284D01*
X11787857Y-16255284D02*
X11787857Y-16121950D01*
X11787857Y-16140998D02*
X11797381Y-16131474D01*
X11797381Y-16131474D02*
X11816429Y-16121950D01*
X11816429Y-16121950D02*
X11845000Y-16121950D01*
X11845000Y-16121950D02*
X11864048Y-16131474D01*
X11864048Y-16131474D02*
X11873571Y-16150522D01*
X11873571Y-16150522D02*
X11873571Y-16255284D01*
X11873571Y-16150522D02*
X11883095Y-16131474D01*
X11883095Y-16131474D02*
X11902143Y-16121950D01*
X11902143Y-16121950D02*
X11930714Y-16121950D01*
X11930714Y-16121950D02*
X11949762Y-16131474D01*
X11949762Y-16131474D02*
X11959286Y-16150522D01*
X11959286Y-16150522D02*
X11959286Y-16255284D01*
X12054524Y-16255284D02*
X12054524Y-16121950D01*
X12054524Y-16140998D02*
X12064048Y-16131474D01*
X12064048Y-16131474D02*
X12083095Y-16121950D01*
X12083095Y-16121950D02*
X12111667Y-16121950D01*
X12111667Y-16121950D02*
X12130714Y-16131474D01*
X12130714Y-16131474D02*
X12140238Y-16150522D01*
X12140238Y-16150522D02*
X12140238Y-16255284D01*
X12140238Y-16150522D02*
X12149762Y-16131474D01*
X12149762Y-16131474D02*
X12168810Y-16121950D01*
X12168810Y-16121950D02*
X12197381Y-16121950D01*
X12197381Y-16121950D02*
X12216429Y-16131474D01*
X12216429Y-16131474D02*
X12225952Y-16150522D01*
X12225952Y-16150522D02*
X12225952Y-16255284D01*
X12616429Y-16045760D02*
X12445000Y-16302903D01*
X12873572Y-16055284D02*
X12892619Y-16055284D01*
X12892619Y-16055284D02*
X12911667Y-16064808D01*
X12911667Y-16064808D02*
X12921191Y-16074331D01*
X12921191Y-16074331D02*
X12930714Y-16093379D01*
X12930714Y-16093379D02*
X12940238Y-16131474D01*
X12940238Y-16131474D02*
X12940238Y-16179093D01*
X12940238Y-16179093D02*
X12930714Y-16217188D01*
X12930714Y-16217188D02*
X12921191Y-16236236D01*
X12921191Y-16236236D02*
X12911667Y-16245760D01*
X12911667Y-16245760D02*
X12892619Y-16255284D01*
X12892619Y-16255284D02*
X12873572Y-16255284D01*
X12873572Y-16255284D02*
X12854524Y-16245760D01*
X12854524Y-16245760D02*
X12845000Y-16236236D01*
X12845000Y-16236236D02*
X12835476Y-16217188D01*
X12835476Y-16217188D02*
X12825953Y-16179093D01*
X12825953Y-16179093D02*
X12825953Y-16131474D01*
X12825953Y-16131474D02*
X12835476Y-16093379D01*
X12835476Y-16093379D02*
X12845000Y-16074331D01*
X12845000Y-16074331D02*
X12854524Y-16064808D01*
X12854524Y-16064808D02*
X12873572Y-16055284D01*
X13025953Y-16236236D02*
X13035476Y-16245760D01*
X13035476Y-16245760D02*
X13025953Y-16255284D01*
X13025953Y-16255284D02*
X13016429Y-16245760D01*
X13016429Y-16245760D02*
X13025953Y-16236236D01*
X13025953Y-16236236D02*
X13025953Y-16255284D01*
X13159286Y-16055284D02*
X13178334Y-16055284D01*
X13178334Y-16055284D02*
X13197381Y-16064808D01*
X13197381Y-16064808D02*
X13206905Y-16074331D01*
X13206905Y-16074331D02*
X13216429Y-16093379D01*
X13216429Y-16093379D02*
X13225953Y-16131474D01*
X13225953Y-16131474D02*
X13225953Y-16179093D01*
X13225953Y-16179093D02*
X13216429Y-16217188D01*
X13216429Y-16217188D02*
X13206905Y-16236236D01*
X13206905Y-16236236D02*
X13197381Y-16245760D01*
X13197381Y-16245760D02*
X13178334Y-16255284D01*
X13178334Y-16255284D02*
X13159286Y-16255284D01*
X13159286Y-16255284D02*
X13140238Y-16245760D01*
X13140238Y-16245760D02*
X13130714Y-16236236D01*
X13130714Y-16236236D02*
X13121191Y-16217188D01*
X13121191Y-16217188D02*
X13111667Y-16179093D01*
X13111667Y-16179093D02*
X13111667Y-16131474D01*
X13111667Y-16131474D02*
X13121191Y-16093379D01*
X13121191Y-16093379D02*
X13130714Y-16074331D01*
X13130714Y-16074331D02*
X13140238Y-16064808D01*
X13140238Y-16064808D02*
X13159286Y-16055284D01*
X13292619Y-16055284D02*
X13416429Y-16055284D01*
X13416429Y-16055284D02*
X13349762Y-16131474D01*
X13349762Y-16131474D02*
X13378334Y-16131474D01*
X13378334Y-16131474D02*
X13397381Y-16140998D01*
X13397381Y-16140998D02*
X13406905Y-16150522D01*
X13406905Y-16150522D02*
X13416429Y-16169569D01*
X13416429Y-16169569D02*
X13416429Y-16217188D01*
X13416429Y-16217188D02*
X13406905Y-16236236D01*
X13406905Y-16236236D02*
X13397381Y-16245760D01*
X13397381Y-16245760D02*
X13378334Y-16255284D01*
X13378334Y-16255284D02*
X13321191Y-16255284D01*
X13321191Y-16255284D02*
X13302143Y-16245760D01*
X13302143Y-16245760D02*
X13292619Y-16236236D01*
X13511667Y-16255284D02*
X13549762Y-16255284D01*
X13549762Y-16255284D02*
X13568810Y-16245760D01*
X13568810Y-16245760D02*
X13578334Y-16236236D01*
X13578334Y-16236236D02*
X13597381Y-16207665D01*
X13597381Y-16207665D02*
X13606905Y-16169569D01*
X13606905Y-16169569D02*
X13606905Y-16093379D01*
X13606905Y-16093379D02*
X13597381Y-16074331D01*
X13597381Y-16074331D02*
X13587857Y-16064808D01*
X13587857Y-16064808D02*
X13568810Y-16055284D01*
X13568810Y-16055284D02*
X13530714Y-16055284D01*
X13530714Y-16055284D02*
X13511667Y-16064808D01*
X13511667Y-16064808D02*
X13502143Y-16074331D01*
X13502143Y-16074331D02*
X13492619Y-16093379D01*
X13492619Y-16093379D02*
X13492619Y-16140998D01*
X13492619Y-16140998D02*
X13502143Y-16160046D01*
X13502143Y-16160046D02*
X13511667Y-16169569D01*
X13511667Y-16169569D02*
X13530714Y-16179093D01*
X13530714Y-16179093D02*
X13568810Y-16179093D01*
X13568810Y-16179093D02*
X13587857Y-16169569D01*
X13587857Y-16169569D02*
X13597381Y-16160046D01*
X13597381Y-16160046D02*
X13606905Y-16140998D01*
X13730714Y-16055284D02*
X13749762Y-16055284D01*
X13749762Y-16055284D02*
X13768810Y-16064808D01*
X13768810Y-16064808D02*
X13778334Y-16074331D01*
X13778334Y-16074331D02*
X13787857Y-16093379D01*
X13787857Y-16093379D02*
X13797381Y-16131474D01*
X13797381Y-16131474D02*
X13797381Y-16179093D01*
X13797381Y-16179093D02*
X13787857Y-16217188D01*
X13787857Y-16217188D02*
X13778334Y-16236236D01*
X13778334Y-16236236D02*
X13768810Y-16245760D01*
X13768810Y-16245760D02*
X13749762Y-16255284D01*
X13749762Y-16255284D02*
X13730714Y-16255284D01*
X13730714Y-16255284D02*
X13711667Y-16245760D01*
X13711667Y-16245760D02*
X13702143Y-16236236D01*
X13702143Y-16236236D02*
X13692619Y-16217188D01*
X13692619Y-16217188D02*
X13683095Y-16179093D01*
X13683095Y-16179093D02*
X13683095Y-16131474D01*
X13683095Y-16131474D02*
X13692619Y-16093379D01*
X13692619Y-16093379D02*
X13702143Y-16074331D01*
X13702143Y-16074331D02*
X13711667Y-16064808D01*
X13711667Y-16064808D02*
X13730714Y-16055284D01*
X13873572Y-16055284D02*
X13873572Y-16093379D01*
X13949762Y-16055284D02*
X13949762Y-16093379D01*
X14245000Y-16331474D02*
X14235476Y-16321950D01*
X14235476Y-16321950D02*
X14216429Y-16293379D01*
X14216429Y-16293379D02*
X14206905Y-16274331D01*
X14206905Y-16274331D02*
X14197381Y-16245760D01*
X14197381Y-16245760D02*
X14187857Y-16198141D01*
X14187857Y-16198141D02*
X14187857Y-16160046D01*
X14187857Y-16160046D02*
X14197381Y-16112427D01*
X14197381Y-16112427D02*
X14206905Y-16083855D01*
X14206905Y-16083855D02*
X14216429Y-16064808D01*
X14216429Y-16064808D02*
X14235476Y-16036236D01*
X14235476Y-16036236D02*
X14245000Y-16026712D01*
X14406905Y-16121950D02*
X14406905Y-16255284D01*
X14359286Y-16045760D02*
X14311667Y-16188617D01*
X14311667Y-16188617D02*
X14435476Y-16188617D01*
X14664048Y-16255284D02*
X14664048Y-16055284D01*
X14749762Y-16255284D02*
X14749762Y-16150522D01*
X14749762Y-16150522D02*
X14740238Y-16131474D01*
X14740238Y-16131474D02*
X14721191Y-16121950D01*
X14721191Y-16121950D02*
X14692619Y-16121950D01*
X14692619Y-16121950D02*
X14673572Y-16131474D01*
X14673572Y-16131474D02*
X14664048Y-16140998D01*
X14873572Y-16255284D02*
X14854524Y-16245760D01*
X14854524Y-16245760D02*
X14845000Y-16236236D01*
X14845000Y-16236236D02*
X14835477Y-16217188D01*
X14835477Y-16217188D02*
X14835477Y-16160046D01*
X14835477Y-16160046D02*
X14845000Y-16140998D01*
X14845000Y-16140998D02*
X14854524Y-16131474D01*
X14854524Y-16131474D02*
X14873572Y-16121950D01*
X14873572Y-16121950D02*
X14902143Y-16121950D01*
X14902143Y-16121950D02*
X14921191Y-16131474D01*
X14921191Y-16131474D02*
X14930715Y-16140998D01*
X14930715Y-16140998D02*
X14940238Y-16160046D01*
X14940238Y-16160046D02*
X14940238Y-16217188D01*
X14940238Y-16217188D02*
X14930715Y-16236236D01*
X14930715Y-16236236D02*
X14921191Y-16245760D01*
X14921191Y-16245760D02*
X14902143Y-16255284D01*
X14902143Y-16255284D02*
X14873572Y-16255284D01*
X15054524Y-16255284D02*
X15035477Y-16245760D01*
X15035477Y-16245760D02*
X15025953Y-16226712D01*
X15025953Y-16226712D02*
X15025953Y-16055284D01*
X15206905Y-16245760D02*
X15187858Y-16255284D01*
X15187858Y-16255284D02*
X15149762Y-16255284D01*
X15149762Y-16255284D02*
X15130715Y-16245760D01*
X15130715Y-16245760D02*
X15121191Y-16226712D01*
X15121191Y-16226712D02*
X15121191Y-16150522D01*
X15121191Y-16150522D02*
X15130715Y-16131474D01*
X15130715Y-16131474D02*
X15149762Y-16121950D01*
X15149762Y-16121950D02*
X15187858Y-16121950D01*
X15187858Y-16121950D02*
X15206905Y-16131474D01*
X15206905Y-16131474D02*
X15216429Y-16150522D01*
X15216429Y-16150522D02*
X15216429Y-16169569D01*
X15216429Y-16169569D02*
X15121191Y-16188617D01*
X15292619Y-16245760D02*
X15311667Y-16255284D01*
X15311667Y-16255284D02*
X15349762Y-16255284D01*
X15349762Y-16255284D02*
X15368810Y-16245760D01*
X15368810Y-16245760D02*
X15378334Y-16226712D01*
X15378334Y-16226712D02*
X15378334Y-16217188D01*
X15378334Y-16217188D02*
X15368810Y-16198141D01*
X15368810Y-16198141D02*
X15349762Y-16188617D01*
X15349762Y-16188617D02*
X15321191Y-16188617D01*
X15321191Y-16188617D02*
X15302143Y-16179093D01*
X15302143Y-16179093D02*
X15292619Y-16160046D01*
X15292619Y-16160046D02*
X15292619Y-16150522D01*
X15292619Y-16150522D02*
X15302143Y-16131474D01*
X15302143Y-16131474D02*
X15321191Y-16121950D01*
X15321191Y-16121950D02*
X15349762Y-16121950D01*
X15349762Y-16121950D02*
X15368810Y-16131474D01*
X15445000Y-16331474D02*
X15454524Y-16321950D01*
X15454524Y-16321950D02*
X15473572Y-16293379D01*
X15473572Y-16293379D02*
X15483096Y-16274331D01*
X15483096Y-16274331D02*
X15492619Y-16245760D01*
X15492619Y-16245760D02*
X15502143Y-16198141D01*
X15502143Y-16198141D02*
X15502143Y-16160046D01*
X15502143Y-16160046D02*
X15492619Y-16112427D01*
X15492619Y-16112427D02*
X15483096Y-16083855D01*
X15483096Y-16083855D02*
X15473572Y-16064808D01*
X15473572Y-16064808D02*
X15454524Y-16036236D01*
X15454524Y-16036236D02*
X15445000Y-16026712D01*
D12*
X10619938Y-16477800D02*
X10669938Y-16427800D01*
X10619938Y-16377800D01*
X10569938Y-16427800D01*
X10619938Y-16477800D01*
D11*
X11035476Y-16519284D02*
X10921191Y-16519284D01*
X10978333Y-16519284D02*
X10978333Y-16319284D01*
X10978333Y-16319284D02*
X10959286Y-16347855D01*
X10959286Y-16347855D02*
X10940238Y-16366903D01*
X10940238Y-16366903D02*
X10921191Y-16376427D01*
X11121191Y-16500236D02*
X11130714Y-16509760D01*
X11130714Y-16509760D02*
X11121191Y-16519284D01*
X11121191Y-16519284D02*
X11111667Y-16509760D01*
X11111667Y-16509760D02*
X11121191Y-16500236D01*
X11121191Y-16500236D02*
X11121191Y-16519284D01*
X11254524Y-16319284D02*
X11273571Y-16319284D01*
X11273571Y-16319284D02*
X11292619Y-16328808D01*
X11292619Y-16328808D02*
X11302143Y-16338331D01*
X11302143Y-16338331D02*
X11311667Y-16357379D01*
X11311667Y-16357379D02*
X11321190Y-16395474D01*
X11321190Y-16395474D02*
X11321190Y-16443093D01*
X11321190Y-16443093D02*
X11311667Y-16481188D01*
X11311667Y-16481188D02*
X11302143Y-16500236D01*
X11302143Y-16500236D02*
X11292619Y-16509760D01*
X11292619Y-16509760D02*
X11273571Y-16519284D01*
X11273571Y-16519284D02*
X11254524Y-16519284D01*
X11254524Y-16519284D02*
X11235476Y-16509760D01*
X11235476Y-16509760D02*
X11225952Y-16500236D01*
X11225952Y-16500236D02*
X11216429Y-16481188D01*
X11216429Y-16481188D02*
X11206905Y-16443093D01*
X11206905Y-16443093D02*
X11206905Y-16395474D01*
X11206905Y-16395474D02*
X11216429Y-16357379D01*
X11216429Y-16357379D02*
X11225952Y-16338331D01*
X11225952Y-16338331D02*
X11235476Y-16328808D01*
X11235476Y-16328808D02*
X11254524Y-16319284D01*
X11445000Y-16319284D02*
X11464048Y-16319284D01*
X11464048Y-16319284D02*
X11483095Y-16328808D01*
X11483095Y-16328808D02*
X11492619Y-16338331D01*
X11492619Y-16338331D02*
X11502143Y-16357379D01*
X11502143Y-16357379D02*
X11511667Y-16395474D01*
X11511667Y-16395474D02*
X11511667Y-16443093D01*
X11511667Y-16443093D02*
X11502143Y-16481188D01*
X11502143Y-16481188D02*
X11492619Y-16500236D01*
X11492619Y-16500236D02*
X11483095Y-16509760D01*
X11483095Y-16509760D02*
X11464048Y-16519284D01*
X11464048Y-16519284D02*
X11445000Y-16519284D01*
X11445000Y-16519284D02*
X11425952Y-16509760D01*
X11425952Y-16509760D02*
X11416429Y-16500236D01*
X11416429Y-16500236D02*
X11406905Y-16481188D01*
X11406905Y-16481188D02*
X11397381Y-16443093D01*
X11397381Y-16443093D02*
X11397381Y-16395474D01*
X11397381Y-16395474D02*
X11406905Y-16357379D01*
X11406905Y-16357379D02*
X11416429Y-16338331D01*
X11416429Y-16338331D02*
X11425952Y-16328808D01*
X11425952Y-16328808D02*
X11445000Y-16319284D01*
X11635476Y-16319284D02*
X11654524Y-16319284D01*
X11654524Y-16319284D02*
X11673571Y-16328808D01*
X11673571Y-16328808D02*
X11683095Y-16338331D01*
X11683095Y-16338331D02*
X11692619Y-16357379D01*
X11692619Y-16357379D02*
X11702143Y-16395474D01*
X11702143Y-16395474D02*
X11702143Y-16443093D01*
X11702143Y-16443093D02*
X11692619Y-16481188D01*
X11692619Y-16481188D02*
X11683095Y-16500236D01*
X11683095Y-16500236D02*
X11673571Y-16509760D01*
X11673571Y-16509760D02*
X11654524Y-16519284D01*
X11654524Y-16519284D02*
X11635476Y-16519284D01*
X11635476Y-16519284D02*
X11616429Y-16509760D01*
X11616429Y-16509760D02*
X11606905Y-16500236D01*
X11606905Y-16500236D02*
X11597381Y-16481188D01*
X11597381Y-16481188D02*
X11587857Y-16443093D01*
X11587857Y-16443093D02*
X11587857Y-16395474D01*
X11587857Y-16395474D02*
X11597381Y-16357379D01*
X11597381Y-16357379D02*
X11606905Y-16338331D01*
X11606905Y-16338331D02*
X11616429Y-16328808D01*
X11616429Y-16328808D02*
X11635476Y-16319284D01*
X11787857Y-16519284D02*
X11787857Y-16385950D01*
X11787857Y-16404998D02*
X11797381Y-16395474D01*
X11797381Y-16395474D02*
X11816429Y-16385950D01*
X11816429Y-16385950D02*
X11845000Y-16385950D01*
X11845000Y-16385950D02*
X11864048Y-16395474D01*
X11864048Y-16395474D02*
X11873571Y-16414522D01*
X11873571Y-16414522D02*
X11873571Y-16519284D01*
X11873571Y-16414522D02*
X11883095Y-16395474D01*
X11883095Y-16395474D02*
X11902143Y-16385950D01*
X11902143Y-16385950D02*
X11930714Y-16385950D01*
X11930714Y-16385950D02*
X11949762Y-16395474D01*
X11949762Y-16395474D02*
X11959286Y-16414522D01*
X11959286Y-16414522D02*
X11959286Y-16519284D01*
X12054524Y-16519284D02*
X12054524Y-16385950D01*
X12054524Y-16404998D02*
X12064048Y-16395474D01*
X12064048Y-16395474D02*
X12083095Y-16385950D01*
X12083095Y-16385950D02*
X12111667Y-16385950D01*
X12111667Y-16385950D02*
X12130714Y-16395474D01*
X12130714Y-16395474D02*
X12140238Y-16414522D01*
X12140238Y-16414522D02*
X12140238Y-16519284D01*
X12140238Y-16414522D02*
X12149762Y-16395474D01*
X12149762Y-16395474D02*
X12168810Y-16385950D01*
X12168810Y-16385950D02*
X12197381Y-16385950D01*
X12197381Y-16385950D02*
X12216429Y-16395474D01*
X12216429Y-16395474D02*
X12225952Y-16414522D01*
X12225952Y-16414522D02*
X12225952Y-16519284D01*
X12616429Y-16309760D02*
X12445000Y-16566903D01*
X12873572Y-16319284D02*
X12892619Y-16319284D01*
X12892619Y-16319284D02*
X12911667Y-16328808D01*
X12911667Y-16328808D02*
X12921191Y-16338331D01*
X12921191Y-16338331D02*
X12930714Y-16357379D01*
X12930714Y-16357379D02*
X12940238Y-16395474D01*
X12940238Y-16395474D02*
X12940238Y-16443093D01*
X12940238Y-16443093D02*
X12930714Y-16481188D01*
X12930714Y-16481188D02*
X12921191Y-16500236D01*
X12921191Y-16500236D02*
X12911667Y-16509760D01*
X12911667Y-16509760D02*
X12892619Y-16519284D01*
X12892619Y-16519284D02*
X12873572Y-16519284D01*
X12873572Y-16519284D02*
X12854524Y-16509760D01*
X12854524Y-16509760D02*
X12845000Y-16500236D01*
X12845000Y-16500236D02*
X12835476Y-16481188D01*
X12835476Y-16481188D02*
X12825953Y-16443093D01*
X12825953Y-16443093D02*
X12825953Y-16395474D01*
X12825953Y-16395474D02*
X12835476Y-16357379D01*
X12835476Y-16357379D02*
X12845000Y-16338331D01*
X12845000Y-16338331D02*
X12854524Y-16328808D01*
X12854524Y-16328808D02*
X12873572Y-16319284D01*
X13025953Y-16500236D02*
X13035476Y-16509760D01*
X13035476Y-16509760D02*
X13025953Y-16519284D01*
X13025953Y-16519284D02*
X13016429Y-16509760D01*
X13016429Y-16509760D02*
X13025953Y-16500236D01*
X13025953Y-16500236D02*
X13025953Y-16519284D01*
X13159286Y-16319284D02*
X13178334Y-16319284D01*
X13178334Y-16319284D02*
X13197381Y-16328808D01*
X13197381Y-16328808D02*
X13206905Y-16338331D01*
X13206905Y-16338331D02*
X13216429Y-16357379D01*
X13216429Y-16357379D02*
X13225953Y-16395474D01*
X13225953Y-16395474D02*
X13225953Y-16443093D01*
X13225953Y-16443093D02*
X13216429Y-16481188D01*
X13216429Y-16481188D02*
X13206905Y-16500236D01*
X13206905Y-16500236D02*
X13197381Y-16509760D01*
X13197381Y-16509760D02*
X13178334Y-16519284D01*
X13178334Y-16519284D02*
X13159286Y-16519284D01*
X13159286Y-16519284D02*
X13140238Y-16509760D01*
X13140238Y-16509760D02*
X13130714Y-16500236D01*
X13130714Y-16500236D02*
X13121191Y-16481188D01*
X13121191Y-16481188D02*
X13111667Y-16443093D01*
X13111667Y-16443093D02*
X13111667Y-16395474D01*
X13111667Y-16395474D02*
X13121191Y-16357379D01*
X13121191Y-16357379D02*
X13130714Y-16338331D01*
X13130714Y-16338331D02*
X13140238Y-16328808D01*
X13140238Y-16328808D02*
X13159286Y-16319284D01*
X13292619Y-16319284D02*
X13416429Y-16319284D01*
X13416429Y-16319284D02*
X13349762Y-16395474D01*
X13349762Y-16395474D02*
X13378334Y-16395474D01*
X13378334Y-16395474D02*
X13397381Y-16404998D01*
X13397381Y-16404998D02*
X13406905Y-16414522D01*
X13406905Y-16414522D02*
X13416429Y-16433569D01*
X13416429Y-16433569D02*
X13416429Y-16481188D01*
X13416429Y-16481188D02*
X13406905Y-16500236D01*
X13406905Y-16500236D02*
X13397381Y-16509760D01*
X13397381Y-16509760D02*
X13378334Y-16519284D01*
X13378334Y-16519284D02*
X13321191Y-16519284D01*
X13321191Y-16519284D02*
X13302143Y-16509760D01*
X13302143Y-16509760D02*
X13292619Y-16500236D01*
X13511667Y-16519284D02*
X13549762Y-16519284D01*
X13549762Y-16519284D02*
X13568810Y-16509760D01*
X13568810Y-16509760D02*
X13578334Y-16500236D01*
X13578334Y-16500236D02*
X13597381Y-16471665D01*
X13597381Y-16471665D02*
X13606905Y-16433569D01*
X13606905Y-16433569D02*
X13606905Y-16357379D01*
X13606905Y-16357379D02*
X13597381Y-16338331D01*
X13597381Y-16338331D02*
X13587857Y-16328808D01*
X13587857Y-16328808D02*
X13568810Y-16319284D01*
X13568810Y-16319284D02*
X13530714Y-16319284D01*
X13530714Y-16319284D02*
X13511667Y-16328808D01*
X13511667Y-16328808D02*
X13502143Y-16338331D01*
X13502143Y-16338331D02*
X13492619Y-16357379D01*
X13492619Y-16357379D02*
X13492619Y-16404998D01*
X13492619Y-16404998D02*
X13502143Y-16424046D01*
X13502143Y-16424046D02*
X13511667Y-16433569D01*
X13511667Y-16433569D02*
X13530714Y-16443093D01*
X13530714Y-16443093D02*
X13568810Y-16443093D01*
X13568810Y-16443093D02*
X13587857Y-16433569D01*
X13587857Y-16433569D02*
X13597381Y-16424046D01*
X13597381Y-16424046D02*
X13606905Y-16404998D01*
X13778334Y-16385950D02*
X13778334Y-16519284D01*
X13730714Y-16309760D02*
X13683095Y-16452617D01*
X13683095Y-16452617D02*
X13806905Y-16452617D01*
X13873572Y-16319284D02*
X13873572Y-16357379D01*
X13949762Y-16319284D02*
X13949762Y-16357379D01*
X14245000Y-16595474D02*
X14235476Y-16585950D01*
X14235476Y-16585950D02*
X14216429Y-16557379D01*
X14216429Y-16557379D02*
X14206905Y-16538331D01*
X14206905Y-16538331D02*
X14197381Y-16509760D01*
X14197381Y-16509760D02*
X14187857Y-16462141D01*
X14187857Y-16462141D02*
X14187857Y-16424046D01*
X14187857Y-16424046D02*
X14197381Y-16376427D01*
X14197381Y-16376427D02*
X14206905Y-16347855D01*
X14206905Y-16347855D02*
X14216429Y-16328808D01*
X14216429Y-16328808D02*
X14235476Y-16300236D01*
X14235476Y-16300236D02*
X14245000Y-16290712D01*
X14406905Y-16319284D02*
X14368810Y-16319284D01*
X14368810Y-16319284D02*
X14349762Y-16328808D01*
X14349762Y-16328808D02*
X14340238Y-16338331D01*
X14340238Y-16338331D02*
X14321191Y-16366903D01*
X14321191Y-16366903D02*
X14311667Y-16404998D01*
X14311667Y-16404998D02*
X14311667Y-16481188D01*
X14311667Y-16481188D02*
X14321191Y-16500236D01*
X14321191Y-16500236D02*
X14330715Y-16509760D01*
X14330715Y-16509760D02*
X14349762Y-16519284D01*
X14349762Y-16519284D02*
X14387857Y-16519284D01*
X14387857Y-16519284D02*
X14406905Y-16509760D01*
X14406905Y-16509760D02*
X14416429Y-16500236D01*
X14416429Y-16500236D02*
X14425953Y-16481188D01*
X14425953Y-16481188D02*
X14425953Y-16433569D01*
X14425953Y-16433569D02*
X14416429Y-16414522D01*
X14416429Y-16414522D02*
X14406905Y-16404998D01*
X14406905Y-16404998D02*
X14387857Y-16395474D01*
X14387857Y-16395474D02*
X14349762Y-16395474D01*
X14349762Y-16395474D02*
X14330715Y-16404998D01*
X14330715Y-16404998D02*
X14321191Y-16414522D01*
X14321191Y-16414522D02*
X14311667Y-16433569D01*
X14597381Y-16319284D02*
X14559286Y-16319284D01*
X14559286Y-16319284D02*
X14540238Y-16328808D01*
X14540238Y-16328808D02*
X14530715Y-16338331D01*
X14530715Y-16338331D02*
X14511667Y-16366903D01*
X14511667Y-16366903D02*
X14502143Y-16404998D01*
X14502143Y-16404998D02*
X14502143Y-16481188D01*
X14502143Y-16481188D02*
X14511667Y-16500236D01*
X14511667Y-16500236D02*
X14521191Y-16509760D01*
X14521191Y-16509760D02*
X14540238Y-16519284D01*
X14540238Y-16519284D02*
X14578334Y-16519284D01*
X14578334Y-16519284D02*
X14597381Y-16509760D01*
X14597381Y-16509760D02*
X14606905Y-16500236D01*
X14606905Y-16500236D02*
X14616429Y-16481188D01*
X14616429Y-16481188D02*
X14616429Y-16433569D01*
X14616429Y-16433569D02*
X14606905Y-16414522D01*
X14606905Y-16414522D02*
X14597381Y-16404998D01*
X14597381Y-16404998D02*
X14578334Y-16395474D01*
X14578334Y-16395474D02*
X14540238Y-16395474D01*
X14540238Y-16395474D02*
X14521191Y-16404998D01*
X14521191Y-16404998D02*
X14511667Y-16414522D01*
X14511667Y-16414522D02*
X14502143Y-16433569D01*
X14854524Y-16519284D02*
X14854524Y-16319284D01*
X14940238Y-16519284D02*
X14940238Y-16414522D01*
X14940238Y-16414522D02*
X14930715Y-16395474D01*
X14930715Y-16395474D02*
X14911667Y-16385950D01*
X14911667Y-16385950D02*
X14883096Y-16385950D01*
X14883096Y-16385950D02*
X14864048Y-16395474D01*
X14864048Y-16395474D02*
X14854524Y-16404998D01*
X15064048Y-16519284D02*
X15045000Y-16509760D01*
X15045000Y-16509760D02*
X15035477Y-16500236D01*
X15035477Y-16500236D02*
X15025953Y-16481188D01*
X15025953Y-16481188D02*
X15025953Y-16424046D01*
X15025953Y-16424046D02*
X15035477Y-16404998D01*
X15035477Y-16404998D02*
X15045000Y-16395474D01*
X15045000Y-16395474D02*
X15064048Y-16385950D01*
X15064048Y-16385950D02*
X15092619Y-16385950D01*
X15092619Y-16385950D02*
X15111667Y-16395474D01*
X15111667Y-16395474D02*
X15121191Y-16404998D01*
X15121191Y-16404998D02*
X15130715Y-16424046D01*
X15130715Y-16424046D02*
X15130715Y-16481188D01*
X15130715Y-16481188D02*
X15121191Y-16500236D01*
X15121191Y-16500236D02*
X15111667Y-16509760D01*
X15111667Y-16509760D02*
X15092619Y-16519284D01*
X15092619Y-16519284D02*
X15064048Y-16519284D01*
X15245000Y-16519284D02*
X15225953Y-16509760D01*
X15225953Y-16509760D02*
X15216429Y-16490712D01*
X15216429Y-16490712D02*
X15216429Y-16319284D01*
X15397381Y-16509760D02*
X15378334Y-16519284D01*
X15378334Y-16519284D02*
X15340238Y-16519284D01*
X15340238Y-16519284D02*
X15321191Y-16509760D01*
X15321191Y-16509760D02*
X15311667Y-16490712D01*
X15311667Y-16490712D02*
X15311667Y-16414522D01*
X15311667Y-16414522D02*
X15321191Y-16395474D01*
X15321191Y-16395474D02*
X15340238Y-16385950D01*
X15340238Y-16385950D02*
X15378334Y-16385950D01*
X15378334Y-16385950D02*
X15397381Y-16395474D01*
X15397381Y-16395474D02*
X15406905Y-16414522D01*
X15406905Y-16414522D02*
X15406905Y-16433569D01*
X15406905Y-16433569D02*
X15311667Y-16452617D01*
X15483096Y-16509760D02*
X15502143Y-16519284D01*
X15502143Y-16519284D02*
X15540238Y-16519284D01*
X15540238Y-16519284D02*
X15559286Y-16509760D01*
X15559286Y-16509760D02*
X15568810Y-16490712D01*
X15568810Y-16490712D02*
X15568810Y-16481188D01*
X15568810Y-16481188D02*
X15559286Y-16462141D01*
X15559286Y-16462141D02*
X15540238Y-16452617D01*
X15540238Y-16452617D02*
X15511667Y-16452617D01*
X15511667Y-16452617D02*
X15492619Y-16443093D01*
X15492619Y-16443093D02*
X15483096Y-16424046D01*
X15483096Y-16424046D02*
X15483096Y-16414522D01*
X15483096Y-16414522D02*
X15492619Y-16395474D01*
X15492619Y-16395474D02*
X15511667Y-16385950D01*
X15511667Y-16385950D02*
X15540238Y-16385950D01*
X15540238Y-16385950D02*
X15559286Y-16395474D01*
X15635477Y-16595474D02*
X15645000Y-16585950D01*
X15645000Y-16585950D02*
X15664048Y-16557379D01*
X15664048Y-16557379D02*
X15673572Y-16538331D01*
X15673572Y-16538331D02*
X15683096Y-16509760D01*
X15683096Y-16509760D02*
X15692619Y-16462141D01*
X15692619Y-16462141D02*
X15692619Y-16424046D01*
X15692619Y-16424046D02*
X15683096Y-16376427D01*
X15683096Y-16376427D02*
X15673572Y-16347855D01*
X15673572Y-16347855D02*
X15664048Y-16328808D01*
X15664048Y-16328808D02*
X15645000Y-16300236D01*
X15645000Y-16300236D02*
X15635477Y-16290712D01*
D13*
X10559938Y-16636800D02*
X10669938Y-16746800D01*
X10669938Y-16636800D02*
X10559938Y-16746800D01*
X10669938Y-16691800D02*
G75*
G02*
X10559938Y-16691800I-55000J0D01*
G01*
X10559938Y-16691800D02*
G75*
G02*
X10669938Y-16691800I55000J0D01*
G01*
D11*
X11035476Y-16783284D02*
X10921191Y-16783284D01*
X10978333Y-16783284D02*
X10978333Y-16583284D01*
X10978333Y-16583284D02*
X10959286Y-16611855D01*
X10959286Y-16611855D02*
X10940238Y-16630903D01*
X10940238Y-16630903D02*
X10921191Y-16640427D01*
X11121191Y-16764236D02*
X11130714Y-16773760D01*
X11130714Y-16773760D02*
X11121191Y-16783284D01*
X11121191Y-16783284D02*
X11111667Y-16773760D01*
X11111667Y-16773760D02*
X11121191Y-16764236D01*
X11121191Y-16764236D02*
X11121191Y-16783284D01*
X11321190Y-16783284D02*
X11206905Y-16783284D01*
X11264048Y-16783284D02*
X11264048Y-16583284D01*
X11264048Y-16583284D02*
X11245000Y-16611855D01*
X11245000Y-16611855D02*
X11225952Y-16630903D01*
X11225952Y-16630903D02*
X11206905Y-16640427D01*
X11445000Y-16583284D02*
X11464048Y-16583284D01*
X11464048Y-16583284D02*
X11483095Y-16592808D01*
X11483095Y-16592808D02*
X11492619Y-16602331D01*
X11492619Y-16602331D02*
X11502143Y-16621379D01*
X11502143Y-16621379D02*
X11511667Y-16659474D01*
X11511667Y-16659474D02*
X11511667Y-16707093D01*
X11511667Y-16707093D02*
X11502143Y-16745188D01*
X11502143Y-16745188D02*
X11492619Y-16764236D01*
X11492619Y-16764236D02*
X11483095Y-16773760D01*
X11483095Y-16773760D02*
X11464048Y-16783284D01*
X11464048Y-16783284D02*
X11445000Y-16783284D01*
X11445000Y-16783284D02*
X11425952Y-16773760D01*
X11425952Y-16773760D02*
X11416429Y-16764236D01*
X11416429Y-16764236D02*
X11406905Y-16745188D01*
X11406905Y-16745188D02*
X11397381Y-16707093D01*
X11397381Y-16707093D02*
X11397381Y-16659474D01*
X11397381Y-16659474D02*
X11406905Y-16621379D01*
X11406905Y-16621379D02*
X11416429Y-16602331D01*
X11416429Y-16602331D02*
X11425952Y-16592808D01*
X11425952Y-16592808D02*
X11445000Y-16583284D01*
X11635476Y-16583284D02*
X11654524Y-16583284D01*
X11654524Y-16583284D02*
X11673571Y-16592808D01*
X11673571Y-16592808D02*
X11683095Y-16602331D01*
X11683095Y-16602331D02*
X11692619Y-16621379D01*
X11692619Y-16621379D02*
X11702143Y-16659474D01*
X11702143Y-16659474D02*
X11702143Y-16707093D01*
X11702143Y-16707093D02*
X11692619Y-16745188D01*
X11692619Y-16745188D02*
X11683095Y-16764236D01*
X11683095Y-16764236D02*
X11673571Y-16773760D01*
X11673571Y-16773760D02*
X11654524Y-16783284D01*
X11654524Y-16783284D02*
X11635476Y-16783284D01*
X11635476Y-16783284D02*
X11616429Y-16773760D01*
X11616429Y-16773760D02*
X11606905Y-16764236D01*
X11606905Y-16764236D02*
X11597381Y-16745188D01*
X11597381Y-16745188D02*
X11587857Y-16707093D01*
X11587857Y-16707093D02*
X11587857Y-16659474D01*
X11587857Y-16659474D02*
X11597381Y-16621379D01*
X11597381Y-16621379D02*
X11606905Y-16602331D01*
X11606905Y-16602331D02*
X11616429Y-16592808D01*
X11616429Y-16592808D02*
X11635476Y-16583284D01*
X11787857Y-16783284D02*
X11787857Y-16649950D01*
X11787857Y-16668998D02*
X11797381Y-16659474D01*
X11797381Y-16659474D02*
X11816429Y-16649950D01*
X11816429Y-16649950D02*
X11845000Y-16649950D01*
X11845000Y-16649950D02*
X11864048Y-16659474D01*
X11864048Y-16659474D02*
X11873571Y-16678522D01*
X11873571Y-16678522D02*
X11873571Y-16783284D01*
X11873571Y-16678522D02*
X11883095Y-16659474D01*
X11883095Y-16659474D02*
X11902143Y-16649950D01*
X11902143Y-16649950D02*
X11930714Y-16649950D01*
X11930714Y-16649950D02*
X11949762Y-16659474D01*
X11949762Y-16659474D02*
X11959286Y-16678522D01*
X11959286Y-16678522D02*
X11959286Y-16783284D01*
X12054524Y-16783284D02*
X12054524Y-16649950D01*
X12054524Y-16668998D02*
X12064048Y-16659474D01*
X12064048Y-16659474D02*
X12083095Y-16649950D01*
X12083095Y-16649950D02*
X12111667Y-16649950D01*
X12111667Y-16649950D02*
X12130714Y-16659474D01*
X12130714Y-16659474D02*
X12140238Y-16678522D01*
X12140238Y-16678522D02*
X12140238Y-16783284D01*
X12140238Y-16678522D02*
X12149762Y-16659474D01*
X12149762Y-16659474D02*
X12168810Y-16649950D01*
X12168810Y-16649950D02*
X12197381Y-16649950D01*
X12197381Y-16649950D02*
X12216429Y-16659474D01*
X12216429Y-16659474D02*
X12225952Y-16678522D01*
X12225952Y-16678522D02*
X12225952Y-16783284D01*
X12616429Y-16573760D02*
X12445000Y-16830903D01*
X12873572Y-16583284D02*
X12892619Y-16583284D01*
X12892619Y-16583284D02*
X12911667Y-16592808D01*
X12911667Y-16592808D02*
X12921191Y-16602331D01*
X12921191Y-16602331D02*
X12930714Y-16621379D01*
X12930714Y-16621379D02*
X12940238Y-16659474D01*
X12940238Y-16659474D02*
X12940238Y-16707093D01*
X12940238Y-16707093D02*
X12930714Y-16745188D01*
X12930714Y-16745188D02*
X12921191Y-16764236D01*
X12921191Y-16764236D02*
X12911667Y-16773760D01*
X12911667Y-16773760D02*
X12892619Y-16783284D01*
X12892619Y-16783284D02*
X12873572Y-16783284D01*
X12873572Y-16783284D02*
X12854524Y-16773760D01*
X12854524Y-16773760D02*
X12845000Y-16764236D01*
X12845000Y-16764236D02*
X12835476Y-16745188D01*
X12835476Y-16745188D02*
X12825953Y-16707093D01*
X12825953Y-16707093D02*
X12825953Y-16659474D01*
X12825953Y-16659474D02*
X12835476Y-16621379D01*
X12835476Y-16621379D02*
X12845000Y-16602331D01*
X12845000Y-16602331D02*
X12854524Y-16592808D01*
X12854524Y-16592808D02*
X12873572Y-16583284D01*
X13025953Y-16764236D02*
X13035476Y-16773760D01*
X13035476Y-16773760D02*
X13025953Y-16783284D01*
X13025953Y-16783284D02*
X13016429Y-16773760D01*
X13016429Y-16773760D02*
X13025953Y-16764236D01*
X13025953Y-16764236D02*
X13025953Y-16783284D01*
X13159286Y-16583284D02*
X13178334Y-16583284D01*
X13178334Y-16583284D02*
X13197381Y-16592808D01*
X13197381Y-16592808D02*
X13206905Y-16602331D01*
X13206905Y-16602331D02*
X13216429Y-16621379D01*
X13216429Y-16621379D02*
X13225953Y-16659474D01*
X13225953Y-16659474D02*
X13225953Y-16707093D01*
X13225953Y-16707093D02*
X13216429Y-16745188D01*
X13216429Y-16745188D02*
X13206905Y-16764236D01*
X13206905Y-16764236D02*
X13197381Y-16773760D01*
X13197381Y-16773760D02*
X13178334Y-16783284D01*
X13178334Y-16783284D02*
X13159286Y-16783284D01*
X13159286Y-16783284D02*
X13140238Y-16773760D01*
X13140238Y-16773760D02*
X13130714Y-16764236D01*
X13130714Y-16764236D02*
X13121191Y-16745188D01*
X13121191Y-16745188D02*
X13111667Y-16707093D01*
X13111667Y-16707093D02*
X13111667Y-16659474D01*
X13111667Y-16659474D02*
X13121191Y-16621379D01*
X13121191Y-16621379D02*
X13130714Y-16602331D01*
X13130714Y-16602331D02*
X13140238Y-16592808D01*
X13140238Y-16592808D02*
X13159286Y-16583284D01*
X13397381Y-16649950D02*
X13397381Y-16783284D01*
X13349762Y-16573760D02*
X13302143Y-16716617D01*
X13302143Y-16716617D02*
X13425953Y-16716617D01*
X13483095Y-16583284D02*
X13606905Y-16583284D01*
X13606905Y-16583284D02*
X13540238Y-16659474D01*
X13540238Y-16659474D02*
X13568810Y-16659474D01*
X13568810Y-16659474D02*
X13587857Y-16668998D01*
X13587857Y-16668998D02*
X13597381Y-16678522D01*
X13597381Y-16678522D02*
X13606905Y-16697569D01*
X13606905Y-16697569D02*
X13606905Y-16745188D01*
X13606905Y-16745188D02*
X13597381Y-16764236D01*
X13597381Y-16764236D02*
X13587857Y-16773760D01*
X13587857Y-16773760D02*
X13568810Y-16783284D01*
X13568810Y-16783284D02*
X13511667Y-16783284D01*
X13511667Y-16783284D02*
X13492619Y-16773760D01*
X13492619Y-16773760D02*
X13483095Y-16764236D01*
X13673572Y-16583284D02*
X13797381Y-16583284D01*
X13797381Y-16583284D02*
X13730714Y-16659474D01*
X13730714Y-16659474D02*
X13759286Y-16659474D01*
X13759286Y-16659474D02*
X13778334Y-16668998D01*
X13778334Y-16668998D02*
X13787857Y-16678522D01*
X13787857Y-16678522D02*
X13797381Y-16697569D01*
X13797381Y-16697569D02*
X13797381Y-16745188D01*
X13797381Y-16745188D02*
X13787857Y-16764236D01*
X13787857Y-16764236D02*
X13778334Y-16773760D01*
X13778334Y-16773760D02*
X13759286Y-16783284D01*
X13759286Y-16783284D02*
X13702143Y-16783284D01*
X13702143Y-16783284D02*
X13683095Y-16773760D01*
X13683095Y-16773760D02*
X13673572Y-16764236D01*
X13873572Y-16583284D02*
X13873572Y-16621379D01*
X13949762Y-16583284D02*
X13949762Y-16621379D01*
X14245000Y-16859474D02*
X14235476Y-16849950D01*
X14235476Y-16849950D02*
X14216429Y-16821379D01*
X14216429Y-16821379D02*
X14206905Y-16802331D01*
X14206905Y-16802331D02*
X14197381Y-16773760D01*
X14197381Y-16773760D02*
X14187857Y-16726141D01*
X14187857Y-16726141D02*
X14187857Y-16688046D01*
X14187857Y-16688046D02*
X14197381Y-16640427D01*
X14197381Y-16640427D02*
X14206905Y-16611855D01*
X14206905Y-16611855D02*
X14216429Y-16592808D01*
X14216429Y-16592808D02*
X14235476Y-16564236D01*
X14235476Y-16564236D02*
X14245000Y-16554712D01*
X14425953Y-16783284D02*
X14311667Y-16783284D01*
X14368810Y-16783284D02*
X14368810Y-16583284D01*
X14368810Y-16583284D02*
X14349762Y-16611855D01*
X14349762Y-16611855D02*
X14330715Y-16630903D01*
X14330715Y-16630903D02*
X14311667Y-16640427D01*
X14606905Y-16583284D02*
X14511667Y-16583284D01*
X14511667Y-16583284D02*
X14502143Y-16678522D01*
X14502143Y-16678522D02*
X14511667Y-16668998D01*
X14511667Y-16668998D02*
X14530715Y-16659474D01*
X14530715Y-16659474D02*
X14578334Y-16659474D01*
X14578334Y-16659474D02*
X14597381Y-16668998D01*
X14597381Y-16668998D02*
X14606905Y-16678522D01*
X14606905Y-16678522D02*
X14616429Y-16697569D01*
X14616429Y-16697569D02*
X14616429Y-16745188D01*
X14616429Y-16745188D02*
X14606905Y-16764236D01*
X14606905Y-16764236D02*
X14597381Y-16773760D01*
X14597381Y-16773760D02*
X14578334Y-16783284D01*
X14578334Y-16783284D02*
X14530715Y-16783284D01*
X14530715Y-16783284D02*
X14511667Y-16773760D01*
X14511667Y-16773760D02*
X14502143Y-16764236D01*
X14854524Y-16783284D02*
X14854524Y-16583284D01*
X14940238Y-16783284D02*
X14940238Y-16678522D01*
X14940238Y-16678522D02*
X14930715Y-16659474D01*
X14930715Y-16659474D02*
X14911667Y-16649950D01*
X14911667Y-16649950D02*
X14883096Y-16649950D01*
X14883096Y-16649950D02*
X14864048Y-16659474D01*
X14864048Y-16659474D02*
X14854524Y-16668998D01*
X15064048Y-16783284D02*
X15045000Y-16773760D01*
X15045000Y-16773760D02*
X15035477Y-16764236D01*
X15035477Y-16764236D02*
X15025953Y-16745188D01*
X15025953Y-16745188D02*
X15025953Y-16688046D01*
X15025953Y-16688046D02*
X15035477Y-16668998D01*
X15035477Y-16668998D02*
X15045000Y-16659474D01*
X15045000Y-16659474D02*
X15064048Y-16649950D01*
X15064048Y-16649950D02*
X15092619Y-16649950D01*
X15092619Y-16649950D02*
X15111667Y-16659474D01*
X15111667Y-16659474D02*
X15121191Y-16668998D01*
X15121191Y-16668998D02*
X15130715Y-16688046D01*
X15130715Y-16688046D02*
X15130715Y-16745188D01*
X15130715Y-16745188D02*
X15121191Y-16764236D01*
X15121191Y-16764236D02*
X15111667Y-16773760D01*
X15111667Y-16773760D02*
X15092619Y-16783284D01*
X15092619Y-16783284D02*
X15064048Y-16783284D01*
X15245000Y-16783284D02*
X15225953Y-16773760D01*
X15225953Y-16773760D02*
X15216429Y-16754712D01*
X15216429Y-16754712D02*
X15216429Y-16583284D01*
X15397381Y-16773760D02*
X15378334Y-16783284D01*
X15378334Y-16783284D02*
X15340238Y-16783284D01*
X15340238Y-16783284D02*
X15321191Y-16773760D01*
X15321191Y-16773760D02*
X15311667Y-16754712D01*
X15311667Y-16754712D02*
X15311667Y-16678522D01*
X15311667Y-16678522D02*
X15321191Y-16659474D01*
X15321191Y-16659474D02*
X15340238Y-16649950D01*
X15340238Y-16649950D02*
X15378334Y-16649950D01*
X15378334Y-16649950D02*
X15397381Y-16659474D01*
X15397381Y-16659474D02*
X15406905Y-16678522D01*
X15406905Y-16678522D02*
X15406905Y-16697569D01*
X15406905Y-16697569D02*
X15311667Y-16716617D01*
X15483096Y-16773760D02*
X15502143Y-16783284D01*
X15502143Y-16783284D02*
X15540238Y-16783284D01*
X15540238Y-16783284D02*
X15559286Y-16773760D01*
X15559286Y-16773760D02*
X15568810Y-16754712D01*
X15568810Y-16754712D02*
X15568810Y-16745188D01*
X15568810Y-16745188D02*
X15559286Y-16726141D01*
X15559286Y-16726141D02*
X15540238Y-16716617D01*
X15540238Y-16716617D02*
X15511667Y-16716617D01*
X15511667Y-16716617D02*
X15492619Y-16707093D01*
X15492619Y-16707093D02*
X15483096Y-16688046D01*
X15483096Y-16688046D02*
X15483096Y-16678522D01*
X15483096Y-16678522D02*
X15492619Y-16659474D01*
X15492619Y-16659474D02*
X15511667Y-16649950D01*
X15511667Y-16649950D02*
X15540238Y-16649950D01*
X15540238Y-16649950D02*
X15559286Y-16659474D01*
X15635477Y-16859474D02*
X15645000Y-16849950D01*
X15645000Y-16849950D02*
X15664048Y-16821379D01*
X15664048Y-16821379D02*
X15673572Y-16802331D01*
X15673572Y-16802331D02*
X15683096Y-16773760D01*
X15683096Y-16773760D02*
X15692619Y-16726141D01*
X15692619Y-16726141D02*
X15692619Y-16688046D01*
X15692619Y-16688046D02*
X15683096Y-16640427D01*
X15683096Y-16640427D02*
X15673572Y-16611855D01*
X15673572Y-16611855D02*
X15664048Y-16592808D01*
X15664048Y-16592808D02*
X15645000Y-16564236D01*
X15645000Y-16564236D02*
X15635477Y-16554712D01*
D14*
X10539938Y-16890800D02*
X10669938Y-17020800D01*
X10669938Y-16890800D02*
X10539938Y-17020800D01*
X10604938Y-16890800D02*
X10604938Y-17020800D01*
X10539938Y-16955800D02*
X10669938Y-16955800D01*
D11*
X11035476Y-17047284D02*
X10921191Y-17047284D01*
X10978333Y-17047284D02*
X10978333Y-16847284D01*
X10978333Y-16847284D02*
X10959286Y-16875855D01*
X10959286Y-16875855D02*
X10940238Y-16894903D01*
X10940238Y-16894903D02*
X10921191Y-16904427D01*
X11121191Y-17028236D02*
X11130714Y-17037760D01*
X11130714Y-17037760D02*
X11121191Y-17047284D01*
X11121191Y-17047284D02*
X11111667Y-17037760D01*
X11111667Y-17037760D02*
X11121191Y-17028236D01*
X11121191Y-17028236D02*
X11121191Y-17047284D01*
X11197381Y-16847284D02*
X11321190Y-16847284D01*
X11321190Y-16847284D02*
X11254524Y-16923474D01*
X11254524Y-16923474D02*
X11283095Y-16923474D01*
X11283095Y-16923474D02*
X11302143Y-16932998D01*
X11302143Y-16932998D02*
X11311667Y-16942522D01*
X11311667Y-16942522D02*
X11321190Y-16961570D01*
X11321190Y-16961570D02*
X11321190Y-17009189D01*
X11321190Y-17009189D02*
X11311667Y-17028236D01*
X11311667Y-17028236D02*
X11302143Y-17037760D01*
X11302143Y-17037760D02*
X11283095Y-17047284D01*
X11283095Y-17047284D02*
X11225952Y-17047284D01*
X11225952Y-17047284D02*
X11206905Y-17037760D01*
X11206905Y-17037760D02*
X11197381Y-17028236D01*
X11445000Y-16847284D02*
X11464048Y-16847284D01*
X11464048Y-16847284D02*
X11483095Y-16856808D01*
X11483095Y-16856808D02*
X11492619Y-16866331D01*
X11492619Y-16866331D02*
X11502143Y-16885379D01*
X11502143Y-16885379D02*
X11511667Y-16923474D01*
X11511667Y-16923474D02*
X11511667Y-16971093D01*
X11511667Y-16971093D02*
X11502143Y-17009189D01*
X11502143Y-17009189D02*
X11492619Y-17028236D01*
X11492619Y-17028236D02*
X11483095Y-17037760D01*
X11483095Y-17037760D02*
X11464048Y-17047284D01*
X11464048Y-17047284D02*
X11445000Y-17047284D01*
X11445000Y-17047284D02*
X11425952Y-17037760D01*
X11425952Y-17037760D02*
X11416429Y-17028236D01*
X11416429Y-17028236D02*
X11406905Y-17009189D01*
X11406905Y-17009189D02*
X11397381Y-16971093D01*
X11397381Y-16971093D02*
X11397381Y-16923474D01*
X11397381Y-16923474D02*
X11406905Y-16885379D01*
X11406905Y-16885379D02*
X11416429Y-16866331D01*
X11416429Y-16866331D02*
X11425952Y-16856808D01*
X11425952Y-16856808D02*
X11445000Y-16847284D01*
X11635476Y-16847284D02*
X11654524Y-16847284D01*
X11654524Y-16847284D02*
X11673571Y-16856808D01*
X11673571Y-16856808D02*
X11683095Y-16866331D01*
X11683095Y-16866331D02*
X11692619Y-16885379D01*
X11692619Y-16885379D02*
X11702143Y-16923474D01*
X11702143Y-16923474D02*
X11702143Y-16971093D01*
X11702143Y-16971093D02*
X11692619Y-17009189D01*
X11692619Y-17009189D02*
X11683095Y-17028236D01*
X11683095Y-17028236D02*
X11673571Y-17037760D01*
X11673571Y-17037760D02*
X11654524Y-17047284D01*
X11654524Y-17047284D02*
X11635476Y-17047284D01*
X11635476Y-17047284D02*
X11616429Y-17037760D01*
X11616429Y-17037760D02*
X11606905Y-17028236D01*
X11606905Y-17028236D02*
X11597381Y-17009189D01*
X11597381Y-17009189D02*
X11587857Y-16971093D01*
X11587857Y-16971093D02*
X11587857Y-16923474D01*
X11587857Y-16923474D02*
X11597381Y-16885379D01*
X11597381Y-16885379D02*
X11606905Y-16866331D01*
X11606905Y-16866331D02*
X11616429Y-16856808D01*
X11616429Y-16856808D02*
X11635476Y-16847284D01*
X11787857Y-17047284D02*
X11787857Y-16913950D01*
X11787857Y-16932998D02*
X11797381Y-16923474D01*
X11797381Y-16923474D02*
X11816429Y-16913950D01*
X11816429Y-16913950D02*
X11845000Y-16913950D01*
X11845000Y-16913950D02*
X11864048Y-16923474D01*
X11864048Y-16923474D02*
X11873571Y-16942522D01*
X11873571Y-16942522D02*
X11873571Y-17047284D01*
X11873571Y-16942522D02*
X11883095Y-16923474D01*
X11883095Y-16923474D02*
X11902143Y-16913950D01*
X11902143Y-16913950D02*
X11930714Y-16913950D01*
X11930714Y-16913950D02*
X11949762Y-16923474D01*
X11949762Y-16923474D02*
X11959286Y-16942522D01*
X11959286Y-16942522D02*
X11959286Y-17047284D01*
X12054524Y-17047284D02*
X12054524Y-16913950D01*
X12054524Y-16932998D02*
X12064048Y-16923474D01*
X12064048Y-16923474D02*
X12083095Y-16913950D01*
X12083095Y-16913950D02*
X12111667Y-16913950D01*
X12111667Y-16913950D02*
X12130714Y-16923474D01*
X12130714Y-16923474D02*
X12140238Y-16942522D01*
X12140238Y-16942522D02*
X12140238Y-17047284D01*
X12140238Y-16942522D02*
X12149762Y-16923474D01*
X12149762Y-16923474D02*
X12168810Y-16913950D01*
X12168810Y-16913950D02*
X12197381Y-16913950D01*
X12197381Y-16913950D02*
X12216429Y-16923474D01*
X12216429Y-16923474D02*
X12225952Y-16942522D01*
X12225952Y-16942522D02*
X12225952Y-17047284D01*
X12616429Y-16837760D02*
X12445000Y-17094903D01*
X12873572Y-16847284D02*
X12892619Y-16847284D01*
X12892619Y-16847284D02*
X12911667Y-16856808D01*
X12911667Y-16856808D02*
X12921191Y-16866331D01*
X12921191Y-16866331D02*
X12930714Y-16885379D01*
X12930714Y-16885379D02*
X12940238Y-16923474D01*
X12940238Y-16923474D02*
X12940238Y-16971093D01*
X12940238Y-16971093D02*
X12930714Y-17009189D01*
X12930714Y-17009189D02*
X12921191Y-17028236D01*
X12921191Y-17028236D02*
X12911667Y-17037760D01*
X12911667Y-17037760D02*
X12892619Y-17047284D01*
X12892619Y-17047284D02*
X12873572Y-17047284D01*
X12873572Y-17047284D02*
X12854524Y-17037760D01*
X12854524Y-17037760D02*
X12845000Y-17028236D01*
X12845000Y-17028236D02*
X12835476Y-17009189D01*
X12835476Y-17009189D02*
X12825953Y-16971093D01*
X12825953Y-16971093D02*
X12825953Y-16923474D01*
X12825953Y-16923474D02*
X12835476Y-16885379D01*
X12835476Y-16885379D02*
X12845000Y-16866331D01*
X12845000Y-16866331D02*
X12854524Y-16856808D01*
X12854524Y-16856808D02*
X12873572Y-16847284D01*
X13025953Y-17028236D02*
X13035476Y-17037760D01*
X13035476Y-17037760D02*
X13025953Y-17047284D01*
X13025953Y-17047284D02*
X13016429Y-17037760D01*
X13016429Y-17037760D02*
X13025953Y-17028236D01*
X13025953Y-17028236D02*
X13025953Y-17047284D01*
X13159286Y-16847284D02*
X13178334Y-16847284D01*
X13178334Y-16847284D02*
X13197381Y-16856808D01*
X13197381Y-16856808D02*
X13206905Y-16866331D01*
X13206905Y-16866331D02*
X13216429Y-16885379D01*
X13216429Y-16885379D02*
X13225953Y-16923474D01*
X13225953Y-16923474D02*
X13225953Y-16971093D01*
X13225953Y-16971093D02*
X13216429Y-17009189D01*
X13216429Y-17009189D02*
X13206905Y-17028236D01*
X13206905Y-17028236D02*
X13197381Y-17037760D01*
X13197381Y-17037760D02*
X13178334Y-17047284D01*
X13178334Y-17047284D02*
X13159286Y-17047284D01*
X13159286Y-17047284D02*
X13140238Y-17037760D01*
X13140238Y-17037760D02*
X13130714Y-17028236D01*
X13130714Y-17028236D02*
X13121191Y-17009189D01*
X13121191Y-17009189D02*
X13111667Y-16971093D01*
X13111667Y-16971093D02*
X13111667Y-16923474D01*
X13111667Y-16923474D02*
X13121191Y-16885379D01*
X13121191Y-16885379D02*
X13130714Y-16866331D01*
X13130714Y-16866331D02*
X13140238Y-16856808D01*
X13140238Y-16856808D02*
X13159286Y-16847284D01*
X13406905Y-16847284D02*
X13311667Y-16847284D01*
X13311667Y-16847284D02*
X13302143Y-16942522D01*
X13302143Y-16942522D02*
X13311667Y-16932998D01*
X13311667Y-16932998D02*
X13330714Y-16923474D01*
X13330714Y-16923474D02*
X13378334Y-16923474D01*
X13378334Y-16923474D02*
X13397381Y-16932998D01*
X13397381Y-16932998D02*
X13406905Y-16942522D01*
X13406905Y-16942522D02*
X13416429Y-16961570D01*
X13416429Y-16961570D02*
X13416429Y-17009189D01*
X13416429Y-17009189D02*
X13406905Y-17028236D01*
X13406905Y-17028236D02*
X13397381Y-17037760D01*
X13397381Y-17037760D02*
X13378334Y-17047284D01*
X13378334Y-17047284D02*
X13330714Y-17047284D01*
X13330714Y-17047284D02*
X13311667Y-17037760D01*
X13311667Y-17037760D02*
X13302143Y-17028236D01*
X13606905Y-17047284D02*
X13492619Y-17047284D01*
X13549762Y-17047284D02*
X13549762Y-16847284D01*
X13549762Y-16847284D02*
X13530714Y-16875855D01*
X13530714Y-16875855D02*
X13511667Y-16894903D01*
X13511667Y-16894903D02*
X13492619Y-16904427D01*
X13683095Y-16866331D02*
X13692619Y-16856808D01*
X13692619Y-16856808D02*
X13711667Y-16847284D01*
X13711667Y-16847284D02*
X13759286Y-16847284D01*
X13759286Y-16847284D02*
X13778334Y-16856808D01*
X13778334Y-16856808D02*
X13787857Y-16866331D01*
X13787857Y-16866331D02*
X13797381Y-16885379D01*
X13797381Y-16885379D02*
X13797381Y-16904427D01*
X13797381Y-16904427D02*
X13787857Y-16932998D01*
X13787857Y-16932998D02*
X13673572Y-17047284D01*
X13673572Y-17047284D02*
X13797381Y-17047284D01*
X13873572Y-16847284D02*
X13873572Y-16885379D01*
X13949762Y-16847284D02*
X13949762Y-16885379D01*
X14245000Y-17123474D02*
X14235476Y-17113950D01*
X14235476Y-17113950D02*
X14216429Y-17085379D01*
X14216429Y-17085379D02*
X14206905Y-17066331D01*
X14206905Y-17066331D02*
X14197381Y-17037760D01*
X14197381Y-17037760D02*
X14187857Y-16990141D01*
X14187857Y-16990141D02*
X14187857Y-16952046D01*
X14187857Y-16952046D02*
X14197381Y-16904427D01*
X14197381Y-16904427D02*
X14206905Y-16875855D01*
X14206905Y-16875855D02*
X14216429Y-16856808D01*
X14216429Y-16856808D02*
X14235476Y-16828236D01*
X14235476Y-16828236D02*
X14245000Y-16818712D01*
X14406905Y-16913950D02*
X14406905Y-17047284D01*
X14359286Y-16837760D02*
X14311667Y-16980617D01*
X14311667Y-16980617D02*
X14435476Y-16980617D01*
X14664048Y-17047284D02*
X14664048Y-16847284D01*
X14749762Y-17047284D02*
X14749762Y-16942522D01*
X14749762Y-16942522D02*
X14740238Y-16923474D01*
X14740238Y-16923474D02*
X14721191Y-16913950D01*
X14721191Y-16913950D02*
X14692619Y-16913950D01*
X14692619Y-16913950D02*
X14673572Y-16923474D01*
X14673572Y-16923474D02*
X14664048Y-16932998D01*
X14873572Y-17047284D02*
X14854524Y-17037760D01*
X14854524Y-17037760D02*
X14845000Y-17028236D01*
X14845000Y-17028236D02*
X14835477Y-17009189D01*
X14835477Y-17009189D02*
X14835477Y-16952046D01*
X14835477Y-16952046D02*
X14845000Y-16932998D01*
X14845000Y-16932998D02*
X14854524Y-16923474D01*
X14854524Y-16923474D02*
X14873572Y-16913950D01*
X14873572Y-16913950D02*
X14902143Y-16913950D01*
X14902143Y-16913950D02*
X14921191Y-16923474D01*
X14921191Y-16923474D02*
X14930715Y-16932998D01*
X14930715Y-16932998D02*
X14940238Y-16952046D01*
X14940238Y-16952046D02*
X14940238Y-17009189D01*
X14940238Y-17009189D02*
X14930715Y-17028236D01*
X14930715Y-17028236D02*
X14921191Y-17037760D01*
X14921191Y-17037760D02*
X14902143Y-17047284D01*
X14902143Y-17047284D02*
X14873572Y-17047284D01*
X15054524Y-17047284D02*
X15035477Y-17037760D01*
X15035477Y-17037760D02*
X15025953Y-17018712D01*
X15025953Y-17018712D02*
X15025953Y-16847284D01*
X15206905Y-17037760D02*
X15187858Y-17047284D01*
X15187858Y-17047284D02*
X15149762Y-17047284D01*
X15149762Y-17047284D02*
X15130715Y-17037760D01*
X15130715Y-17037760D02*
X15121191Y-17018712D01*
X15121191Y-17018712D02*
X15121191Y-16942522D01*
X15121191Y-16942522D02*
X15130715Y-16923474D01*
X15130715Y-16923474D02*
X15149762Y-16913950D01*
X15149762Y-16913950D02*
X15187858Y-16913950D01*
X15187858Y-16913950D02*
X15206905Y-16923474D01*
X15206905Y-16923474D02*
X15216429Y-16942522D01*
X15216429Y-16942522D02*
X15216429Y-16961570D01*
X15216429Y-16961570D02*
X15121191Y-16980617D01*
X15292619Y-17037760D02*
X15311667Y-17047284D01*
X15311667Y-17047284D02*
X15349762Y-17047284D01*
X15349762Y-17047284D02*
X15368810Y-17037760D01*
X15368810Y-17037760D02*
X15378334Y-17018712D01*
X15378334Y-17018712D02*
X15378334Y-17009189D01*
X15378334Y-17009189D02*
X15368810Y-16990141D01*
X15368810Y-16990141D02*
X15349762Y-16980617D01*
X15349762Y-16980617D02*
X15321191Y-16980617D01*
X15321191Y-16980617D02*
X15302143Y-16971093D01*
X15302143Y-16971093D02*
X15292619Y-16952046D01*
X15292619Y-16952046D02*
X15292619Y-16942522D01*
X15292619Y-16942522D02*
X15302143Y-16923474D01*
X15302143Y-16923474D02*
X15321191Y-16913950D01*
X15321191Y-16913950D02*
X15349762Y-16913950D01*
X15349762Y-16913950D02*
X15368810Y-16923474D01*
X15445000Y-17123474D02*
X15454524Y-17113950D01*
X15454524Y-17113950D02*
X15473572Y-17085379D01*
X15473572Y-17085379D02*
X15483096Y-17066331D01*
X15483096Y-17066331D02*
X15492619Y-17037760D01*
X15492619Y-17037760D02*
X15502143Y-16990141D01*
X15502143Y-16990141D02*
X15502143Y-16952046D01*
X15502143Y-16952046D02*
X15492619Y-16904427D01*
X15492619Y-16904427D02*
X15483096Y-16875855D01*
X15483096Y-16875855D02*
X15473572Y-16856808D01*
X15473572Y-16856808D02*
X15454524Y-16828236D01*
X15454524Y-16828236D02*
X15445000Y-16818712D01*
X10469938Y-17119800D02*
X10669938Y-17319800D01*
X10669938Y-17119800D02*
X10469938Y-17319800D01*
X10640649Y-17290511D02*
X10640649Y-17149089D01*
X10499226Y-17149089D01*
X10499226Y-17290511D01*
X10640649Y-17290511D01*
X10921191Y-17130331D02*
X10930714Y-17120808D01*
X10930714Y-17120808D02*
X10949762Y-17111284D01*
X10949762Y-17111284D02*
X10997381Y-17111284D01*
X10997381Y-17111284D02*
X11016429Y-17120808D01*
X11016429Y-17120808D02*
X11025952Y-17130331D01*
X11025952Y-17130331D02*
X11035476Y-17149379D01*
X11035476Y-17149379D02*
X11035476Y-17168427D01*
X11035476Y-17168427D02*
X11025952Y-17196998D01*
X11025952Y-17196998D02*
X10911667Y-17311284D01*
X10911667Y-17311284D02*
X11035476Y-17311284D01*
X11121191Y-17292236D02*
X11130714Y-17301760D01*
X11130714Y-17301760D02*
X11121191Y-17311284D01*
X11121191Y-17311284D02*
X11111667Y-17301760D01*
X11111667Y-17301760D02*
X11121191Y-17292236D01*
X11121191Y-17292236D02*
X11121191Y-17311284D01*
X11254524Y-17111284D02*
X11273571Y-17111284D01*
X11273571Y-17111284D02*
X11292619Y-17120808D01*
X11292619Y-17120808D02*
X11302143Y-17130331D01*
X11302143Y-17130331D02*
X11311667Y-17149379D01*
X11311667Y-17149379D02*
X11321190Y-17187474D01*
X11321190Y-17187474D02*
X11321190Y-17235093D01*
X11321190Y-17235093D02*
X11311667Y-17273189D01*
X11311667Y-17273189D02*
X11302143Y-17292236D01*
X11302143Y-17292236D02*
X11292619Y-17301760D01*
X11292619Y-17301760D02*
X11273571Y-17311284D01*
X11273571Y-17311284D02*
X11254524Y-17311284D01*
X11254524Y-17311284D02*
X11235476Y-17301760D01*
X11235476Y-17301760D02*
X11225952Y-17292236D01*
X11225952Y-17292236D02*
X11216429Y-17273189D01*
X11216429Y-17273189D02*
X11206905Y-17235093D01*
X11206905Y-17235093D02*
X11206905Y-17187474D01*
X11206905Y-17187474D02*
X11216429Y-17149379D01*
X11216429Y-17149379D02*
X11225952Y-17130331D01*
X11225952Y-17130331D02*
X11235476Y-17120808D01*
X11235476Y-17120808D02*
X11254524Y-17111284D01*
X11445000Y-17111284D02*
X11464048Y-17111284D01*
X11464048Y-17111284D02*
X11483095Y-17120808D01*
X11483095Y-17120808D02*
X11492619Y-17130331D01*
X11492619Y-17130331D02*
X11502143Y-17149379D01*
X11502143Y-17149379D02*
X11511667Y-17187474D01*
X11511667Y-17187474D02*
X11511667Y-17235093D01*
X11511667Y-17235093D02*
X11502143Y-17273189D01*
X11502143Y-17273189D02*
X11492619Y-17292236D01*
X11492619Y-17292236D02*
X11483095Y-17301760D01*
X11483095Y-17301760D02*
X11464048Y-17311284D01*
X11464048Y-17311284D02*
X11445000Y-17311284D01*
X11445000Y-17311284D02*
X11425952Y-17301760D01*
X11425952Y-17301760D02*
X11416429Y-17292236D01*
X11416429Y-17292236D02*
X11406905Y-17273189D01*
X11406905Y-17273189D02*
X11397381Y-17235093D01*
X11397381Y-17235093D02*
X11397381Y-17187474D01*
X11397381Y-17187474D02*
X11406905Y-17149379D01*
X11406905Y-17149379D02*
X11416429Y-17130331D01*
X11416429Y-17130331D02*
X11425952Y-17120808D01*
X11425952Y-17120808D02*
X11445000Y-17111284D01*
X11635476Y-17111284D02*
X11654524Y-17111284D01*
X11654524Y-17111284D02*
X11673571Y-17120808D01*
X11673571Y-17120808D02*
X11683095Y-17130331D01*
X11683095Y-17130331D02*
X11692619Y-17149379D01*
X11692619Y-17149379D02*
X11702143Y-17187474D01*
X11702143Y-17187474D02*
X11702143Y-17235093D01*
X11702143Y-17235093D02*
X11692619Y-17273189D01*
X11692619Y-17273189D02*
X11683095Y-17292236D01*
X11683095Y-17292236D02*
X11673571Y-17301760D01*
X11673571Y-17301760D02*
X11654524Y-17311284D01*
X11654524Y-17311284D02*
X11635476Y-17311284D01*
X11635476Y-17311284D02*
X11616429Y-17301760D01*
X11616429Y-17301760D02*
X11606905Y-17292236D01*
X11606905Y-17292236D02*
X11597381Y-17273189D01*
X11597381Y-17273189D02*
X11587857Y-17235093D01*
X11587857Y-17235093D02*
X11587857Y-17187474D01*
X11587857Y-17187474D02*
X11597381Y-17149379D01*
X11597381Y-17149379D02*
X11606905Y-17130331D01*
X11606905Y-17130331D02*
X11616429Y-17120808D01*
X11616429Y-17120808D02*
X11635476Y-17111284D01*
X11787857Y-17311284D02*
X11787857Y-17177950D01*
X11787857Y-17196998D02*
X11797381Y-17187474D01*
X11797381Y-17187474D02*
X11816429Y-17177950D01*
X11816429Y-17177950D02*
X11845000Y-17177950D01*
X11845000Y-17177950D02*
X11864048Y-17187474D01*
X11864048Y-17187474D02*
X11873571Y-17206522D01*
X11873571Y-17206522D02*
X11873571Y-17311284D01*
X11873571Y-17206522D02*
X11883095Y-17187474D01*
X11883095Y-17187474D02*
X11902143Y-17177950D01*
X11902143Y-17177950D02*
X11930714Y-17177950D01*
X11930714Y-17177950D02*
X11949762Y-17187474D01*
X11949762Y-17187474D02*
X11959286Y-17206522D01*
X11959286Y-17206522D02*
X11959286Y-17311284D01*
X12054524Y-17311284D02*
X12054524Y-17177950D01*
X12054524Y-17196998D02*
X12064048Y-17187474D01*
X12064048Y-17187474D02*
X12083095Y-17177950D01*
X12083095Y-17177950D02*
X12111667Y-17177950D01*
X12111667Y-17177950D02*
X12130714Y-17187474D01*
X12130714Y-17187474D02*
X12140238Y-17206522D01*
X12140238Y-17206522D02*
X12140238Y-17311284D01*
X12140238Y-17206522D02*
X12149762Y-17187474D01*
X12149762Y-17187474D02*
X12168810Y-17177950D01*
X12168810Y-17177950D02*
X12197381Y-17177950D01*
X12197381Y-17177950D02*
X12216429Y-17187474D01*
X12216429Y-17187474D02*
X12225952Y-17206522D01*
X12225952Y-17206522D02*
X12225952Y-17311284D01*
X12616429Y-17101760D02*
X12445000Y-17358903D01*
X12873572Y-17111284D02*
X12892619Y-17111284D01*
X12892619Y-17111284D02*
X12911667Y-17120808D01*
X12911667Y-17120808D02*
X12921191Y-17130331D01*
X12921191Y-17130331D02*
X12930714Y-17149379D01*
X12930714Y-17149379D02*
X12940238Y-17187474D01*
X12940238Y-17187474D02*
X12940238Y-17235093D01*
X12940238Y-17235093D02*
X12930714Y-17273189D01*
X12930714Y-17273189D02*
X12921191Y-17292236D01*
X12921191Y-17292236D02*
X12911667Y-17301760D01*
X12911667Y-17301760D02*
X12892619Y-17311284D01*
X12892619Y-17311284D02*
X12873572Y-17311284D01*
X12873572Y-17311284D02*
X12854524Y-17301760D01*
X12854524Y-17301760D02*
X12845000Y-17292236D01*
X12845000Y-17292236D02*
X12835476Y-17273189D01*
X12835476Y-17273189D02*
X12825953Y-17235093D01*
X12825953Y-17235093D02*
X12825953Y-17187474D01*
X12825953Y-17187474D02*
X12835476Y-17149379D01*
X12835476Y-17149379D02*
X12845000Y-17130331D01*
X12845000Y-17130331D02*
X12854524Y-17120808D01*
X12854524Y-17120808D02*
X12873572Y-17111284D01*
X13025953Y-17292236D02*
X13035476Y-17301760D01*
X13035476Y-17301760D02*
X13025953Y-17311284D01*
X13025953Y-17311284D02*
X13016429Y-17301760D01*
X13016429Y-17301760D02*
X13025953Y-17292236D01*
X13025953Y-17292236D02*
X13025953Y-17311284D01*
X13159286Y-17111284D02*
X13178334Y-17111284D01*
X13178334Y-17111284D02*
X13197381Y-17120808D01*
X13197381Y-17120808D02*
X13206905Y-17130331D01*
X13206905Y-17130331D02*
X13216429Y-17149379D01*
X13216429Y-17149379D02*
X13225953Y-17187474D01*
X13225953Y-17187474D02*
X13225953Y-17235093D01*
X13225953Y-17235093D02*
X13216429Y-17273189D01*
X13216429Y-17273189D02*
X13206905Y-17292236D01*
X13206905Y-17292236D02*
X13197381Y-17301760D01*
X13197381Y-17301760D02*
X13178334Y-17311284D01*
X13178334Y-17311284D02*
X13159286Y-17311284D01*
X13159286Y-17311284D02*
X13140238Y-17301760D01*
X13140238Y-17301760D02*
X13130714Y-17292236D01*
X13130714Y-17292236D02*
X13121191Y-17273189D01*
X13121191Y-17273189D02*
X13111667Y-17235093D01*
X13111667Y-17235093D02*
X13111667Y-17187474D01*
X13111667Y-17187474D02*
X13121191Y-17149379D01*
X13121191Y-17149379D02*
X13130714Y-17130331D01*
X13130714Y-17130331D02*
X13140238Y-17120808D01*
X13140238Y-17120808D02*
X13159286Y-17111284D01*
X13292619Y-17111284D02*
X13425953Y-17111284D01*
X13425953Y-17111284D02*
X13340238Y-17311284D01*
X13530714Y-17196998D02*
X13511667Y-17187474D01*
X13511667Y-17187474D02*
X13502143Y-17177950D01*
X13502143Y-17177950D02*
X13492619Y-17158903D01*
X13492619Y-17158903D02*
X13492619Y-17149379D01*
X13492619Y-17149379D02*
X13502143Y-17130331D01*
X13502143Y-17130331D02*
X13511667Y-17120808D01*
X13511667Y-17120808D02*
X13530714Y-17111284D01*
X13530714Y-17111284D02*
X13568810Y-17111284D01*
X13568810Y-17111284D02*
X13587857Y-17120808D01*
X13587857Y-17120808D02*
X13597381Y-17130331D01*
X13597381Y-17130331D02*
X13606905Y-17149379D01*
X13606905Y-17149379D02*
X13606905Y-17158903D01*
X13606905Y-17158903D02*
X13597381Y-17177950D01*
X13597381Y-17177950D02*
X13587857Y-17187474D01*
X13587857Y-17187474D02*
X13568810Y-17196998D01*
X13568810Y-17196998D02*
X13530714Y-17196998D01*
X13530714Y-17196998D02*
X13511667Y-17206522D01*
X13511667Y-17206522D02*
X13502143Y-17216046D01*
X13502143Y-17216046D02*
X13492619Y-17235093D01*
X13492619Y-17235093D02*
X13492619Y-17273189D01*
X13492619Y-17273189D02*
X13502143Y-17292236D01*
X13502143Y-17292236D02*
X13511667Y-17301760D01*
X13511667Y-17301760D02*
X13530714Y-17311284D01*
X13530714Y-17311284D02*
X13568810Y-17311284D01*
X13568810Y-17311284D02*
X13587857Y-17301760D01*
X13587857Y-17301760D02*
X13597381Y-17292236D01*
X13597381Y-17292236D02*
X13606905Y-17273189D01*
X13606905Y-17273189D02*
X13606905Y-17235093D01*
X13606905Y-17235093D02*
X13597381Y-17216046D01*
X13597381Y-17216046D02*
X13587857Y-17206522D01*
X13587857Y-17206522D02*
X13568810Y-17196998D01*
X13673572Y-17111284D02*
X13806905Y-17111284D01*
X13806905Y-17111284D02*
X13721191Y-17311284D01*
X13873572Y-17111284D02*
X13873572Y-17149379D01*
X13949762Y-17111284D02*
X13949762Y-17149379D01*
X14245000Y-17387474D02*
X14235476Y-17377950D01*
X14235476Y-17377950D02*
X14216429Y-17349379D01*
X14216429Y-17349379D02*
X14206905Y-17330331D01*
X14206905Y-17330331D02*
X14197381Y-17301760D01*
X14197381Y-17301760D02*
X14187857Y-17254141D01*
X14187857Y-17254141D02*
X14187857Y-17216046D01*
X14187857Y-17216046D02*
X14197381Y-17168427D01*
X14197381Y-17168427D02*
X14206905Y-17139855D01*
X14206905Y-17139855D02*
X14216429Y-17120808D01*
X14216429Y-17120808D02*
X14235476Y-17092236D01*
X14235476Y-17092236D02*
X14245000Y-17082712D01*
X14406905Y-17177950D02*
X14406905Y-17311284D01*
X14359286Y-17101760D02*
X14311667Y-17244617D01*
X14311667Y-17244617D02*
X14435476Y-17244617D01*
X14664048Y-17311284D02*
X14664048Y-17111284D01*
X14749762Y-17311284D02*
X14749762Y-17206522D01*
X14749762Y-17206522D02*
X14740238Y-17187474D01*
X14740238Y-17187474D02*
X14721191Y-17177950D01*
X14721191Y-17177950D02*
X14692619Y-17177950D01*
X14692619Y-17177950D02*
X14673572Y-17187474D01*
X14673572Y-17187474D02*
X14664048Y-17196998D01*
X14873572Y-17311284D02*
X14854524Y-17301760D01*
X14854524Y-17301760D02*
X14845000Y-17292236D01*
X14845000Y-17292236D02*
X14835477Y-17273189D01*
X14835477Y-17273189D02*
X14835477Y-17216046D01*
X14835477Y-17216046D02*
X14845000Y-17196998D01*
X14845000Y-17196998D02*
X14854524Y-17187474D01*
X14854524Y-17187474D02*
X14873572Y-17177950D01*
X14873572Y-17177950D02*
X14902143Y-17177950D01*
X14902143Y-17177950D02*
X14921191Y-17187474D01*
X14921191Y-17187474D02*
X14930715Y-17196998D01*
X14930715Y-17196998D02*
X14940238Y-17216046D01*
X14940238Y-17216046D02*
X14940238Y-17273189D01*
X14940238Y-17273189D02*
X14930715Y-17292236D01*
X14930715Y-17292236D02*
X14921191Y-17301760D01*
X14921191Y-17301760D02*
X14902143Y-17311284D01*
X14902143Y-17311284D02*
X14873572Y-17311284D01*
X15054524Y-17311284D02*
X15035477Y-17301760D01*
X15035477Y-17301760D02*
X15025953Y-17282712D01*
X15025953Y-17282712D02*
X15025953Y-17111284D01*
X15206905Y-17301760D02*
X15187858Y-17311284D01*
X15187858Y-17311284D02*
X15149762Y-17311284D01*
X15149762Y-17311284D02*
X15130715Y-17301760D01*
X15130715Y-17301760D02*
X15121191Y-17282712D01*
X15121191Y-17282712D02*
X15121191Y-17206522D01*
X15121191Y-17206522D02*
X15130715Y-17187474D01*
X15130715Y-17187474D02*
X15149762Y-17177950D01*
X15149762Y-17177950D02*
X15187858Y-17177950D01*
X15187858Y-17177950D02*
X15206905Y-17187474D01*
X15206905Y-17187474D02*
X15216429Y-17206522D01*
X15216429Y-17206522D02*
X15216429Y-17225570D01*
X15216429Y-17225570D02*
X15121191Y-17244617D01*
X15292619Y-17301760D02*
X15311667Y-17311284D01*
X15311667Y-17311284D02*
X15349762Y-17311284D01*
X15349762Y-17311284D02*
X15368810Y-17301760D01*
X15368810Y-17301760D02*
X15378334Y-17282712D01*
X15378334Y-17282712D02*
X15378334Y-17273189D01*
X15378334Y-17273189D02*
X15368810Y-17254141D01*
X15368810Y-17254141D02*
X15349762Y-17244617D01*
X15349762Y-17244617D02*
X15321191Y-17244617D01*
X15321191Y-17244617D02*
X15302143Y-17235093D01*
X15302143Y-17235093D02*
X15292619Y-17216046D01*
X15292619Y-17216046D02*
X15292619Y-17206522D01*
X15292619Y-17206522D02*
X15302143Y-17187474D01*
X15302143Y-17187474D02*
X15321191Y-17177950D01*
X15321191Y-17177950D02*
X15349762Y-17177950D01*
X15349762Y-17177950D02*
X15368810Y-17187474D01*
X15445000Y-17387474D02*
X15454524Y-17377950D01*
X15454524Y-17377950D02*
X15473572Y-17349379D01*
X15473572Y-17349379D02*
X15483096Y-17330331D01*
X15483096Y-17330331D02*
X15492619Y-17301760D01*
X15492619Y-17301760D02*
X15502143Y-17254141D01*
X15502143Y-17254141D02*
X15502143Y-17216046D01*
X15502143Y-17216046D02*
X15492619Y-17168427D01*
X15492619Y-17168427D02*
X15483096Y-17139855D01*
X15483096Y-17139855D02*
X15473572Y-17120808D01*
X15473572Y-17120808D02*
X15454524Y-17092236D01*
X15454524Y-17092236D02*
X15445000Y-17082712D01*
M02*
