%TF.GenerationSoftware,KiCad,Pcbnew,9.0.0*%
%TF.CreationDate,2025-04-29T13:04:53-04:00*%
%TF.ProjectId,mp3_player,6d70335f-706c-4617-9965-722e6b696361,rev?*%
%TF.SameCoordinates,Original*%
%TF.FileFunction,Legend,Bot*%
%TF.FilePolarity,Positive*%
%FSLAX46Y46*%
G04 Gerber Fmt 4.6, Leading zero omitted, Abs format (unit mm)*
G04 Created by KiCad (PCBNEW 9.0.0) date 2025-04-29 13:04:53*
%MOMM*%
%LPD*%
G01*
G04 APERTURE LIST*
%ADD10C,0.100000*%
%ADD11C,0.150000*%
%ADD12C,0.120000*%
G04 APERTURE END LIST*
D10*
X152681794Y-65554905D02*
X153491317Y-65554905D01*
X153491317Y-65554905D02*
X153586555Y-65602524D01*
X153586555Y-65602524D02*
X153634175Y-65650143D01*
X153634175Y-65650143D02*
X153681794Y-65745381D01*
X153681794Y-65745381D02*
X153681794Y-65935857D01*
X153681794Y-65935857D02*
X153634175Y-66031095D01*
X153634175Y-66031095D02*
X153586555Y-66078714D01*
X153586555Y-66078714D02*
X153491317Y-66126333D01*
X153491317Y-66126333D02*
X152681794Y-66126333D01*
X153681794Y-67126333D02*
X153681794Y-66554905D01*
X153681794Y-66840619D02*
X152681794Y-66840619D01*
X152681794Y-66840619D02*
X152824651Y-66745381D01*
X152824651Y-66745381D02*
X152919889Y-66650143D01*
X152919889Y-66650143D02*
X152967508Y-66554905D01*
X153681794Y-68078714D02*
X153681794Y-67507286D01*
X153681794Y-67793000D02*
X152681794Y-67793000D01*
X152681794Y-67793000D02*
X152824651Y-67697762D01*
X152824651Y-67697762D02*
X152919889Y-67602524D01*
X152919889Y-67602524D02*
X152967508Y-67507286D01*
X147571794Y-53846884D02*
X146571794Y-53846884D01*
X147571794Y-54323074D02*
X146571794Y-54323074D01*
X146571794Y-54323074D02*
X147571794Y-54894502D01*
X147571794Y-54894502D02*
X146571794Y-54894502D01*
X147190841Y-55370693D02*
X147190841Y-56132598D01*
X147571794Y-55751645D02*
X146809889Y-55751645D01*
X146571794Y-69537360D02*
X146571794Y-69727836D01*
X146571794Y-69727836D02*
X146619413Y-69823074D01*
X146619413Y-69823074D02*
X146714651Y-69918312D01*
X146714651Y-69918312D02*
X146905127Y-69965931D01*
X146905127Y-69965931D02*
X147238460Y-69965931D01*
X147238460Y-69965931D02*
X147428936Y-69918312D01*
X147428936Y-69918312D02*
X147524175Y-69823074D01*
X147524175Y-69823074D02*
X147571794Y-69727836D01*
X147571794Y-69727836D02*
X147571794Y-69537360D01*
X147571794Y-69537360D02*
X147524175Y-69442122D01*
X147524175Y-69442122D02*
X147428936Y-69346884D01*
X147428936Y-69346884D02*
X147238460Y-69299265D01*
X147238460Y-69299265D02*
X146905127Y-69299265D01*
X146905127Y-69299265D02*
X146714651Y-69346884D01*
X146714651Y-69346884D02*
X146619413Y-69442122D01*
X146619413Y-69442122D02*
X146571794Y-69537360D01*
X146571794Y-70394503D02*
X147381317Y-70394503D01*
X147381317Y-70394503D02*
X147476555Y-70442122D01*
X147476555Y-70442122D02*
X147524175Y-70489741D01*
X147524175Y-70489741D02*
X147571794Y-70584979D01*
X147571794Y-70584979D02*
X147571794Y-70775455D01*
X147571794Y-70775455D02*
X147524175Y-70870693D01*
X147524175Y-70870693D02*
X147476555Y-70918312D01*
X147476555Y-70918312D02*
X147381317Y-70965931D01*
X147381317Y-70965931D02*
X146571794Y-70965931D01*
X146571794Y-71299265D02*
X146571794Y-71870693D01*
X147571794Y-71584979D02*
X146571794Y-71584979D01*
X147190841Y-72204027D02*
X147190841Y-72965932D01*
X147571794Y-72584979D02*
X146809889Y-72584979D01*
X150047984Y-71680217D02*
X150095603Y-71823074D01*
X150095603Y-71823074D02*
X150143222Y-71870693D01*
X150143222Y-71870693D02*
X150238460Y-71918312D01*
X150238460Y-71918312D02*
X150381317Y-71918312D01*
X150381317Y-71918312D02*
X150476555Y-71870693D01*
X150476555Y-71870693D02*
X150524175Y-71823074D01*
X150524175Y-71823074D02*
X150571794Y-71727836D01*
X150571794Y-71727836D02*
X150571794Y-71346884D01*
X150571794Y-71346884D02*
X149571794Y-71346884D01*
X149571794Y-71346884D02*
X149571794Y-71680217D01*
X149571794Y-71680217D02*
X149619413Y-71775455D01*
X149619413Y-71775455D02*
X149667032Y-71823074D01*
X149667032Y-71823074D02*
X149762270Y-71870693D01*
X149762270Y-71870693D02*
X149857508Y-71870693D01*
X149857508Y-71870693D02*
X149952746Y-71823074D01*
X149952746Y-71823074D02*
X150000365Y-71775455D01*
X150000365Y-71775455D02*
X150047984Y-71680217D01*
X150047984Y-71680217D02*
X150047984Y-71346884D01*
X150190841Y-72346884D02*
X150190841Y-73108789D01*
X150571794Y-72727836D02*
X149809889Y-72727836D01*
X157547984Y-71680217D02*
X157595603Y-71823074D01*
X157595603Y-71823074D02*
X157643222Y-71870693D01*
X157643222Y-71870693D02*
X157738460Y-71918312D01*
X157738460Y-71918312D02*
X157881317Y-71918312D01*
X157881317Y-71918312D02*
X157976555Y-71870693D01*
X157976555Y-71870693D02*
X158024175Y-71823074D01*
X158024175Y-71823074D02*
X158071794Y-71727836D01*
X158071794Y-71727836D02*
X158071794Y-71346884D01*
X158071794Y-71346884D02*
X157071794Y-71346884D01*
X157071794Y-71346884D02*
X157071794Y-71680217D01*
X157071794Y-71680217D02*
X157119413Y-71775455D01*
X157119413Y-71775455D02*
X157167032Y-71823074D01*
X157167032Y-71823074D02*
X157262270Y-71870693D01*
X157262270Y-71870693D02*
X157357508Y-71870693D01*
X157357508Y-71870693D02*
X157452746Y-71823074D01*
X157452746Y-71823074D02*
X157500365Y-71775455D01*
X157500365Y-71775455D02*
X157547984Y-71680217D01*
X157547984Y-71680217D02*
X157547984Y-71346884D01*
X157690841Y-72346884D02*
X157690841Y-73108789D01*
X152571794Y-56846884D02*
X153381317Y-56846884D01*
X153381317Y-56846884D02*
X153476555Y-56894503D01*
X153476555Y-56894503D02*
X153524175Y-56942122D01*
X153524175Y-56942122D02*
X153571794Y-57037360D01*
X153571794Y-57037360D02*
X153571794Y-57227836D01*
X153571794Y-57227836D02*
X153524175Y-57323074D01*
X153524175Y-57323074D02*
X153476555Y-57370693D01*
X153476555Y-57370693D02*
X153381317Y-57418312D01*
X153381317Y-57418312D02*
X152571794Y-57418312D01*
X153524175Y-57846884D02*
X153571794Y-57989741D01*
X153571794Y-57989741D02*
X153571794Y-58227836D01*
X153571794Y-58227836D02*
X153524175Y-58323074D01*
X153524175Y-58323074D02*
X153476555Y-58370693D01*
X153476555Y-58370693D02*
X153381317Y-58418312D01*
X153381317Y-58418312D02*
X153286079Y-58418312D01*
X153286079Y-58418312D02*
X153190841Y-58370693D01*
X153190841Y-58370693D02*
X153143222Y-58323074D01*
X153143222Y-58323074D02*
X153095603Y-58227836D01*
X153095603Y-58227836D02*
X153047984Y-58037360D01*
X153047984Y-58037360D02*
X153000365Y-57942122D01*
X153000365Y-57942122D02*
X152952746Y-57894503D01*
X152952746Y-57894503D02*
X152857508Y-57846884D01*
X152857508Y-57846884D02*
X152762270Y-57846884D01*
X152762270Y-57846884D02*
X152667032Y-57894503D01*
X152667032Y-57894503D02*
X152619413Y-57942122D01*
X152619413Y-57942122D02*
X152571794Y-58037360D01*
X152571794Y-58037360D02*
X152571794Y-58275455D01*
X152571794Y-58275455D02*
X152619413Y-58418312D01*
X153047984Y-59180217D02*
X153095603Y-59323074D01*
X153095603Y-59323074D02*
X153143222Y-59370693D01*
X153143222Y-59370693D02*
X153238460Y-59418312D01*
X153238460Y-59418312D02*
X153381317Y-59418312D01*
X153381317Y-59418312D02*
X153476555Y-59370693D01*
X153476555Y-59370693D02*
X153524175Y-59323074D01*
X153524175Y-59323074D02*
X153571794Y-59227836D01*
X153571794Y-59227836D02*
X153571794Y-58846884D01*
X153571794Y-58846884D02*
X152571794Y-58846884D01*
X152571794Y-58846884D02*
X152571794Y-59180217D01*
X152571794Y-59180217D02*
X152619413Y-59275455D01*
X152619413Y-59275455D02*
X152667032Y-59323074D01*
X152667032Y-59323074D02*
X152762270Y-59370693D01*
X152762270Y-59370693D02*
X152857508Y-59370693D01*
X152857508Y-59370693D02*
X152952746Y-59323074D01*
X152952746Y-59323074D02*
X153000365Y-59275455D01*
X153000365Y-59275455D02*
X153047984Y-59180217D01*
X153047984Y-59180217D02*
X153047984Y-58846884D01*
X161071794Y-53846884D02*
X160071794Y-53846884D01*
X161071794Y-54323074D02*
X160071794Y-54323074D01*
X160071794Y-54323074D02*
X161071794Y-54894502D01*
X161071794Y-54894502D02*
X160071794Y-54894502D01*
X160690841Y-55370693D02*
X160690841Y-56132598D01*
X160071794Y-70037360D02*
X160071794Y-70227836D01*
X160071794Y-70227836D02*
X160119413Y-70323074D01*
X160119413Y-70323074D02*
X160214651Y-70418312D01*
X160214651Y-70418312D02*
X160405127Y-70465931D01*
X160405127Y-70465931D02*
X160738460Y-70465931D01*
X160738460Y-70465931D02*
X160928936Y-70418312D01*
X160928936Y-70418312D02*
X161024175Y-70323074D01*
X161024175Y-70323074D02*
X161071794Y-70227836D01*
X161071794Y-70227836D02*
X161071794Y-70037360D01*
X161071794Y-70037360D02*
X161024175Y-69942122D01*
X161024175Y-69942122D02*
X160928936Y-69846884D01*
X160928936Y-69846884D02*
X160738460Y-69799265D01*
X160738460Y-69799265D02*
X160405127Y-69799265D01*
X160405127Y-69799265D02*
X160214651Y-69846884D01*
X160214651Y-69846884D02*
X160119413Y-69942122D01*
X160119413Y-69942122D02*
X160071794Y-70037360D01*
X160071794Y-70894503D02*
X160881317Y-70894503D01*
X160881317Y-70894503D02*
X160976555Y-70942122D01*
X160976555Y-70942122D02*
X161024175Y-70989741D01*
X161024175Y-70989741D02*
X161071794Y-71084979D01*
X161071794Y-71084979D02*
X161071794Y-71275455D01*
X161071794Y-71275455D02*
X161024175Y-71370693D01*
X161024175Y-71370693D02*
X160976555Y-71418312D01*
X160976555Y-71418312D02*
X160881317Y-71465931D01*
X160881317Y-71465931D02*
X160071794Y-71465931D01*
X160071794Y-71799265D02*
X160071794Y-72370693D01*
X161071794Y-72084979D02*
X160071794Y-72084979D01*
X160690841Y-72704027D02*
X160690841Y-73465932D01*
X108146794Y-116691095D02*
X108956317Y-116691095D01*
X108956317Y-116691095D02*
X109051555Y-116738714D01*
X109051555Y-116738714D02*
X109099175Y-116786333D01*
X109099175Y-116786333D02*
X109146794Y-116881571D01*
X109146794Y-116881571D02*
X109146794Y-117072047D01*
X109146794Y-117072047D02*
X109099175Y-117167285D01*
X109099175Y-117167285D02*
X109051555Y-117214904D01*
X109051555Y-117214904D02*
X108956317Y-117262523D01*
X108956317Y-117262523D02*
X108146794Y-117262523D01*
X108242032Y-117691095D02*
X108194413Y-117738714D01*
X108194413Y-117738714D02*
X108146794Y-117833952D01*
X108146794Y-117833952D02*
X108146794Y-118072047D01*
X108146794Y-118072047D02*
X108194413Y-118167285D01*
X108194413Y-118167285D02*
X108242032Y-118214904D01*
X108242032Y-118214904D02*
X108337270Y-118262523D01*
X108337270Y-118262523D02*
X108432508Y-118262523D01*
X108432508Y-118262523D02*
X108575365Y-118214904D01*
X108575365Y-118214904D02*
X109146794Y-117643476D01*
X109146794Y-117643476D02*
X109146794Y-118262523D01*
D11*
X169333333Y-92454819D02*
X169333333Y-93169104D01*
X169333333Y-93169104D02*
X169380952Y-93311961D01*
X169380952Y-93311961D02*
X169476190Y-93407200D01*
X169476190Y-93407200D02*
X169619047Y-93454819D01*
X169619047Y-93454819D02*
X169714285Y-93454819D01*
X168904761Y-92550057D02*
X168857142Y-92502438D01*
X168857142Y-92502438D02*
X168761904Y-92454819D01*
X168761904Y-92454819D02*
X168523809Y-92454819D01*
X168523809Y-92454819D02*
X168428571Y-92502438D01*
X168428571Y-92502438D02*
X168380952Y-92550057D01*
X168380952Y-92550057D02*
X168333333Y-92645295D01*
X168333333Y-92645295D02*
X168333333Y-92740533D01*
X168333333Y-92740533D02*
X168380952Y-92883390D01*
X168380952Y-92883390D02*
X168952380Y-93454819D01*
X168952380Y-93454819D02*
X168333333Y-93454819D01*
D10*
X124962470Y-85335580D02*
X124962470Y-84526057D01*
X124962470Y-84526057D02*
X125010089Y-84430819D01*
X125010089Y-84430819D02*
X125057708Y-84383200D01*
X125057708Y-84383200D02*
X125152946Y-84335580D01*
X125152946Y-84335580D02*
X125343422Y-84335580D01*
X125343422Y-84335580D02*
X125438660Y-84383200D01*
X125438660Y-84383200D02*
X125486279Y-84430819D01*
X125486279Y-84430819D02*
X125533898Y-84526057D01*
X125533898Y-84526057D02*
X125533898Y-85335580D01*
X126533898Y-84335580D02*
X125962470Y-84335580D01*
X126248184Y-84335580D02*
X126248184Y-85335580D01*
X126248184Y-85335580D02*
X126152946Y-85192723D01*
X126152946Y-85192723D02*
X126057708Y-85097485D01*
X126057708Y-85097485D02*
X125962470Y-85049866D01*
X117885402Y-81920580D02*
X118218735Y-80920580D01*
X118218735Y-80920580D02*
X118552068Y-81920580D01*
X118885402Y-80920580D02*
X118885402Y-81920580D01*
X119361592Y-80920580D02*
X119361592Y-81920580D01*
X119361592Y-81920580D02*
X119933020Y-80920580D01*
X119933020Y-80920580D02*
X119933020Y-81920580D01*
X120409211Y-81301533D02*
X121171116Y-81301533D01*
X120790163Y-80920580D02*
X120790163Y-81682485D01*
X136718735Y-67920580D02*
X136909211Y-67920580D01*
X136909211Y-67920580D02*
X137004449Y-67872961D01*
X137004449Y-67872961D02*
X137099687Y-67777723D01*
X137099687Y-67777723D02*
X137147306Y-67587247D01*
X137147306Y-67587247D02*
X137147306Y-67253914D01*
X137147306Y-67253914D02*
X137099687Y-67063438D01*
X137099687Y-67063438D02*
X137004449Y-66968200D01*
X137004449Y-66968200D02*
X136909211Y-66920580D01*
X136909211Y-66920580D02*
X136718735Y-66920580D01*
X136718735Y-66920580D02*
X136623497Y-66968200D01*
X136623497Y-66968200D02*
X136528259Y-67063438D01*
X136528259Y-67063438D02*
X136480640Y-67253914D01*
X136480640Y-67253914D02*
X136480640Y-67587247D01*
X136480640Y-67587247D02*
X136528259Y-67777723D01*
X136528259Y-67777723D02*
X136623497Y-67872961D01*
X136623497Y-67872961D02*
X136718735Y-67920580D01*
X137575878Y-67920580D02*
X137575878Y-67111057D01*
X137575878Y-67111057D02*
X137623497Y-67015819D01*
X137623497Y-67015819D02*
X137671116Y-66968200D01*
X137671116Y-66968200D02*
X137766354Y-66920580D01*
X137766354Y-66920580D02*
X137956830Y-66920580D01*
X137956830Y-66920580D02*
X138052068Y-66968200D01*
X138052068Y-66968200D02*
X138099687Y-67015819D01*
X138099687Y-67015819D02*
X138147306Y-67111057D01*
X138147306Y-67111057D02*
X138147306Y-67920580D01*
X138480640Y-67920580D02*
X139052068Y-67920580D01*
X138766354Y-66920580D02*
X138766354Y-67920580D01*
X139385402Y-67301533D02*
X140147307Y-67301533D01*
X117885402Y-67420580D02*
X118218735Y-66420580D01*
X118218735Y-66420580D02*
X118552068Y-67420580D01*
X118885402Y-66420580D02*
X118885402Y-67420580D01*
X119361592Y-66420580D02*
X119361592Y-67420580D01*
X119361592Y-67420580D02*
X119933020Y-66420580D01*
X119933020Y-66420580D02*
X119933020Y-67420580D01*
X120409211Y-66801533D02*
X121171116Y-66801533D01*
X136718735Y-81920580D02*
X136909211Y-81920580D01*
X136909211Y-81920580D02*
X137004449Y-81872961D01*
X137004449Y-81872961D02*
X137099687Y-81777723D01*
X137099687Y-81777723D02*
X137147306Y-81587247D01*
X137147306Y-81587247D02*
X137147306Y-81253914D01*
X137147306Y-81253914D02*
X137099687Y-81063438D01*
X137099687Y-81063438D02*
X137004449Y-80968200D01*
X137004449Y-80968200D02*
X136909211Y-80920580D01*
X136909211Y-80920580D02*
X136718735Y-80920580D01*
X136718735Y-80920580D02*
X136623497Y-80968200D01*
X136623497Y-80968200D02*
X136528259Y-81063438D01*
X136528259Y-81063438D02*
X136480640Y-81253914D01*
X136480640Y-81253914D02*
X136480640Y-81587247D01*
X136480640Y-81587247D02*
X136528259Y-81777723D01*
X136528259Y-81777723D02*
X136623497Y-81872961D01*
X136623497Y-81872961D02*
X136718735Y-81920580D01*
X137575878Y-81920580D02*
X137575878Y-81111057D01*
X137575878Y-81111057D02*
X137623497Y-81015819D01*
X137623497Y-81015819D02*
X137671116Y-80968200D01*
X137671116Y-80968200D02*
X137766354Y-80920580D01*
X137766354Y-80920580D02*
X137956830Y-80920580D01*
X137956830Y-80920580D02*
X138052068Y-80968200D01*
X138052068Y-80968200D02*
X138099687Y-81015819D01*
X138099687Y-81015819D02*
X138147306Y-81111057D01*
X138147306Y-81111057D02*
X138147306Y-81920580D01*
X138480640Y-81920580D02*
X139052068Y-81920580D01*
X138766354Y-80920580D02*
X138766354Y-81920580D01*
X139385402Y-81301533D02*
X140147307Y-81301533D01*
X139766354Y-80920580D02*
X139766354Y-81682485D01*
%TO.C,U11*%
X145449375Y-78543000D02*
X161949375Y-78543000D01*
X161949375Y-50543000D01*
X145449375Y-50543000D01*
X145449375Y-78543000D01*
X149449375Y-56043000D02*
X157949375Y-56043000D01*
X157949375Y-49043000D01*
X149449375Y-49043000D01*
X149449375Y-56043000D01*
G36*
X149449375Y-56043000D02*
G01*
X157949375Y-56043000D01*
X157949375Y-49043000D01*
X149449375Y-49043000D01*
X149449375Y-56043000D01*
G37*
%TO.C,U2*%
X114584375Y-104943000D02*
X172334375Y-104943000D01*
X172334375Y-132693000D01*
X114584375Y-132693000D01*
X114584375Y-104943000D01*
D12*
%TO.C,J2*%
X165940000Y-94090000D02*
X166860000Y-94090000D01*
X165940000Y-95690000D02*
X166860000Y-95690000D01*
X165940000Y-101910000D02*
X165940000Y-94090000D01*
X166700000Y-98050000D02*
X166700000Y-99650000D01*
X166700000Y-99650000D02*
X167700000Y-99650000D01*
X166860000Y-94090000D02*
X166860000Y-95690000D01*
X166860000Y-95690000D02*
X167140000Y-95690000D01*
X167700000Y-98050000D02*
X166700000Y-98050000D01*
X167700000Y-99650000D02*
X167700000Y-98050000D01*
X168500000Y-97550000D02*
X168500000Y-101910000D01*
X169500000Y-97550000D02*
X168500000Y-97550000D01*
X169500000Y-101910000D02*
X169500000Y-97550000D01*
X170300000Y-98050000D02*
X171300000Y-98050000D01*
X170300000Y-99650000D02*
X170300000Y-98050000D01*
X170300000Y-99650000D02*
X170300000Y-101910000D01*
X170800000Y-99650000D02*
X170800000Y-101910000D01*
X170860000Y-95690000D02*
X170860000Y-94475000D01*
X170860000Y-95690000D02*
X171140000Y-95690000D01*
X171140000Y-94090000D02*
X172060000Y-94090000D01*
X171140000Y-95690000D02*
X171140000Y-94090000D01*
X171300000Y-98050000D02*
X171300000Y-99650000D01*
X171300000Y-99650000D02*
X170300000Y-99650000D01*
X172060000Y-94090000D02*
X172060000Y-101910000D01*
X172060000Y-95690000D02*
X171140000Y-95690000D01*
X172060000Y-101910000D02*
X165940000Y-101910000D01*
%TO.C,U1*%
D10*
X112974375Y-83293000D02*
X144474375Y-83293000D01*
X144474375Y-65293000D01*
X112974375Y-65293000D01*
X112974375Y-83293000D01*
%TD*%
M02*
